<svg width="150" height="78" viewBox="0 0 150 78" fill="none" xmlns="http://www.w3.org/2000/svg">
<path fill-rule="evenodd" clip-rule="evenodd" d="M138.91 23.1203C138.878 21.3775 138.829 19.5944 138.688 17.8516C138.518 16.0395 138.249 14.3169 137.727 12.5626C137.208 10.8515 136.486 9.10873 135.606 7.56791C134.795 6.15694 133.855 4.95949 132.594 3.96114C131.281 2.91373 129.752 2.14909 128.147 1.64414C126.488 1.12188 124.595 0.798712 122.832 0.746775C121.081 0.677525 119.601 0.928557 117.959 1.4941C116.107 2.13755 114.196 3.08397 112.523 4.10252C111.022 5.02874 109.66 6.09635 108.229 7.1149C107.147 7.87954 105.956 8.63552 104.747 9.14912C103.826 9.54154 102.923 9.74352 101.922 9.69158C100.811 9.64253 99.6307 9.31936 98.5805 8.99908C97.2387 8.57493 95.9057 8.10172 94.5466 7.7295C93.0145 7.32554 91.4131 7.00237 89.8318 6.95332C88.2795 6.92158 86.6665 7.12356 85.2065 7.67756C83.7061 8.23156 82.5635 9.13758 81.6228 10.4591C80.662 11.7979 79.8598 13.5898 79.3809 15.1623C79.1818 15.8058 79.0317 16.4521 78.9307 17.1071C78.8788 17.4274 78.8499 17.7304 78.8095 18.0333C78.3883 18.0824 77.7188 18.1026 77.4678 18.1141C75.7366 18.1834 73.9851 18.1949 72.2539 18.2151C62.5848 18.3854 52.9042 18.5556 43.2554 18.7172C41.074 18.7489 38.8811 18.7893 36.7083 18.798C36.3881 18.798 36.088 18.8182 35.7879 18.798C35.7186 18.798 35.6667 18.798 35.6061 18.798C35.358 18.7691 35.1156 18.6479 34.8876 18.5469C34.2759 18.2555 33.6758 17.9525 33.0641 17.6698C32.9861 17.6409 32.914 17.6005 32.8246 17.5688C32.4754 17.4389 32.1147 17.3985 31.7339 17.3668C30.9115 17.2976 30.0517 17.2687 29.212 17.237L28.029 17.1879C28.029 17.1562 28.0405 17.136 28.0405 17.1158V14.3775C28.6119 14.0745 29.0014 13.4801 29.0014 12.7848C29.0014 11.7777 28.1906 10.9727 27.198 10.9727C26.1968 10.9727 25.3975 11.7893 25.3975 12.7848C25.3975 13.4801 25.787 14.0745 26.3583 14.3775V17.1158C24.3559 17.0148 22.3649 16.9138 20.3711 16.8243C20.3826 16.7638 20.3913 16.7032 20.3913 16.6339V13.5205C20.9626 13.2176 21.3521 12.6232 21.3521 11.9278C21.3521 10.9208 20.5413 10.1157 19.5516 10.1157C18.5504 10.1157 17.7511 10.9323 17.7511 11.9278C17.7511 12.6232 18.1407 13.2176 18.712 13.5205V16.6339C18.712 16.6628 18.7206 16.6945 18.7206 16.7349L18.5215 16.7234L17.2087 16.6743C16.369 16.6224 15.5063 16.5733 14.6868 16.5733C14.1674 16.5733 13.6048 16.6022 13.3451 17.1273C13.2758 17.2485 13.2441 17.3668 13.2268 17.4995C13.195 17.8516 13.2066 18.1949 13.094 18.5469C12.9642 18.9394 12.6757 19.3231 12.5054 19.7357C12.2544 20.2897 12.2544 20.7831 12.4246 21.3775C12.5458 21.8306 12.7738 22.2951 12.8459 22.7683C12.9152 23.1896 12.8257 23.683 12.7651 24.1274C12.6959 24.5804 13.0161 25.0045 13.4749 25.0738C13.9251 25.1546 14.3463 24.8314 14.4358 24.3784C14.5166 23.7551 14.606 23.1405 14.5079 22.5144C14.4271 21.92 14.2049 21.467 14.0549 20.9043C13.9856 20.7024 13.977 20.6014 14.0549 20.4109C14.1876 20.108 14.3954 19.8165 14.5252 19.5136C14.5974 19.3837 14.6579 19.2221 14.707 19.0692C14.7878 18.798 14.8368 18.5267 14.8772 18.244C14.958 18.2642 15.0475 18.2642 15.1167 18.2642C15.789 18.2844 16.4786 18.3161 17.1481 18.345C21.153 18.5469 25.1378 18.7374 29.1399 18.9192C29.9622 18.9711 30.8221 19 31.6646 19.049C31.8349 19.0692 32.1032 19.0807 32.2735 19.15C32.3254 19.1702 32.3542 19.1817 32.4033 19.2019C33.0237 19.4934 33.6152 19.8165 34.2355 20.0993C34.6366 20.2782 34.9973 20.4196 35.4272 20.4917C35.8283 20.5408 36.3477 20.5119 36.7574 20.5119C38.9417 20.4917 41.1317 20.46 43.316 20.4311C52.985 20.258 62.6627 20.0878 72.3346 19.9262C73.5754 19.906 74.8363 19.8973 76.0972 19.8569C76.8186 19.8367 77.5602 19.8252 78.2988 19.7848C79.0115 19.7357 80.0099 19.7155 80.3706 18.9711C80.4427 18.8182 80.4715 18.6768 80.4917 18.5152C80.6129 17.4995 80.7312 16.6541 81.0313 15.6558C81.4526 14.265 82.1739 12.6232 83.0338 11.4344C83.7955 10.387 84.6669 9.70313 85.8557 9.25011C87.0994 8.77691 88.4988 8.60378 89.8318 8.63552C91.2832 8.68457 92.7548 8.97888 94.1542 9.35976C95.4959 9.73198 96.8175 10.185 98.139 10.6005C99.3509 10.9727 100.632 11.3132 101.893 11.3738C103.154 11.4257 104.285 11.1949 105.456 10.6986C106.787 10.1446 108.059 9.33091 109.239 8.49413C110.65 7.49578 111.983 6.44837 113.443 5.54235C115.007 4.57573 116.808 3.67836 118.539 3.08397C120.002 2.5819 121.283 2.35973 122.832 2.40878C124.434 2.46072 126.168 2.76368 127.697 3.23689C129.091 3.68991 130.441 4.35355 131.601 5.27112C132.692 6.14829 133.503 7.18415 134.195 8.40469C135.015 9.82431 135.696 11.4546 136.166 13.0271C136.656 14.6689 136.928 16.279 137.058 17.9929C137.208 19.704 137.236 21.4266 137.277 23.1405C137.297 23.8561 137.297 24.5602 137.297 25.2959C137.297 25.749 137.689 26.1212 138.14 26.1212C138.61 26.1212 138.979 25.749 138.979 25.2959C138.93 24.5688 138.93 23.8446 138.91 23.1203Z" fill="#F8F8F8"/>
<path d="M15.1052 56.5131L10.5982 29.0381C10.451 28.5938 9.74984 28.6688 9.30549 28.6313C8.16286 28.5938 7.34917 28.6313 6.20366 28.7063C5.90934 28.7063 5.79681 28.6688 6.01899 28.8535C6.20366 29.0381 6.31619 29.2949 6.50086 29.5171C6.83268 29.924 6.64801 30.553 6.53548 31.032C5.42748 35.6486 4.43201 40.45 3.43365 45.2138C3.24899 45.2859 3.06432 45.361 2.87965 45.4331C2.10636 45.8399 0.738668 46.3564 0.885825 47.4298C1.43983 46.8383 2.06885 46.3218 2.80752 45.9871C2.95467 45.915 3.13934 45.8775 3.2865 45.8024C2.54783 49.3111 1.80916 52.8573 0.998356 56.2909C0.998356 56.2909 0.960845 56.4035 0.960845 56.5131H0V57.2518H3.17685V56.5131H2.10636L4.46952 45.5831C5.24281 45.5081 5.90934 45.6178 6.68552 45.8024C8.08784 46.1718 9.41802 46.9855 10.3414 48.0935C10.7453 50.8635 11.2993 54.15 11.634 56.5131H10.6357V57.2518H15.991V56.5131H15.1052ZM5.61215 44.5473C5.24281 44.6223 5.02352 44.6598 4.65419 44.807C5.64966 40.0806 6.6105 35.8708 7.68099 31.0695C8.19748 31.8428 8.31002 32.5468 8.41966 33.4701C8.97366 37.2731 9.41802 41.1136 9.897 44.9166C8.56682 44.4001 7.05486 44.3251 5.61215 44.5473Z" fill="#F8F8F8"/>
<path d="M25.7746 44.807C26.1814 45.0291 26.848 44.8445 27.1798 44.4751C27.5116 44.1058 27.5116 43.5864 27.5116 43.5518C27.4741 43.4018 27.4741 43.2921 27.402 43.145C27.327 42.8478 27.1423 42.5159 26.8826 42.1841C26.6258 41.8148 26.2565 41.483 25.8496 41.1886C25.4428 40.8914 24.9263 40.6346 24.3348 40.4125C23.7086 40.2278 23.0075 40.1153 22.2313 40.1153H22.0466C20.9011 40.1153 19.9028 40.3374 19.167 40.8193C18.6476 41.1136 18.2436 41.4454 17.9464 41.8148C17.6521 42.2216 17.43 42.5534 17.2828 42.8853C17.1356 43.2921 17.0231 43.699 16.951 44.1404V52.9323C16.951 53.042 16.951 53.3363 16.9856 53.671C16.9856 54.0749 17.0606 54.3721 17.1703 54.5568C17.2828 54.8511 17.4675 55.1454 17.6896 55.4801C17.9089 55.812 18.2061 56.1063 18.5755 56.366C18.9823 56.6228 19.4613 56.8449 20.0528 57.0296C20.6068 57.1768 21.308 57.2518 22.1188 57.2518H22.3409C22.9325 57.2518 23.6336 57.1046 24.3348 56.8449C25.0734 56.5506 25.7025 56.1063 26.219 55.4801C26.4786 55.1829 26.6633 54.8136 26.8105 54.4068C26.9201 54.0028 27.0326 53.596 27.1048 53.1891C27.1798 52.7823 27.1798 52.3033 27.1423 51.7868V51.7118H27.0673C26.9951 51.7118 26.8105 51.7118 26.5508 51.7118C26.219 51.7493 26.1093 51.7868 26.0343 51.7868L25.9593 51.8243L25.9968 51.8964C25.9968 52.3033 25.9968 52.7476 25.9246 53.1516C25.8496 53.5209 25.74 53.8903 25.5899 54.2971C25.4428 54.6665 25.186 54.9983 24.8166 55.2955C24.4473 55.6648 23.9654 55.8841 23.3768 55.9216C22.7853 55.9966 22.3034 55.9966 21.8995 55.9591C21.4176 55.9216 21.0108 55.7369 20.6414 55.4801C20.2721 55.1829 20.0874 54.8886 20.0528 54.5193V42.666C20.0528 42.5534 20.0874 42.4438 20.1249 42.2966C20.2375 41.9619 20.4221 41.5926 20.6789 41.2608C20.9386 41.0761 21.2329 40.929 21.5301 40.8914C21.862 40.8539 22.0841 40.8193 22.2688 40.8193C22.4535 40.8193 22.7478 40.8539 23.1546 40.929C23.524 41.004 23.8558 41.1511 24.1501 41.3358C24.4098 41.5205 24.5945 41.7426 24.7041 41.9619C25.5178 43.2546 25.1485 44.4376 25.7746 44.807Z" fill="#F8F8F8"/>
<path d="M38.591 42.9978C38.4785 42.7006 38.2938 42.3688 38.0717 42.037C37.887 41.7051 37.5552 41.4079 37.1858 41.1136C36.7819 40.8539 36.3 40.5971 35.746 40.45C35.192 40.2653 34.4909 40.1528 33.7147 40.1528H33.53C32.3845 40.1528 31.4265 40.4125 30.6504 40.8915C30.1339 41.1511 29.727 41.5205 29.4327 41.8898C29.1355 42.2591 28.9133 42.6285 28.7662 42.9603C28.619 43.3671 28.5094 43.7711 28.4344 44.1779V53.5585C28.4344 53.7431 28.544 54.0403 28.7287 54.4818C28.8412 54.7761 28.9884 55.1108 29.2105 55.4051C29.4327 55.7369 29.727 56.0341 30.1339 56.3285C30.5032 56.5881 30.9822 56.8449 31.5362 57.0296C32.1277 57.2143 32.7913 57.3268 33.605 57.3268H33.8272C34.9352 57.3268 35.8932 57.0671 36.6693 56.6228C37.1858 56.3285 37.5927 55.9966 37.887 55.6273C38.1467 55.258 38.3689 54.8886 38.516 54.5193C38.6632 54.15 38.7757 53.7431 38.8478 53.3017V43.9211C38.8478 43.6239 38.7757 43.3296 38.591 42.9978ZM31.5362 42.6285C31.5362 42.5535 31.5737 42.4438 31.6112 42.3313C31.7208 41.8898 31.9055 41.558 32.1652 41.2983C32.422 41.0761 32.7192 40.9665 33.0135 40.8915C33.3453 40.8539 33.605 40.8193 33.7522 40.8193C33.9369 40.8193 34.1215 40.8539 34.3437 40.929C34.5659 40.9665 34.8227 41.1136 35.0824 41.3358C35.3392 41.558 35.4892 41.7773 35.5613 41.9995C35.6364 42.1841 35.746 42.4063 35.7835 42.6285C35.821 42.9978 35.821 43.4018 35.821 43.7711C35.821 44.6223 35.821 45.4331 35.821 46.2843C35.821 47.3173 35.821 48.3878 35.821 49.4236C35.821 50.3816 35.821 51.38 35.821 52.3408C35.821 52.8948 35.821 53.4488 35.7835 53.9653C35.7835 54.4443 35.8585 55.0358 35.6739 55.5148C35.5613 55.7745 35.4142 55.9966 35.192 56.1813C34.8977 56.4035 34.6005 56.5506 34.2687 56.5881C33.9744 56.6603 33.7147 56.6603 33.53 56.6603C32.497 56.6603 31.6112 55.7745 31.5362 54.7415C31.5362 54.3346 31.5362 53.9278 31.5362 53.5209C31.5362 52.0436 31.5362 50.6038 31.5362 49.1264C31.5362 47.6145 31.5362 46.0621 31.5362 44.5473C31.5362 43.9211 31.5362 43.2921 31.5362 42.6285Z" fill="#F8F8F8"/>
<path d="M51.6994 55.9216C51.2926 55.2955 51.4772 54.4068 51.4772 53.671C51.4772 53.1891 51.4772 52.7101 51.4772 52.1937C51.4772 50.9731 51.4772 49.7555 51.4772 48.5003C51.4772 46.2843 51.4772 44.0683 51.4772 41.8148C51.4772 41.8148 51.4772 41.483 51.4772 41.1887H52.3284V40.45H47.4896V41.1887H48.3379V53.521C48.3379 54.075 48.1532 54.5914 47.7839 55.0733C47.4145 55.5523 47.0452 55.8841 46.6413 56.1063C46.4191 56.291 46.1219 56.4035 45.7525 56.4381C45.4207 56.4756 45.0889 56.4381 44.8292 56.291C44.6099 56.1813 44.4252 56.0688 44.2406 55.8841C44.0905 55.6994 44.0559 55.4801 44.0184 55.258C43.9059 54.5193 44.0184 53.7056 44.0184 52.9323C44.0184 52.0436 44.0184 51.1203 44.0184 50.2345C44.0184 49.1265 44.0184 48.0185 44.0184 46.8758C44.0184 45.84 44.0184 44.7695 44.0184 43.699C44.0184 42.9228 44.0184 42.1841 44.0184 41.4455C44.0184 41.3358 44.0184 41.2608 44.0184 41.1887H44.9792V40.45H40.1404V41.1887H40.9166V53.4863C40.9166 53.671 40.9887 54.0028 41.1734 54.4443C41.358 54.8511 41.6552 55.2955 42.0246 55.737C42.3939 56.1813 42.9479 56.5882 43.6491 56.8825C43.7587 56.92 43.8712 56.9575 43.9809 56.9921C44.0559 56.9921 44.1656 57.0296 44.2406 57.0671L44.2752 57.1046C44.4599 57.1046 44.6099 57.1422 44.7946 57.1768C44.8667 57.2143 44.9792 57.2518 45.0889 57.2518C45.1639 57.2518 45.2361 57.2143 45.3111 57.2143H45.4957C45.9372 57.1768 46.3816 57.0671 46.8259 56.8074C47.5646 56.4035 48.0061 56.0341 48.2657 55.6994C48.3754 55.5148 48.4504 55.3676 48.5225 55.2205C48.5976 55.737 48.8544 56.1813 49.2612 56.5131C49.7777 56.9921 50.5164 57.1768 51.4397 57.1422C51.8841 57.1422 52.2534 57.0671 52.5477 56.9921C52.7324 56.92 52.917 56.845 53.1017 56.8074C52.6978 56.92 51.9216 56.2188 51.6994 55.9216Z" fill="#F8F8F8"/>
<path d="M64.883 51.5271C64.808 51.0481 64.6608 50.6413 64.4762 50.272C64.2915 49.9026 63.9222 49.4236 63.4057 48.8696C63.221 48.6475 62.9238 48.4253 62.5199 48.131C62.1505 47.8713 61.7062 47.6491 61.2993 47.3923C60.8579 47.1326 60.451 46.9104 60.0442 46.6911C59.6373 46.469 59.3805 46.3218 59.1959 46.2468C58.0879 45.6553 57.3117 45.1013 56.8327 44.6223C56.3508 44.1404 56.094 43.6615 55.9815 43.1825C55.9469 43.0324 55.9469 42.8131 56.019 42.591C56.094 42.3688 56.2412 42.1466 56.4634 41.9273C56.6855 41.7051 56.9799 41.5205 57.3867 41.3733C57.7907 41.2233 58.31 41.1511 58.9737 41.1511C59.5652 41.1136 60.1192 41.2233 60.5607 41.5205C61.2272 41.9273 61.8187 42.4438 62.188 43.1075C62.6295 43.8461 62.7045 44.6944 62.7045 45.5081V45.6178H63.9222C64.0693 45.6178 63.9222 44.1779 63.8847 44.0308C63.6625 42.2967 62.592 40.8914 60.8579 40.4846C60.451 40.375 59.897 40.2999 59.268 40.2999C57.8657 40.2278 56.648 40.6346 55.5775 41.483C55.0235 41.9273 54.6542 42.4063 54.4695 42.9228C54.2849 43.4393 54.2098 43.9211 54.2098 44.4376C54.2098 44.9166 54.2474 45.361 54.357 45.7303C54.4695 46.1371 54.5792 46.3939 54.6542 46.5786C54.8389 46.8758 55.0957 47.2076 55.3929 47.4644C55.6872 47.7616 56.019 48.0184 56.3508 48.2406C56.7577 48.5003 57.1645 48.7571 57.5339 48.9793C57.6435 49.0168 57.8657 49.164 58.1975 49.3486C58.5293 49.5333 58.8987 49.718 59.3055 49.9776C59.7123 50.1969 60.0817 50.4191 60.4135 50.6788C60.7828 50.901 61.0425 51.1203 61.2272 51.2703C61.5965 51.6743 61.9283 52.1186 62.188 52.563C62.4448 53.042 62.5574 53.596 62.4823 54.225C62.4073 54.7415 62.1505 55.258 61.6687 55.812C61.2272 56.366 60.4885 56.6228 59.5277 56.6228C58.7515 56.5881 58.1254 56.366 57.606 55.9966C57.0549 55.5898 56.6855 55.258 56.4258 54.9608C56.1662 54.6665 55.9469 54.2971 55.7968 53.8181C55.6872 53.3738 55.5775 52.9323 55.54 52.563V52.488H54.3195L54.357 57.2518H55.4275L55.3178 57.1046C55.2803 57.0671 55.3178 57.0296 55.3178 56.9575C55.3929 56.8074 55.465 56.6978 55.5775 56.6603C55.7622 56.5881 55.9469 56.5881 56.1662 56.6603L56.6855 56.8825C57.0895 56.9921 57.4963 57.1421 57.9753 57.2893C58.4197 57.4365 58.9737 57.5115 59.5652 57.5115C60.0817 57.5115 60.6357 57.4365 61.1897 57.2893C61.7437 57.1421 62.2977 56.92 62.8517 56.5881C63.3682 56.2909 63.775 55.9216 64.0693 55.4801C64.3665 55.0358 64.5858 54.5914 64.7359 54.15C64.883 53.7056 64.9552 53.2266 64.9552 52.7477C64.9927 52.3033 64.9552 51.8965 64.883 51.5271Z" fill="#F8F8F8"/>
<path d="M67.7996 53.9278C68.0592 55.3676 68.8325 56.5131 70.4224 56.9921C71.4554 57.3268 72.6009 57.3268 73.6339 57.1046C74.1157 56.9921 74.5572 56.7728 74.9265 56.4381C75.1862 56.2188 75.4805 55.9591 75.7027 55.6273C75.9595 55.3301 76.1817 54.9983 76.4039 54.5914L76.4789 54.4443H76.2942C76.2192 54.4443 76.1096 54.4068 75.9595 54.3346C75.8499 54.2971 75.7749 54.2596 75.7027 54.225L75.6277 54.15L75.5556 54.2596C75.1112 55.0733 74.6322 55.5898 74.1157 55.8495C73.5964 56.1438 73.1174 56.2534 72.7481 56.2188C70.9014 56.0688 70.8639 54.3721 70.9014 52.9669C70.9014 52.488 70.8639 52.009 70.8639 51.5646C70.8639 50.6788 70.8639 49.7555 70.8639 48.8696C70.8639 46.9855 70.8639 45.1013 70.8639 43.2546C70.8639 42.2216 70.8639 41.2233 70.8639 40.2278H74.5572V39.4891H70.8639V35.2043H69.6087L69.5712 35.2793C69.4991 35.7208 69.349 36.1651 69.2019 36.6441C69.0547 37.051 68.9076 37.4578 68.6854 37.8646C68.4632 38.3061 68.2064 38.6754 67.8371 38.9726C67.6899 39.1198 67.4677 39.2294 67.2456 39.3045C66.9859 39.3766 66.7666 39.4141 66.5069 39.4516C66.2126 39.4891 65.9529 39.4891 65.6586 39.4891H65.546V40.2278H67.6524C67.6524 44.2905 67.7245 48.3878 67.6524 52.4505C67.6524 52.9669 67.6899 53.4488 67.7996 53.9278Z" fill="#F8F8F8"/>
<path d="M77.9176 34.8725C78.3245 35.2043 78.8035 35.3514 79.3575 35.3514C79.9115 35.3514 80.3904 35.2043 80.7598 34.8725C81.1291 34.5781 81.3513 34.1713 81.3513 33.727C81.3513 33.2855 81.1291 32.8786 80.7598 32.5814C80.3904 32.2496 79.9115 32.1025 79.3575 32.1025C78.8035 32.1025 78.3245 32.2496 77.9176 32.5814C77.5483 32.8786 77.3636 33.2855 77.3636 33.727C77.3636 34.1713 77.5483 34.5781 77.9176 34.8725ZM80.8348 56.5131V40.8539C80.8348 40.6347 80.7598 40.4125 80.6126 40.2653C80.4279 40.0807 80.1711 40.1153 79.8364 40.3375C79.2103 40.7443 78.7313 41.0761 78.3245 41.3358C77.9176 41.5926 77.5858 41.7773 77.3636 41.9273C77.0693 42.112 76.8471 42.2591 76.7 42.3688L76.6625 42.4063V42.9978H77.4011C77.5483 43.0699 77.6233 43.145 77.6954 43.2546C77.733 43.3671 77.733 43.4018 77.733 43.4393V56.5131H76.8471V57.2518H81.6831V56.5131H80.8348Z" fill="#F8F8F8"/>
<path d="M91.8752 44.807C92.282 45.0291 92.9485 44.8445 93.2804 44.4751C93.6122 44.1058 93.6122 43.5864 93.6122 43.5518C93.5747 43.4018 93.5747 43.2921 93.5025 43.145C93.4275 42.8478 93.2429 42.5159 92.9832 42.1841C92.7264 41.8148 92.357 41.483 91.9502 41.1886C91.5433 40.8914 91.0268 40.6346 90.4353 40.4125C89.8092 40.2278 89.108 40.1153 88.3319 40.1153H88.1472C87.0017 40.1153 86.0033 40.3374 85.2675 40.8193C84.7482 41.1136 84.3442 41.4454 84.047 41.8148C83.7527 42.2216 83.5305 42.5534 83.3834 42.8853C83.2362 43.2921 83.1237 43.699 83.0515 44.1404V52.9323C83.0515 53.042 83.0515 53.3363 83.0862 53.671C83.0862 54.0749 83.1612 54.3721 83.2708 54.5568C83.3834 54.8511 83.568 55.1454 83.7902 55.4801C84.0095 55.812 84.3067 56.1063 84.676 56.366C85.0829 56.6228 85.5619 56.8449 86.1534 57.0296C86.7074 57.1768 87.4085 57.2518 88.2193 57.2518H88.4415C89.033 57.2518 89.7342 57.1046 90.4353 56.8449C91.174 56.5506 91.803 56.1063 92.3195 55.4801C92.5792 55.1829 92.7639 54.8136 92.911 54.4068C93.0207 54.0028 93.1332 53.596 93.2053 53.1891C93.2804 52.7823 93.2804 52.3033 93.2428 51.7868V51.7118H93.1678C93.0957 51.7118 92.911 51.7118 92.6513 51.7118C92.3195 51.7493 92.2099 51.7868 92.1348 51.7868L92.0598 51.8243L92.0973 51.8964C92.0973 52.3033 92.0973 52.7476 92.0252 53.1516C91.9502 53.5209 91.8405 53.8903 91.6905 54.2971C91.5433 54.6665 91.2865 54.9983 90.9172 55.2955C90.5479 55.6648 90.066 55.8841 89.4774 55.9216C88.8859 55.9966 88.404 55.9966 88 55.9591C87.5182 55.9216 87.1113 55.7369 86.742 55.4801C86.3727 55.1829 86.188 54.8886 86.1534 54.5193V42.666C86.1534 42.5534 86.188 42.4438 86.2255 42.2966C86.338 41.9619 86.5227 41.5926 86.7795 41.2608C87.0392 41.0761 87.3335 40.929 87.6307 40.8914C87.9625 40.8539 88.1847 40.8193 88.3694 40.8193C88.554 40.8193 88.8484 40.8539 89.2552 40.929C89.6245 41.004 89.9564 41.1511 90.2507 41.3358C90.5104 41.5205 90.695 41.7426 90.8047 41.9619C91.6184 43.2546 91.249 44.4376 91.8752 44.807Z" fill="#F8F8F8"/>
<path d="M109.455 56.5131L104.948 29.0381C104.801 28.5938 104.1 28.6688 103.656 28.6313C102.513 28.5938 101.699 28.6313 100.554 28.7063C100.26 28.7063 100.147 28.6688 100.369 28.8535C100.554 29.0381 100.666 29.2949 100.851 29.5171C101.183 29.924 100.998 30.553 100.886 31.032C99.7777 35.6486 98.7822 40.45 97.7839 45.2138C97.5992 45.2859 97.4146 45.361 97.2299 45.4331C96.4566 45.8399 95.0889 46.3564 95.2361 47.4298C95.7901 46.8383 96.4191 46.3218 97.1578 45.9871C97.3049 45.915 97.4896 45.8775 97.6367 45.8024C96.8981 49.3111 96.1594 52.8573 95.3486 56.2909C95.3486 56.2909 95.3111 56.4035 95.3111 56.5131H94.3502V57.2518H97.5271V56.5131H96.4566L98.8198 45.5831C99.5931 45.5081 100.26 45.6178 101.036 45.8024C102.438 46.1718 103.768 46.9855 104.692 48.0935C105.096 50.8635 105.65 54.15 105.984 56.5131H104.986V57.2518H110.341V56.5131H109.455ZM99.9624 44.5473C99.5931 44.6223 99.3738 44.6598 99.0044 44.807C99.9999 40.0806 100.961 35.8708 102.031 31.0695C102.548 31.8428 102.66 32.5468 102.77 33.4701C103.324 37.2731 103.768 41.1136 104.247 44.9166C102.917 44.4001 101.405 44.3251 99.9624 44.5473Z" fill="#F8F8F8"/>
<path d="M116.654 29.37V28.6313H111.226V29.37H112.259V56.5131H111.301V57.2518H116.359V56.5131H115.436V29.37H116.654Z" fill="#F8F8F8"/>
<path d="M123.633 29.37V28.6313H118.206V29.37H119.239V56.5131H118.281V57.2518H123.339V56.5131H122.415V29.37H123.633Z" fill="#F8F8F8"/>
<path d="M135.082 52.3033C134.75 52.3033 134.638 52.3408 134.603 52.3408L134.528 52.3783V52.488C134.49 52.6351 134.453 52.7823 134.418 52.9323C134.381 53.0795 134.343 53.2266 134.306 53.3738C134.234 53.5585 134.196 53.7056 134.159 53.8181C133.899 54.4443 133.495 54.9983 132.866 55.4801C132.24 55.9591 131.351 56.1813 130.281 56.1438C129.764 56.0688 129.285 55.8495 128.878 55.4801C128.471 55.1108 128.287 54.6289 128.287 54.0028V49.8276C128.287 49.793 128.287 49.793 128.287 49.793V49.1264C128.471 49.1264 128.619 49.1264 128.766 49.1264C129.986 49.1264 131.166 49.1264 132.349 49.0543C133.31 49.0168 134.234 48.7946 134.935 48.131C135.896 47.2452 136.043 45.84 135.858 44.5848C135.711 43.2546 135.267 41.9995 134.121 41.1886C133.717 40.8914 133.198 40.6693 132.609 40.45C132.018 40.2653 131.279 40.1528 130.503 40.1528H130.281C129.135 40.1528 128.14 40.375 127.401 40.8539C126.884 41.1511 126.478 41.483 126.183 41.8523C125.886 42.2591 125.664 42.591 125.517 42.9228C125.37 43.3296 125.26 43.7365 125.185 44.1779V52.6726C125.185 52.9323 125.185 53.1891 125.222 53.4113C125.26 53.596 125.295 53.8181 125.332 54.0028C125.332 54.225 125.37 54.3721 125.479 54.4818C125.592 54.7761 125.739 55.0733 125.999 55.4051C126.218 55.6994 126.553 56.0341 126.922 56.291C127.291 56.5882 127.77 56.8074 128.324 56.9921C128.878 57.1768 129.542 57.2893 130.356 57.2893H130.54C131.573 57.2893 132.497 57.0296 133.31 56.5506C134.083 56.0688 134.713 55.4051 135.119 54.5193C135.229 54.2596 135.304 54.0403 135.342 53.7806C135.414 53.5209 135.489 53.3017 135.561 53.117C135.561 52.8948 135.598 52.6726 135.636 52.4505L135.673 52.3408H135.561C135.489 52.3408 135.376 52.3408 135.082 52.3033ZM128.287 42.6285C128.287 42.5159 128.324 42.4063 128.362 42.2966C128.434 41.8523 128.619 41.5205 128.916 41.2608C129.173 41.0761 129.47 40.929 129.802 40.8539C132.644 40.375 133.974 44.253 133.382 46.5411C133.235 47.1701 132.978 47.9838 132.274 48.1685C131.648 48.3156 130.982 48.3532 130.356 48.3532C129.764 48.3156 129.1 48.3532 128.546 48.0935C128.471 48.0184 128.362 47.9838 128.287 47.9088V42.6285Z" fill="#F8F8F8"/>
<path d="M144.425 40.4125V41.2608H144.535C144.757 41.2608 145.017 41.2983 145.311 41.4079C145.568 41.483 145.718 41.7426 145.718 42.1841C145.718 42.1841 145.718 53.8557 145.718 53.8903C145.718 55.1454 144.757 56.4035 143.465 56.5131C143.02 56.5881 142.616 56.5131 142.247 56.3285C141.471 56.0341 141.471 54.8886 141.471 54.1875V41.1511H142.616V40.4125H137.039V41.1511H138.256V53.5209C138.256 53.6335 138.256 53.8181 138.331 54.0749C138.369 54.3721 138.479 54.5914 138.591 54.7761C138.738 55.1829 138.995 55.5523 139.364 55.9216C139.846 56.366 140.435 56.6978 141.026 56.92C141.508 57.1046 142.247 57.1046 142.651 57.399C145.828 59.7996 147.268 63.4555 146.936 67.371C146.676 70.4728 145.274 74.2037 142.319 75.7531C138.663 77.6373 133.937 74.7577 132.46 71.3211C131.611 69.3273 131.574 67.0391 132.312 65.0078C132.939 63.3833 134.159 61.6088 135.968 61.2394C139.734 60.4633 143.17 63.7527 143.133 67.4085C143.133 67.8124 145.496 67.3335 145.496 66.5573C145.533 62.3475 141.693 59.69 137.702 60.0218C132.829 60.4633 129.06 64.4538 129.43 69.4398C129.799 74.6826 134.86 78.0441 139.881 77.3055C144.128 76.714 147.415 73.7593 148.707 69.6966C149.559 67.0738 149.596 64.2691 148.782 61.7934V42.1841C148.782 41.8898 148.82 41.6301 148.93 41.4455C148.967 41.3733 149.152 41.1886 149.89 41.1886H150V40.4125H144.425Z" fill="#F8F8F8"/>
</svg>
