<svg width="150" height="77" viewBox="0 0 150 77" fill="none" xmlns="http://www.w3.org/2000/svg">
<path fill-rule="evenodd" clip-rule="evenodd" d="M138.91 22.4168C138.878 20.6741 138.829 18.8909 138.688 17.1481C138.518 15.336 138.249 13.6134 137.727 11.8591C137.208 10.148 136.486 8.40524 135.606 6.86442C134.795 5.45345 133.855 4.256 132.594 3.25764C131.281 2.21024 129.752 1.4456 128.147 0.94065C126.488 0.418388 124.595 0.095221 122.832 0.0432838C121.081 -0.0259663 119.601 0.225066 117.959 0.790608C116.107 1.43406 114.196 2.38048 112.523 3.39903C111.022 4.32525 109.66 5.39286 108.229 6.41141C107.147 7.17605 105.956 7.93203 104.747 8.44563C103.826 8.83805 102.923 9.04003 101.922 8.98809C100.811 8.93904 99.6307 8.61587 98.5805 8.29559C97.2387 7.87143 95.9057 7.39822 94.5466 7.02601C93.0145 6.62205 91.4131 6.29888 89.8318 6.24983C88.2795 6.21809 86.6665 6.42007 85.2065 6.97407C83.7061 7.52807 82.5635 8.43409 81.6228 9.75562C80.662 11.0945 79.8598 12.8863 79.3809 14.4589C79.1818 15.1023 79.0317 15.7486 78.9307 16.4036C78.8788 16.7239 78.8499 17.0269 78.8095 17.3298C78.3883 17.3789 77.7188 17.3991 77.4678 17.4106C75.7366 17.4799 73.9851 17.4914 72.2539 17.5116C62.5848 17.6819 52.9042 17.8521 43.2554 18.0137C41.074 18.0454 38.8811 18.0858 36.7083 18.0945C36.3881 18.0945 36.088 18.1147 35.7879 18.0945C35.7186 18.0945 35.6667 18.0945 35.6061 18.0945C35.358 18.0656 35.1156 17.9444 34.8876 17.8435C34.2759 17.552 33.6758 17.2491 33.0641 16.9663C32.9861 16.9374 32.914 16.897 32.8246 16.8653C32.4754 16.7355 32.1147 16.6951 31.7339 16.6633C30.9115 16.5941 30.0517 16.5652 29.212 16.5335L28.029 16.4844C28.029 16.4527 28.0405 16.4325 28.0405 16.4123V13.674C28.6119 13.371 29.0014 12.7767 29.0014 12.0813C29.0014 11.0743 28.1906 10.2692 27.198 10.2692C26.1968 10.2692 25.3975 11.0858 25.3975 12.0813C25.3975 12.7767 25.787 13.371 26.3583 13.674V16.4123C24.3559 16.3113 22.3649 16.2103 20.3711 16.1209C20.3826 16.0603 20.3913 15.9997 20.3913 15.9304V12.817C20.9626 12.5141 21.3521 11.9197 21.3521 11.2243C21.3521 10.2173 20.5413 9.41225 19.5516 9.41225C18.5504 9.41225 17.7511 10.2288 17.7511 11.2243C17.7511 11.9197 18.1407 12.5141 18.712 12.817V15.9304C18.712 15.9593 18.7206 15.991 18.7206 16.0314L18.5215 16.0199L17.2087 15.9708C16.369 15.9189 15.5063 15.8698 14.6868 15.8698C14.1674 15.8698 13.6048 15.8987 13.3451 16.4238C13.2758 16.545 13.2441 16.6633 13.2268 16.796C13.195 17.1481 13.2066 17.4914 13.094 17.8435C12.9642 18.2359 12.6757 18.6196 12.5054 19.0322C12.2544 19.5862 12.2544 20.0797 12.4246 20.6741C12.5458 21.1271 12.7738 21.5916 12.8459 22.0648C12.9152 22.4861 12.8257 22.9795 12.7651 23.4239C12.6959 23.8769 13.0161 24.301 13.4749 24.3703C13.9251 24.4511 14.3463 24.1279 14.4358 23.6749C14.5166 23.0516 14.606 22.437 14.5079 21.8109C14.4271 21.2165 14.2049 20.7635 14.0549 20.2008C13.9856 19.9989 13.977 19.8979 14.0549 19.7074C14.1876 19.4045 14.3954 19.113 14.5252 18.8101C14.5974 18.6802 14.6579 18.5186 14.707 18.3657C14.7878 18.0945 14.8368 17.8233 14.8772 17.5405C14.958 17.5607 15.0475 17.5607 15.1167 17.5607C15.789 17.5809 16.4786 17.6126 17.1481 17.6415C21.153 17.8435 25.1378 18.0339 29.1399 18.2157C29.9622 18.2676 30.8221 18.2965 31.6646 18.3455C31.8349 18.3657 32.1032 18.3773 32.2735 18.4465C32.3254 18.4667 32.3542 18.4782 32.4033 18.4984C33.0237 18.7899 33.6152 19.113 34.2355 19.3958C34.6366 19.5747 34.9973 19.7161 35.4272 19.7882C35.8283 19.8373 36.3477 19.8084 36.7574 19.8084C38.9417 19.7882 41.1317 19.7565 43.316 19.7276C52.985 19.5545 62.6627 19.3843 72.3346 19.2227C73.5754 19.2025 74.8363 19.1938 76.0972 19.1534C76.8186 19.1332 77.5602 19.1217 78.2988 19.0813C79.0115 19.0322 80.0099 19.012 80.3706 18.2676C80.4427 18.1147 80.4715 17.9733 80.4917 17.8117C80.6129 16.796 80.7312 15.9506 81.0313 14.9523C81.4526 13.5615 82.1739 11.9197 83.0338 10.7309C83.7955 9.68348 84.6669 8.99963 85.8557 8.54662C87.0994 8.07341 88.4988 7.90029 89.8318 7.93203C91.2832 7.98108 92.7548 8.27539 94.1542 8.65627C95.4959 9.02849 96.8175 9.4815 98.139 9.897C99.3509 10.2692 100.632 10.6097 101.893 10.6703C103.154 10.7222 104.285 10.4914 105.456 9.9951C106.787 9.4411 108.059 8.62742 109.239 7.79064C110.65 6.79229 111.983 5.74488 113.443 4.83886C115.007 3.87224 116.808 2.97487 118.539 2.38048C120.002 1.87841 121.283 1.65623 122.832 1.70529C124.434 1.75722 126.168 2.06019 127.697 2.5334C129.091 2.98641 130.441 3.65006 131.601 4.56763C132.692 5.44479 133.503 6.48066 134.195 7.70119C135.015 9.12082 135.696 10.7511 136.166 12.3236C136.656 13.9654 136.928 15.5755 137.058 17.2895C137.208 19.0005 137.236 20.7231 137.277 22.437C137.297 23.1526 137.297 23.8567 137.297 24.5925C137.297 25.0455 137.689 25.4177 138.14 25.4177C138.61 25.4177 138.979 25.0455 138.979 24.5925C138.93 23.8653 138.93 23.1411 138.91 22.4168Z" fill="#F8F8F8"/>
<path d="M15.1052 55.8096L10.5982 28.3346C10.451 27.8903 9.74984 27.9653 9.30549 27.9278C8.16286 27.8903 7.34917 27.9278 6.20366 28.0028C5.90934 28.0028 5.79681 27.9653 6.01899 28.15C6.20366 28.3346 6.31619 28.5914 6.50086 28.8136C6.83268 29.2205 6.64801 29.8495 6.53548 30.3285C5.42748 34.9451 4.43201 39.7465 3.43365 44.5103C3.24899 44.5824 3.06432 44.6575 2.87965 44.7296C2.10636 45.1365 0.738668 45.6529 0.885825 46.7263C1.43983 46.1348 2.06885 45.6183 2.80752 45.2836C2.95467 45.2115 3.13934 45.174 3.2865 45.0989C2.54783 48.6076 1.80916 52.1538 0.998356 55.5874C0.998356 55.5874 0.960845 55.7 0.960845 55.8096H0V56.5483H3.17685V55.8096H2.10636L4.46952 44.8796C5.24281 44.8046 5.90934 44.9143 6.68552 45.0989C8.08784 45.4683 9.41802 46.282 10.3414 47.39C10.7453 50.16 11.2993 53.4465 11.634 55.8096H10.6357V56.5483H15.991V55.8096H15.1052ZM5.61215 43.8438C5.24281 43.9188 5.02352 43.9563 4.65419 44.1035C5.64966 39.3771 6.6105 35.1673 7.68099 30.366C8.19748 31.1393 8.31002 31.8433 8.41966 32.7666C8.97366 36.5696 9.41802 40.4101 9.897 44.2131C8.56682 43.6966 7.05486 43.6216 5.61215 43.8438Z" fill="#F8F8F8"/>
<path d="M25.7746 44.1035C26.1814 44.3256 26.848 44.141 27.1798 43.7716C27.5116 43.4023 27.5116 42.8829 27.5116 42.8483C27.4741 42.6983 27.4741 42.5886 27.402 42.4415C27.327 42.1443 27.1423 41.8124 26.8826 41.4806C26.6258 41.1113 26.2565 40.7795 25.8496 40.4852C25.4428 40.188 24.9263 39.9312 24.3348 39.709C23.7086 39.5243 23.0075 39.4118 22.2313 39.4118H22.0466C20.9011 39.4118 19.9028 39.634 19.167 40.1158C18.6476 40.4101 18.2436 40.742 17.9464 41.1113C17.6521 41.5181 17.43 41.85 17.2828 42.1818C17.1356 42.5886 17.0231 42.9955 16.951 43.4369V52.2288C16.951 52.3385 16.951 52.6328 16.9856 52.9675C16.9856 53.3714 17.0606 53.6686 17.1703 53.8533C17.2828 54.1476 17.4675 54.4419 17.6896 54.7766C17.9089 55.1085 18.2061 55.4028 18.5755 55.6625C18.9823 55.9193 19.4613 56.1415 20.0528 56.3261C20.6068 56.4733 21.308 56.5483 22.1188 56.5483H22.3409C22.9325 56.5483 23.6336 56.4011 24.3348 56.1415C25.0734 55.8471 25.7025 55.4028 26.219 54.7766C26.4786 54.4795 26.6633 54.1101 26.8105 53.7033C26.9201 53.2993 27.0326 52.8925 27.1048 52.4856C27.1798 52.0788 27.1798 51.5998 27.1423 51.0833V51.0083H27.0673C26.9951 51.0083 26.8105 51.0083 26.5508 51.0083C26.219 51.0458 26.1093 51.0833 26.0343 51.0833L25.9593 51.1208L25.9968 51.193C25.9968 51.5998 25.9968 52.0442 25.9246 52.4481C25.8496 52.8174 25.74 53.1868 25.5899 53.5936C25.4428 53.963 25.186 54.2948 24.8166 54.592C24.4473 54.9613 23.9654 55.1806 23.3768 55.2181C22.7853 55.2931 22.3034 55.2931 21.8995 55.2556C21.4176 55.2181 21.0108 55.0335 20.6414 54.7766C20.2721 54.4795 20.0874 54.1851 20.0528 53.8158V41.9625C20.0528 41.85 20.0874 41.7403 20.1249 41.5932C20.2375 41.2584 20.4221 40.8891 20.6789 40.5573C20.9386 40.3726 21.2329 40.2255 21.5301 40.188C21.862 40.1504 22.0841 40.1158 22.2688 40.1158C22.4535 40.1158 22.7478 40.1504 23.1546 40.2255C23.524 40.3005 23.8558 40.4476 24.1501 40.6323C24.4098 40.817 24.5945 41.0392 24.7041 41.2584C25.5178 42.5511 25.1485 43.7341 25.7746 44.1035Z" fill="#F8F8F8"/>
<path d="M38.591 42.2943C38.4785 41.9971 38.2938 41.6653 38.0717 41.3335C37.887 41.0016 37.5552 40.7045 37.1858 40.4101C36.7819 40.1505 36.3 39.8937 35.746 39.7465C35.192 39.5618 34.4909 39.4493 33.7147 39.4493H33.53C32.3845 39.4493 31.4265 39.709 30.6504 40.188C30.1339 40.4477 29.727 40.817 29.4327 41.1863C29.1355 41.5556 28.9133 41.925 28.7662 42.2568C28.619 42.6637 28.5094 43.0676 28.4344 43.4745V52.855C28.4344 53.0396 28.544 53.3368 28.7287 53.7783C28.8412 54.0726 28.9884 54.4073 29.2105 54.7016C29.4327 55.0335 29.727 55.3307 30.1339 55.625C30.5032 55.8847 30.9822 56.1415 31.5362 56.3261C32.1277 56.5108 32.7913 56.6233 33.605 56.6233H33.8272C34.9352 56.6233 35.8932 56.3636 36.6693 55.9193C37.1858 55.625 37.5927 55.2931 37.887 54.9238C38.1467 54.5545 38.3689 54.1851 38.516 53.8158C38.6632 53.4465 38.7757 53.0396 38.8478 52.5982V43.2177C38.8478 42.9205 38.7757 42.6261 38.591 42.2943ZM31.5362 41.925C31.5362 41.85 31.5737 41.7403 31.6112 41.6278C31.7208 41.1863 31.9055 40.8545 32.1652 40.5948C32.422 40.3726 32.7192 40.263 33.0135 40.188C33.3453 40.1505 33.605 40.1158 33.7522 40.1158C33.9369 40.1158 34.1215 40.1504 34.3437 40.2255C34.5659 40.263 34.8227 40.4101 35.0824 40.6323C35.3392 40.8545 35.4892 41.0738 35.5613 41.296C35.6364 41.4806 35.746 41.7028 35.7835 41.925C35.821 42.2943 35.821 42.6983 35.821 43.0676C35.821 43.9188 35.821 44.7296 35.821 45.5808C35.821 46.6138 35.821 47.6843 35.821 48.7202C35.821 49.6781 35.821 50.6765 35.821 51.6373C35.821 52.1913 35.821 52.7453 35.7835 53.2618C35.7835 53.7408 35.8585 54.3323 35.6739 54.8113C35.5613 55.071 35.4142 55.2931 35.192 55.4778C34.8977 55.7 34.6005 55.8471 34.2687 55.8847C33.9744 55.9568 33.7147 55.9568 33.53 55.9568C32.497 55.9568 31.6112 55.071 31.5362 54.038C31.5362 53.6311 31.5362 53.2243 31.5362 52.8175C31.5362 51.3401 31.5362 49.9003 31.5362 48.423C31.5362 46.911 31.5362 45.3586 31.5362 43.8438C31.5362 43.2177 31.5362 42.5886 31.5362 41.925Z" fill="#F8F8F8"/>
<path d="M51.6994 55.2181C51.2926 54.592 51.4772 53.7033 51.4772 52.9675C51.4772 52.4856 51.4772 52.0067 51.4772 51.4902C51.4772 50.2696 51.4772 49.052 51.4772 47.7968C51.4772 45.5808 51.4772 43.3648 51.4772 41.1113C51.4772 41.1113 51.4772 40.7795 51.4772 40.4852H52.3284V39.7465H47.4896V40.4852H48.3379V52.8175C48.3379 53.3715 48.1532 53.888 47.7839 54.3698C47.4145 54.8488 47.0452 55.1806 46.6413 55.4028C46.4191 55.5875 46.1219 55.7 45.7525 55.7346C45.4207 55.7721 45.0889 55.7346 44.8292 55.5875C44.6099 55.4778 44.4252 55.3653 44.2406 55.1806C44.0905 54.996 44.0559 54.7767 44.0184 54.5545C43.9059 53.8158 44.0184 53.0021 44.0184 52.2288C44.0184 51.3401 44.0184 50.4168 44.0184 49.531C44.0184 48.423 44.0184 47.315 44.0184 46.1723C44.0184 45.1365 44.0184 44.066 44.0184 42.9955C44.0184 42.2193 44.0184 41.4806 44.0184 40.742C44.0184 40.6323 44.0184 40.5573 44.0184 40.4852H44.9792V39.7465H40.1404V40.4852H40.9166V52.7828C40.9166 52.9675 40.9887 53.2993 41.1734 53.7408C41.358 54.1476 41.6552 54.592 42.0246 55.0335C42.3939 55.4778 42.9479 55.8847 43.6491 56.179C43.7587 56.2165 43.8712 56.254 43.9809 56.2886C44.0559 56.2886 44.1656 56.3261 44.2406 56.3636L44.2752 56.4012C44.4599 56.4012 44.6099 56.4387 44.7946 56.4733C44.8667 56.5108 44.9792 56.5483 45.0889 56.5483C45.1639 56.5483 45.2361 56.5108 45.3111 56.5108H45.4957C45.9372 56.4733 46.3816 56.3636 46.8259 56.104C47.5646 55.7 48.0061 55.3307 48.2657 54.996C48.3754 54.8113 48.4504 54.6641 48.5225 54.517C48.5976 55.0335 48.8544 55.4778 49.2612 55.8096C49.7777 56.2886 50.5164 56.4733 51.4397 56.4387C51.8841 56.4387 52.2534 56.3636 52.5477 56.2886C52.7324 56.2165 52.917 56.1415 53.1017 56.104C52.6978 56.2165 51.9216 55.5153 51.6994 55.2181Z" fill="#F8F8F8"/>
<path d="M64.883 50.8236C64.808 50.3446 64.6608 49.9378 64.4762 49.5685C64.2915 49.1991 63.9222 48.7202 63.4057 48.1662C63.221 47.944 62.9238 47.7218 62.5199 47.4275C62.1505 47.1678 61.7062 46.9456 61.2993 46.6888C60.8579 46.4291 60.451 46.2069 60.0442 45.9877C59.6373 45.7655 59.3805 45.6183 59.1959 45.5433C58.0879 44.9518 57.3117 44.3978 56.8327 43.9188C56.3508 43.4369 56.094 42.958 55.9815 42.479C55.9469 42.3289 55.9469 42.1096 56.019 41.8875C56.094 41.6653 56.2412 41.4431 56.4634 41.2238C56.6855 41.0017 56.9799 40.817 57.3867 40.6698C57.7907 40.5198 58.31 40.4476 58.9737 40.4476C59.5652 40.4101 60.1192 40.5198 60.5607 40.817C61.2272 41.2238 61.8187 41.7403 62.188 42.404C62.6295 43.1426 62.7045 43.9909 62.7045 44.8046V44.9143H63.9222C64.0693 44.9143 63.9222 43.4745 63.8847 43.3273C63.6625 41.5932 62.592 40.188 60.8579 39.7811C60.451 39.6715 59.897 39.5965 59.268 39.5965C57.8657 39.5243 56.648 39.9312 55.5775 40.7795C55.0235 41.2238 54.6542 41.7028 54.4695 42.2193C54.2849 42.7358 54.2098 43.2177 54.2098 43.7341C54.2098 44.2131 54.2474 44.6575 54.357 45.0268C54.4695 45.4337 54.5792 45.6905 54.6542 45.8751C54.8389 46.1723 55.0957 46.5042 55.3929 46.761C55.6872 47.0582 56.019 47.3149 56.3508 47.5371C56.7577 47.7968 57.1645 48.0536 57.5339 48.2758C57.6435 48.3133 57.8657 48.4605 58.1975 48.6451C58.5293 48.8298 58.8987 49.0145 59.3055 49.2742C59.7123 49.4934 60.0817 49.7156 60.4135 49.9753C60.7828 50.1975 61.0425 50.4168 61.2272 50.5668C61.5965 50.9708 61.9283 51.4151 62.188 51.8595C62.4448 52.3385 62.5574 52.8925 62.4823 53.5215C62.4073 54.038 62.1505 54.5545 61.6687 55.1085C61.2272 55.6625 60.4885 55.9193 59.5277 55.9193C58.7515 55.8847 58.1254 55.6625 57.606 55.2931C57.0549 54.8863 56.6855 54.5545 56.4258 54.2573C56.1662 53.963 55.9469 53.5936 55.7968 53.1147C55.6872 52.6703 55.5775 52.2288 55.54 51.8595V51.7845H54.3195L54.357 56.5483H55.4275L55.3178 56.4011C55.2803 56.3636 55.3178 56.3261 55.3178 56.254C55.3929 56.1039 55.465 55.9943 55.5775 55.9568C55.7622 55.8847 55.9469 55.8847 56.1662 55.9568L56.6855 56.179C57.0895 56.2886 57.4963 56.4387 57.9753 56.5858C58.4197 56.733 58.9737 56.808 59.5652 56.808C60.0817 56.808 60.6357 56.733 61.1897 56.5858C61.7437 56.4387 62.2977 56.2165 62.8517 55.8847C63.3682 55.5875 63.775 55.2181 64.0693 54.7767C64.3665 54.3323 64.5858 53.8879 64.7359 53.4465C64.883 53.0021 64.9552 52.5231 64.9552 52.0442C64.9927 51.5998 64.9552 51.193 64.883 50.8236Z" fill="#F8F8F8"/>
<path d="M67.7996 53.2243C68.0592 54.6641 68.8325 55.8096 70.4224 56.2886C71.4554 56.6233 72.6009 56.6233 73.6339 56.4011C74.1157 56.2886 74.5572 56.0693 74.9265 55.7346C75.1862 55.5153 75.4805 55.2556 75.7027 54.9238C75.9595 54.6266 76.1817 54.2948 76.4039 53.8879L76.4789 53.7408H76.2942C76.2192 53.7408 76.1096 53.7033 75.9595 53.6311C75.8499 53.5936 75.7749 53.5561 75.7027 53.5215L75.6277 53.4465L75.5556 53.5561C75.1112 54.3698 74.6322 54.8863 74.1157 55.146C73.5964 55.4403 73.1174 55.5499 72.7481 55.5153C70.9014 55.3653 70.8639 53.6686 70.9014 52.2635C70.9014 51.7845 70.8639 51.3055 70.8639 50.8611C70.8639 49.9753 70.8639 49.052 70.8639 48.1661C70.8639 46.282 70.8639 44.3978 70.8639 42.5511C70.8639 41.5181 70.8639 40.5198 70.8639 39.5243H74.5572V38.7856H70.8639V34.5008H69.6087L69.5712 34.5758C69.4991 35.0173 69.349 35.4616 69.2019 35.9406C69.0547 36.3475 68.9076 36.7543 68.6854 37.1612C68.4632 37.6026 68.2064 37.972 67.8371 38.2692C67.6899 38.4163 67.4677 38.526 67.2456 38.601C66.9859 38.6731 66.7666 38.7106 66.5069 38.7481C66.2126 38.7856 65.9529 38.7856 65.6586 38.7856H65.546V39.5243H67.6524C67.6524 43.587 67.7245 47.6843 67.6524 51.747C67.6524 52.2635 67.6899 52.7453 67.7996 53.2243Z" fill="#F8F8F8"/>
<path d="M77.9176 34.169C78.3245 34.5008 78.8035 34.6479 79.3575 34.6479C79.9115 34.6479 80.3904 34.5008 80.7598 34.169C81.1291 33.8747 81.3513 33.4678 81.3513 33.0235C81.3513 32.582 81.1291 32.1751 80.7598 31.8779C80.3904 31.5461 79.9115 31.399 79.3575 31.399C78.8035 31.399 78.3245 31.5461 77.9176 31.8779C77.5483 32.1751 77.3636 32.582 77.3636 33.0235C77.3636 33.4678 77.5483 33.8747 77.9176 34.169ZM80.8348 55.8096V40.1505C80.8348 39.9312 80.7598 39.709 80.6126 39.5618C80.4279 39.3772 80.1711 39.4118 79.8364 39.634C79.2103 40.0408 78.7313 40.3726 78.3245 40.6323C77.9176 40.8891 77.5858 41.0738 77.3636 41.2238C77.0693 41.4085 76.8471 41.5557 76.7 41.6653L76.6625 41.7028V42.2943H77.4011C77.5483 42.3665 77.6233 42.4415 77.6954 42.5511C77.733 42.6637 77.733 42.6983 77.733 42.7358V55.8096H76.8471V56.5483H81.6831V55.8096H80.8348Z" fill="#F8F8F8"/>
<path d="M91.8752 44.1035C92.282 44.3256 92.9485 44.141 93.2804 43.7716C93.6122 43.4023 93.6122 42.8829 93.6122 42.8483C93.5747 42.6983 93.5747 42.5886 93.5025 42.4415C93.4275 42.1443 93.2429 41.8124 92.9832 41.4806C92.7264 41.1113 92.357 40.7795 91.9502 40.4852C91.5433 40.188 91.0268 39.9312 90.4353 39.709C89.8092 39.5243 89.108 39.4118 88.3319 39.4118H88.1472C87.0017 39.4118 86.0033 39.634 85.2675 40.1158C84.7482 40.4101 84.3442 40.742 84.047 41.1113C83.7527 41.5181 83.5305 41.85 83.3834 42.1818C83.2362 42.5886 83.1237 42.9955 83.0515 43.4369V52.2288C83.0515 52.3385 83.0515 52.6328 83.0862 52.9675C83.0862 53.3714 83.1612 53.6686 83.2708 53.8533C83.3834 54.1476 83.568 54.4419 83.7902 54.7766C84.0095 55.1085 84.3067 55.4028 84.676 55.6625C85.0829 55.9193 85.5619 56.1415 86.1534 56.3261C86.7074 56.4733 87.4085 56.5483 88.2193 56.5483H88.4415C89.033 56.5483 89.7342 56.4011 90.4353 56.1415C91.174 55.8471 91.803 55.4028 92.3195 54.7766C92.5792 54.4795 92.7639 54.1101 92.911 53.7033C93.0207 53.2993 93.1332 52.8925 93.2053 52.4856C93.2804 52.0788 93.2804 51.5998 93.2428 51.0833V51.0083H93.1678C93.0957 51.0083 92.911 51.0083 92.6513 51.0083C92.3195 51.0458 92.2099 51.0833 92.1348 51.0833L92.0598 51.1208L92.0973 51.193C92.0973 51.5998 92.0973 52.0442 92.0252 52.4481C91.9502 52.8174 91.8405 53.1868 91.6905 53.5936C91.5433 53.963 91.2865 54.2948 90.9172 54.592C90.5479 54.9613 90.066 55.1806 89.4774 55.2181C88.8859 55.2931 88.404 55.2931 88 55.2556C87.5182 55.2181 87.1113 55.0335 86.742 54.7766C86.3727 54.4795 86.188 54.1851 86.1534 53.8158V41.9625C86.1534 41.85 86.188 41.7403 86.2255 41.5932C86.338 41.2584 86.5227 40.8891 86.7795 40.5573C87.0392 40.3726 87.3335 40.2255 87.6307 40.188C87.9625 40.1504 88.1847 40.1158 88.3694 40.1158C88.554 40.1158 88.8484 40.1504 89.2552 40.2255C89.6245 40.3005 89.9564 40.4476 90.2507 40.6323C90.5104 40.817 90.695 41.0392 90.8047 41.2584C91.6184 42.5511 91.249 43.7341 91.8752 44.1035Z" fill="#F8F8F8"/>
<path d="M109.455 55.8096L104.948 28.3346C104.801 27.8903 104.1 27.9653 103.656 27.9278C102.513 27.8903 101.699 27.9278 100.554 28.0028C100.26 28.0028 100.147 27.9653 100.369 28.15C100.554 28.3346 100.666 28.5914 100.851 28.8136C101.183 29.2205 100.998 29.8495 100.886 30.3285C99.7777 34.9451 98.7822 39.7465 97.7839 44.5103C97.5992 44.5824 97.4146 44.6575 97.2299 44.7296C96.4566 45.1365 95.0889 45.6529 95.2361 46.7263C95.7901 46.1348 96.4191 45.6183 97.1578 45.2836C97.3049 45.2115 97.4896 45.174 97.6367 45.0989C96.8981 48.6076 96.1594 52.1538 95.3486 55.5874C95.3486 55.5874 95.3111 55.7 95.3111 55.8096H94.3502V56.5483H97.5271V55.8096H96.4566L98.8198 44.8796C99.5931 44.8046 100.26 44.9143 101.036 45.0989C102.438 45.4683 103.768 46.282 104.692 47.39C105.096 50.16 105.65 53.4465 105.984 55.8096H104.986V56.5483H110.341V55.8096H109.455ZM99.9624 43.8438C99.5931 43.9188 99.3738 43.9563 99.0044 44.1035C99.9999 39.3771 100.961 35.1673 102.031 30.366C102.548 31.1393 102.66 31.8433 102.77 32.7666C103.324 36.5696 103.768 40.4101 104.247 44.2131C102.917 43.6966 101.405 43.6216 99.9624 43.8438Z" fill="#F8F8F8"/>
<path d="M116.654 28.6665V27.9278H111.226V28.6665H112.259V55.8096H111.301V56.5483H116.359V55.8096H115.436V28.6665H116.654Z" fill="#F8F8F8"/>
<path d="M123.633 28.6665V27.9278H118.206V28.6665H119.239V55.8096H118.281V56.5483H123.339V55.8096H122.415V28.6665H123.633Z" fill="#F8F8F8"/>
<path d="M135.082 51.5998C134.75 51.5998 134.638 51.6373 134.603 51.6373L134.528 51.6748V51.7845C134.49 51.9316 134.453 52.0788 134.418 52.2288C134.381 52.376 134.343 52.5231 134.306 52.6703C134.234 52.855 134.196 53.0021 134.159 53.1147C133.899 53.7408 133.495 54.2948 132.866 54.7767C132.24 55.2556 131.351 55.4778 130.281 55.4403C129.764 55.3653 129.285 55.146 128.878 54.7767C128.471 54.4073 128.287 53.9255 128.287 53.2993V49.1241C128.287 49.0895 128.287 49.0895 128.287 49.0895V48.423C128.471 48.423 128.619 48.423 128.766 48.423C129.986 48.423 131.166 48.423 132.349 48.3508C133.31 48.3133 134.234 48.0911 134.935 47.4275C135.896 46.5417 136.043 45.1365 135.858 43.8813C135.711 42.5511 135.267 41.296 134.121 40.4852C133.717 40.188 133.198 39.9658 132.609 39.7465C132.018 39.5618 131.279 39.4493 130.503 39.4493H130.281C129.135 39.4493 128.14 39.6715 127.401 40.1505C126.884 40.4477 126.478 40.7795 126.183 41.1488C125.886 41.5557 125.664 41.8875 125.517 42.2193C125.37 42.6261 125.26 43.033 125.185 43.4745V51.9691C125.185 52.2288 125.185 52.4856 125.222 52.7078C125.26 52.8925 125.295 53.1147 125.332 53.2993C125.332 53.5215 125.37 53.6687 125.479 53.7783C125.592 54.0726 125.739 54.3698 125.999 54.7016C126.218 54.9959 126.553 55.3307 126.922 55.5875C127.291 55.8847 127.77 56.104 128.324 56.2886C128.878 56.4733 129.542 56.5858 130.356 56.5858H130.54C131.573 56.5858 132.497 56.3261 133.31 55.8471C134.083 55.3653 134.713 54.7016 135.119 53.8158C135.229 53.5561 135.304 53.3368 135.342 53.0771C135.414 52.8175 135.489 52.5982 135.561 52.4135C135.561 52.1913 135.598 51.9691 135.636 51.747L135.673 51.6373H135.561C135.489 51.6373 135.376 51.6373 135.082 51.5998ZM128.287 41.925C128.287 41.8125 128.324 41.7028 128.362 41.5932C128.434 41.1488 128.619 40.817 128.916 40.5573C129.173 40.3726 129.47 40.2255 129.802 40.1505C132.644 39.6715 133.974 43.5495 133.382 45.8376C133.235 46.4666 132.978 47.2803 132.274 47.465C131.648 47.6122 130.982 47.6497 130.356 47.6497C129.764 47.6122 129.1 47.6497 128.546 47.39C128.471 47.315 128.362 47.2803 128.287 47.2053V41.925Z" fill="#F8F8F8"/>
<path d="M144.425 39.709V40.5573H144.535C144.757 40.5573 145.017 40.5948 145.311 40.7045C145.568 40.7795 145.718 41.0392 145.718 41.4806C145.718 41.4806 145.718 53.1522 145.718 53.1868C145.718 54.4419 144.757 55.7 143.465 55.8096C143.02 55.8847 142.616 55.8096 142.247 55.625C141.471 55.3307 141.471 54.1851 141.471 53.484V40.4477H142.616V39.709H137.039V40.4477H138.256V52.8175C138.256 52.93 138.256 53.1147 138.331 53.3715C138.369 53.6687 138.479 53.8879 138.591 54.0726C138.738 54.4795 138.995 54.8488 139.364 55.2181C139.846 55.6625 140.435 55.9943 141.026 56.2165C141.508 56.4011 142.247 56.4011 142.651 56.6955C145.828 59.0961 147.268 62.752 146.936 66.6675C146.676 69.7693 145.274 73.5002 142.319 75.0496C138.663 76.9338 133.937 74.0542 132.46 70.6176C131.611 68.6238 131.574 66.3357 132.312 64.3043C132.939 62.6798 134.159 60.9053 135.968 60.536C139.734 59.7598 143.17 63.0492 143.133 66.705C143.133 67.109 145.496 66.63 145.496 65.8538C145.533 61.644 141.693 58.9865 137.702 59.3183C132.829 59.7598 129.06 63.7503 129.43 68.7363C129.799 73.9791 134.86 77.3407 139.881 76.602C144.128 76.0105 147.415 73.0558 148.707 68.9931C149.559 66.3703 149.596 63.5657 148.782 61.09V41.4806C148.782 41.1863 148.82 40.9266 148.93 40.742C148.967 40.6698 149.152 40.4852 149.89 40.4852H150V39.709H144.425Z" fill="#F8F8F8"/>
<path d="M56.223 63.4718V67.6037H55.796V64.2912L54.1686 67.0728H53.9724L52.345 64.3143V67.6037H51.9179V63.4718H52.2873L54.0762 66.5303L55.8537 63.4718H56.223Z" fill="#F8F8F8"/>
<path d="M60.2987 67.6383C59.7591 67.6383 59.3407 67.4854 59.0406 67.1766C58.7405 66.8708 58.5905 66.4235 58.5905 65.8378V63.4718H59.0291V65.8147C59.0291 66.2995 59.1358 66.663 59.3522 66.8996C59.5744 67.1305 59.8889 67.2459 60.2987 67.2459C60.7142 67.2459 61.0287 67.1305 61.2451 66.8996C61.4586 66.663 61.5682 66.2995 61.5682 65.8147V63.4718H61.9953V65.8378C61.9953 66.4235 61.8452 66.8708 61.5452 67.1766C61.2451 67.4854 60.8296 67.6383 60.2987 67.6383Z" fill="#F8F8F8"/>
<path d="M65.5117 67.6383C65.2029 67.6383 64.9057 67.5892 64.623 67.4883C64.346 67.3902 64.1296 67.2574 63.9766 67.0958L64.1498 66.7611C64.294 66.9169 64.4902 67.0381 64.7384 67.1305C64.9923 67.2228 65.2491 67.269 65.5117 67.269C65.881 67.269 66.158 67.1997 66.3427 67.0612C66.5273 66.9227 66.6197 66.7467 66.6197 66.5303C66.6197 66.3687 66.5677 66.2389 66.4696 66.1379C66.3686 66.0398 66.2446 65.9619 66.1003 65.9071C65.9531 65.8551 65.7541 65.7974 65.5001 65.7339C65.1827 65.6589 64.9346 65.5839 64.7499 65.5146C64.5653 65.4396 64.4066 65.3271 64.2767 65.1799C64.144 65.027 64.0805 64.8221 64.0805 64.5682C64.0805 64.3605 64.1324 64.1729 64.2421 64.0027C64.3489 63.8267 64.5191 63.6882 64.7499 63.5872C64.9808 63.4891 65.2635 63.4371 65.604 63.4371C65.8406 63.4371 66.0714 63.4689 66.2965 63.5295C66.5187 63.5929 66.7149 63.6795 66.8851 63.7949L66.7351 64.1412C66.5649 64.0344 66.3802 63.9536 66.1811 63.8988C65.9791 63.8382 65.7887 63.8065 65.604 63.8065C65.2404 63.8065 64.9692 63.8757 64.7846 64.0142C64.5999 64.1527 64.5076 64.3345 64.5076 64.5567C64.5076 64.7183 64.5566 64.851 64.6576 64.9491C64.7557 65.0501 64.8827 65.128 65.0385 65.1799C65.1914 65.2347 65.3963 65.2924 65.6502 65.3531C65.9503 65.431 66.1926 65.5089 66.3773 65.5839C66.5677 65.6531 66.7293 65.7657 66.8621 65.9186C66.9919 66.0657 67.0583 66.262 67.0583 66.5072C67.0583 66.715 67.0006 66.9083 66.8851 67.0843C66.7755 67.2545 66.6024 67.3902 66.3658 67.4883C66.1349 67.5892 65.8493 67.6383 65.5117 67.6383Z" fill="#F8F8F8"/>
<path d="M69.067 63.4718H69.5056V67.6037H69.067V63.4718Z" fill="#F8F8F8"/>
<path d="M73.7158 67.6383C73.3061 67.6383 72.9368 67.5517 72.6078 67.3728C72.276 67.1882 72.0192 66.94 71.8345 66.6226C71.6499 66.2995 71.5575 65.9388 71.5575 65.5377C71.5575 65.1395 71.6499 64.7817 71.8345 64.4643C72.0192 64.1412 72.276 63.893 72.6078 63.7141C72.9368 63.5295 73.3119 63.4371 73.7274 63.4371C74.0275 63.4371 74.3074 63.4891 74.5699 63.5872C74.8296 63.6882 75.0547 63.8382 75.2393 64.0373L74.9623 64.3143C74.6392 63.9854 74.2294 63.818 73.7389 63.818C73.4071 63.818 73.107 63.8959 72.8387 64.0488C72.5674 64.196 72.3568 64.4009 72.2039 64.6605C72.0567 64.9231 71.9846 65.2145 71.9846 65.5377C71.9846 65.8609 72.0567 66.1552 72.2039 66.4149C72.3568 66.6688 72.5674 66.8737 72.8387 67.0266C73.107 67.1737 73.4071 67.2459 73.7389 67.2459C74.2294 67.2459 74.6392 67.0814 74.9623 66.7496L75.2393 67.0266C75.0547 67.2286 74.8296 67.3815 74.5699 67.4883C74.3074 67.5892 74.0217 67.6383 73.7158 67.6383Z" fill="#F8F8F8"/>
<path d="M80.9825 67.6383C80.6737 67.6383 80.3765 67.5892 80.0938 67.4883C79.8168 67.3902 79.6004 67.2574 79.4474 67.0958L79.6206 66.7611C79.7648 66.9169 79.961 67.0381 80.2092 67.1305C80.4631 67.2228 80.7199 67.269 80.9825 67.269C81.3518 67.269 81.6288 67.1997 81.8135 67.0612C81.9981 66.9227 82.0905 66.7467 82.0905 66.5303C82.0905 66.3687 82.0386 66.2389 81.9404 66.1379C81.8395 66.0398 81.7154 65.9619 81.5711 65.9071C81.424 65.8551 81.2249 65.7974 80.9709 65.7339C80.6535 65.6589 80.4054 65.5839 80.2207 65.5146C80.0361 65.4396 79.8774 65.3271 79.7475 65.1799C79.6148 65.027 79.5513 64.8221 79.5513 64.5682C79.5513 64.3605 79.6032 64.1729 79.7129 64.0027C79.8196 63.8267 79.9899 63.6882 80.2207 63.5872C80.4516 63.4891 80.7343 63.4371 81.0748 63.4371C81.3114 63.4371 81.5423 63.4689 81.7673 63.5295C81.9895 63.5929 82.1857 63.6795 82.3559 63.7949L82.2059 64.1412C82.0357 64.0344 81.851 63.9536 81.6519 63.8988C81.4499 63.8382 81.2595 63.8065 81.0748 63.8065C80.7113 63.8065 80.44 63.8757 80.2554 64.0142C80.0707 64.1527 79.9784 64.3345 79.9784 64.5567C79.9784 64.7183 80.0274 64.851 80.1284 64.9491C80.2265 65.0501 80.3535 65.128 80.5093 65.1799C80.6622 65.2347 80.8671 65.2924 81.121 65.3531C81.4211 65.431 81.6634 65.5089 81.8481 65.5839C82.0385 65.6531 82.2001 65.7657 82.3329 65.9186C82.4627 66.0657 82.5291 66.262 82.5291 66.5072C82.5291 66.715 82.4714 66.9083 82.3559 67.0843C82.2463 67.2545 82.0732 67.3902 81.8366 67.4883C81.6057 67.5892 81.3201 67.6383 80.9825 67.6383Z" fill="#F8F8F8"/>
<path d="M88.0003 63.4718V67.6037H87.5733V65.6993H84.9764V67.6037H84.5378V63.4718H84.9764V65.3069H87.5733V63.4718H88.0003Z" fill="#F8F8F8"/>
<path d="M92.2179 67.6383C91.8082 67.6383 91.4359 67.546 91.0983 67.3613C90.7665 67.1766 90.5097 66.9285 90.3251 66.6111C90.1404 66.2966 90.048 65.9388 90.048 65.5377C90.048 65.1395 90.1404 64.7817 90.3251 64.4643C90.5097 64.1412 90.7665 63.893 91.0983 63.7141C91.4359 63.5295 91.8082 63.4371 92.2179 63.4371C92.6247 63.4371 92.9941 63.5295 93.3259 63.7141C93.6548 63.893 93.9145 64.1412 94.0992 64.4643C94.2896 64.7817 94.3877 65.1395 94.3877 65.5377C94.3877 65.9388 94.2896 66.2995 94.0992 66.6226C93.9145 66.94 93.6548 67.1882 93.3259 67.3728C92.9941 67.5517 92.6247 67.6383 92.2179 67.6383ZM92.2179 67.2459C92.5468 67.2459 92.844 67.1737 93.1066 67.0266C93.3663 66.8823 93.5712 66.6775 93.7183 66.4149C93.8712 66.1552 93.9491 65.8609 93.9491 65.5377C93.9491 65.2145 93.8712 64.9231 93.7183 64.6605C93.5712 64.4009 93.3663 64.196 93.1066 64.0488C92.844 63.8959 92.5468 63.818 92.2179 63.818C91.8947 63.818 91.5975 63.8959 91.3292 64.0488C91.0579 64.196 90.8473 64.4009 90.6944 64.6605C90.5472 64.9231 90.4751 65.2145 90.4751 65.5377C90.4751 65.8609 90.5472 66.1552 90.6944 66.4149C90.8473 66.6775 91.0579 66.8823 91.3292 67.0266C91.5975 67.1737 91.8947 67.2459 92.2179 67.2459Z" fill="#F8F8F8"/>
<path d="M97.9856 63.4718C98.5079 63.4718 98.9205 63.5987 99.2206 63.8526C99.5207 64.1008 99.6707 64.4413 99.6707 64.8798C99.6707 65.3271 99.5207 65.6762 99.2206 65.9301C98.9205 66.1783 98.5079 66.2995 97.9856 66.2995H96.8661V67.6037H96.4275V63.4718H97.9856ZM97.9626 65.9186C98.3781 65.9186 98.6926 65.832 98.909 65.6531C99.1225 65.4685 99.2321 65.2117 99.2321 64.8798C99.2321 64.5509 99.1225 64.297 98.909 64.1181C98.6926 63.9334 98.3781 63.8411 97.9626 63.8411H96.8661V65.9186H97.9626Z" fill="#F8F8F8"/>
</svg>
