<svg width="150" height="78" viewBox="0 0 150 78" fill="none" xmlns="http://www.w3.org/2000/svg">
<path fill-rule="evenodd" clip-rule="evenodd" d="M138.91 22.8238C138.878 21.081 138.829 19.2978 138.688 17.555C138.518 15.743 138.249 14.0204 137.727 12.2661C137.208 10.555 136.486 8.81222 135.606 7.2714C134.795 5.86043 133.855 4.66298 132.594 3.66463C131.281 2.61722 129.752 1.85258 128.147 1.34763C126.488 0.825371 124.595 0.502203 122.832 0.450266C121.081 0.381016 119.601 0.632049 117.959 1.19759C116.107 1.84104 114.196 2.78746 112.523 3.80601C111.022 4.73223 109.66 5.79984 108.229 6.81839C107.147 7.58303 105.956 8.33901 104.747 8.85262C103.826 9.24503 102.923 9.44701 101.922 9.39508C100.811 9.34602 99.6307 9.02285 98.5805 8.70257C97.2387 8.27842 95.9057 7.80521 94.5466 7.43299C93.0145 7.02903 91.4131 6.70586 89.8318 6.65681C88.2795 6.62507 86.6665 6.82705 85.2065 7.38105C83.7061 7.93505 82.5635 8.84107 81.6228 10.1626C80.662 11.5014 79.8598 13.2933 79.3809 14.8658C79.1818 15.5093 79.0317 16.1556 78.9307 16.8106C78.8788 17.1309 78.8499 17.4339 78.8095 17.7368C78.3883 17.7859 77.7188 17.8061 77.4678 17.8176C75.7366 17.8869 73.9851 17.8984 72.2539 17.9186C62.5848 18.0889 52.9042 18.2591 43.2554 18.4207C41.074 18.4524 38.8811 18.4928 36.7083 18.5015C36.3881 18.5015 36.088 18.5217 35.7879 18.5015C35.7186 18.5015 35.6667 18.5015 35.6061 18.5015C35.358 18.4726 35.1156 18.3514 34.8876 18.2504C34.2759 17.959 33.6758 17.656 33.0641 17.3733C32.9861 17.3444 32.914 17.304 32.8246 17.2723C32.4754 17.1424 32.1147 17.102 31.7339 17.0703C30.9115 17.001 30.0517 16.9722 29.212 16.9405L28.029 16.8914C28.029 16.8597 28.0405 16.8395 28.0405 16.8193V14.081C28.6119 13.778 29.0014 13.1836 29.0014 12.4882C29.0014 11.4812 28.1906 10.6762 27.198 10.6762C26.1968 10.6762 25.3975 11.4928 25.3975 12.4882C25.3975 13.1836 25.787 13.778 26.3583 14.081V16.8193C24.3559 16.7183 22.3649 16.6173 20.3711 16.5278C20.3826 16.4672 20.3913 16.4067 20.3913 16.3374V13.224C20.9626 12.9211 21.3521 12.3267 21.3521 11.6313C21.3521 10.6243 20.5413 9.81923 19.5516 9.81923C18.5504 9.81923 17.7511 10.6358 17.7511 11.6313C17.7511 12.3267 18.1407 12.9211 18.712 13.224V16.3374C18.712 16.3663 18.7206 16.398 18.7206 16.4384L18.5215 16.4268L17.2087 16.3778C16.369 16.3259 15.5063 16.2768 14.6868 16.2768C14.1674 16.2768 13.6048 16.3057 13.3451 16.8308C13.2758 16.952 13.2441 17.0703 13.2268 17.203C13.195 17.555 13.2066 17.8984 13.094 18.2504C12.9642 18.6429 12.6757 19.0266 12.5054 19.4392C12.2544 19.9932 12.2544 20.4866 12.4246 21.081C12.5458 21.534 12.7738 21.9986 12.8459 22.4718C12.9152 22.8931 12.8257 23.3865 12.7651 23.8308C12.6959 24.2839 13.0161 24.708 13.4749 24.7773C13.9251 24.8581 14.3463 24.5349 14.4358 24.0819C14.5166 23.4586 14.606 22.844 14.5079 22.2179C14.4271 21.6235 14.2049 21.1705 14.0549 20.6078C13.9856 20.4058 13.977 20.3049 14.0549 20.1144C14.1876 19.8114 14.3954 19.52 14.5252 19.2171C14.5974 19.0872 14.6579 18.9256 14.707 18.7727C14.7878 18.5015 14.8368 18.2302 14.8772 17.9475C14.958 17.9677 15.0475 17.9677 15.1167 17.9677C15.789 17.9879 16.4786 18.0196 17.1481 18.0485C21.153 18.2504 25.1378 18.4409 29.1399 18.6227C29.9622 18.6746 30.8221 18.7034 31.6646 18.7525C31.8349 18.7727 32.1032 18.7842 32.2735 18.8535C32.3254 18.8737 32.3542 18.8852 32.4033 18.9054C33.0237 19.1969 33.6152 19.52 34.2355 19.8028C34.6366 19.9817 34.9973 20.1231 35.4272 20.1952C35.8283 20.2443 36.3477 20.2154 36.7574 20.2154C38.9417 20.1952 41.1317 20.1635 43.316 20.1346C52.985 19.9615 62.6627 19.7913 72.3346 19.6297C73.5754 19.6095 74.8363 19.6008 76.0972 19.5604C76.8186 19.5402 77.5602 19.5287 78.2988 19.4883C79.0115 19.4392 80.0099 19.419 80.3706 18.6746C80.4427 18.5217 80.4715 18.3803 80.4917 18.2187C80.6129 17.203 80.7312 16.3576 81.0313 15.3592C81.4526 13.9685 82.1739 12.3267 83.0338 11.1379C83.7955 10.0905 84.6669 9.40662 85.8557 8.95361C87.0994 8.4804 88.4988 8.30727 89.8318 8.33901C91.2832 8.38806 92.7548 8.68238 94.1542 9.06325C95.4959 9.43547 96.8175 9.88848 98.139 10.304C99.3509 10.6762 100.632 11.0167 101.893 11.0773C103.154 11.1292 104.285 10.8984 105.456 10.4021C106.787 9.84809 108.059 9.0344 109.239 8.19763C110.65 7.19927 111.983 6.15186 113.443 5.24584C115.007 4.27922 116.808 3.38186 118.539 2.78746C120.002 2.2854 121.283 2.06322 122.832 2.11227C124.434 2.16421 126.168 2.46718 127.697 2.94039C129.091 3.3934 130.441 4.05704 131.601 4.97461C132.692 5.85178 133.503 6.88764 134.195 8.10818C135.015 9.5278 135.696 11.1581 136.166 12.7306C136.656 14.3724 136.928 15.9825 137.058 17.6964C137.208 19.4075 137.236 21.1301 137.277 22.844C137.297 23.5596 137.297 24.2637 137.297 24.9994C137.297 25.4524 137.689 25.8247 138.14 25.8247C138.61 25.8247 138.979 25.4524 138.979 24.9994C138.93 24.2723 138.93 23.5481 138.91 22.8238Z" fill="#232126"/>
<path d="M15.1052 56.2166L10.5982 28.7416C10.451 28.2973 9.74984 28.3723 9.30549 28.3348C8.16286 28.2973 7.34917 28.3348 6.20366 28.4098C5.90934 28.4098 5.79681 28.3723 6.01899 28.557C6.20366 28.7416 6.31619 28.9984 6.50086 29.2206C6.83268 29.6274 6.64801 30.2565 6.53548 30.7354C5.42748 35.3521 4.43201 40.1535 3.43365 44.9173C3.24899 44.9894 3.06432 45.0645 2.87965 45.1366C2.10636 45.5434 0.738668 46.0599 0.885825 47.1333C1.43983 46.5418 2.06885 46.0253 2.80752 45.6906C2.95467 45.6185 3.13934 45.5809 3.2865 45.5059C2.54783 49.0146 1.80916 52.5608 0.998356 55.9944C0.998356 55.9944 0.960845 56.107 0.960845 56.2166H0V56.9553H3.17685V56.2166H2.10636L4.46952 45.2866C5.24281 45.2116 5.90934 45.3213 6.68552 45.5059C8.08784 45.8753 9.41802 46.6889 10.3414 47.7969C10.7453 50.567 11.2993 53.8535 11.634 56.2166H10.6357V56.9553H15.991V56.2166H15.1052ZM5.61215 44.2508C5.24281 44.3258 5.02352 44.3633 4.65419 44.5105C5.64966 39.7841 6.6105 35.5743 7.68099 30.773C8.19748 31.5462 8.31002 32.2503 8.41966 33.1736C8.97366 36.9766 9.41802 40.8171 9.897 44.6201C8.56682 44.1036 7.05486 44.0286 5.61215 44.2508Z" fill="#232126"/>
<path d="M25.7746 44.5105C26.1814 44.7326 26.848 44.548 27.1798 44.1786C27.5116 43.8093 27.5116 43.2899 27.5116 43.2553C27.4741 43.1053 27.4741 42.9956 27.402 42.8485C27.327 42.5513 27.1423 42.2194 26.8826 41.8876C26.6258 41.5183 26.2565 41.1865 25.8496 40.8921C25.4428 40.5949 24.9263 40.3381 24.3348 40.116C23.7086 39.9313 23.0075 39.8188 22.2313 39.8188H22.0466C20.9011 39.8188 19.9028 40.0409 19.167 40.5228C18.6476 40.8171 18.2436 41.1489 17.9464 41.5183C17.6521 41.9251 17.43 42.2569 17.2828 42.5888C17.1356 42.9956 17.0231 43.4025 16.951 43.8439V52.6358C16.951 52.7454 16.951 53.0398 16.9856 53.3745C16.9856 53.7784 17.0606 54.0756 17.1703 54.2603C17.2828 54.5546 17.4675 54.8489 17.6896 55.1836C17.9089 55.5155 18.2061 55.8098 18.5755 56.0695C18.9823 56.3263 19.4613 56.5484 20.0528 56.7331C20.6068 56.8803 21.308 56.9553 22.1188 56.9553H22.3409C22.9325 56.9553 23.6336 56.8081 24.3348 56.5484C25.0734 56.2541 25.7025 55.8098 26.219 55.1836C26.4786 54.8864 26.6633 54.5171 26.8105 54.1103C26.9201 53.7063 27.0326 53.2995 27.1048 52.8926C27.1798 52.4858 27.1798 52.0068 27.1423 51.4903V51.4153H27.0673C26.9951 51.4153 26.8105 51.4153 26.5508 51.4153C26.219 51.4528 26.1093 51.4903 26.0343 51.4903L25.9593 51.5278L25.9968 51.5999C25.9968 52.0068 25.9968 52.4511 25.9246 52.8551C25.8496 53.2244 25.74 53.5938 25.5899 54.0006C25.4428 54.3699 25.186 54.7018 24.8166 54.999C24.4473 55.3683 23.9654 55.5876 23.3768 55.6251C22.7853 55.7001 22.3034 55.7001 21.8995 55.6626C21.4176 55.6251 21.0108 55.4404 20.6414 55.1836C20.2721 54.8864 20.0874 54.5921 20.0528 54.2228V42.3695C20.0528 42.2569 20.0874 42.1473 20.1249 42.0001C20.2375 41.6654 20.4221 41.2961 20.6789 40.9643C20.9386 40.7796 21.2329 40.6324 21.5301 40.5949C21.862 40.5574 22.0841 40.5228 22.2688 40.5228C22.4535 40.5228 22.7478 40.5574 23.1546 40.6325C23.524 40.7075 23.8558 40.8546 24.1501 41.0393C24.4098 41.224 24.5945 41.4461 24.7041 41.6654C25.5178 42.9581 25.1485 44.1411 25.7746 44.5105Z" fill="#232126"/>
<path d="M38.591 42.7013C38.4785 42.4041 38.2938 42.0723 38.0717 41.7405C37.887 41.4086 37.5552 41.1114 37.1858 40.8171C36.7819 40.5574 36.3 40.3006 35.746 40.1535C35.192 39.9688 34.4909 39.8563 33.7147 39.8563H33.53C32.3845 39.8563 31.4265 40.116 30.6504 40.5949C30.1339 40.8546 29.727 41.224 29.4327 41.5933C29.1355 41.9626 28.9133 42.332 28.7662 42.6638C28.619 43.0706 28.5094 43.4746 28.4344 43.8814V53.2619C28.4344 53.4466 28.544 53.7438 28.7287 54.1853C28.8412 54.4796 28.9884 54.8143 29.2105 55.1086C29.4327 55.4404 29.727 55.7376 30.1339 56.032C30.5032 56.2916 30.9822 56.5484 31.5362 56.7331C32.1277 56.9178 32.7913 57.0303 33.605 57.0303H33.8272C34.9352 57.0303 35.8932 56.7706 36.6693 56.3263C37.1858 56.0319 37.5927 55.7001 37.887 55.3308C38.1467 54.9615 38.3689 54.5921 38.516 54.2228C38.6632 53.8535 38.7757 53.4466 38.8478 53.0051V43.6246C38.8478 43.3274 38.7757 43.0331 38.591 42.7013ZM31.5362 42.332C31.5362 42.2569 31.5737 42.1473 31.6112 42.0348C31.7208 41.5933 31.9055 41.2615 32.1652 41.0018C32.422 40.7796 32.7192 40.67 33.0135 40.5949C33.3453 40.5574 33.605 40.5228 33.7522 40.5228C33.9369 40.5228 34.1215 40.5574 34.3437 40.6325C34.5659 40.67 34.8227 40.8171 35.0824 41.0393C35.3392 41.2615 35.4892 41.4808 35.5613 41.7029C35.6364 41.8876 35.746 42.1098 35.7835 42.332C35.821 42.7013 35.821 43.1053 35.821 43.4746C35.821 44.3258 35.821 45.1366 35.821 45.9878C35.821 47.0208 35.821 48.0913 35.821 49.1271C35.821 50.0851 35.821 51.0835 35.821 52.0443C35.821 52.5983 35.821 53.1523 35.7835 53.6688C35.7835 54.1478 35.8585 54.7393 35.6739 55.2183C35.5613 55.4779 35.4142 55.7001 35.192 55.8848C34.8977 56.107 34.6005 56.2541 34.2687 56.2916C33.9744 56.3638 33.7147 56.3638 33.53 56.3638C32.497 56.3638 31.6112 55.478 31.5362 54.445C31.5362 54.0381 31.5362 53.6313 31.5362 53.2244C31.5362 51.7471 31.5362 50.3073 31.5362 48.8299C31.5362 47.318 31.5362 45.7656 31.5362 44.2508C31.5362 43.6246 31.5362 42.9956 31.5362 42.332Z" fill="#232126"/>
<path d="M51.6994 55.6251C51.2926 54.999 51.4772 54.1103 51.4772 53.3745C51.4772 52.8926 51.4772 52.4136 51.4772 51.8971C51.4772 50.6766 51.4772 49.459 51.4772 48.2038C51.4772 45.9878 51.4772 43.7718 51.4772 41.5183C51.4772 41.5183 51.4772 41.1865 51.4772 40.8922H52.3284V40.1535H47.4896V40.8922H48.3379V53.2244C48.3379 53.7784 48.1532 54.2949 47.7839 54.7768C47.4145 55.2558 47.0452 55.5876 46.6413 55.8098C46.4191 55.9944 46.1219 56.107 45.7525 56.1416C45.4207 56.1791 45.0889 56.1416 44.8292 55.9944C44.6099 55.8848 44.4252 55.7723 44.2406 55.5876C44.0905 55.4029 44.0559 55.1836 44.0184 54.9615C43.9059 54.2228 44.0184 53.4091 44.0184 52.6358C44.0184 51.7471 44.0184 50.8238 44.0184 49.9379C44.0184 48.8299 44.0184 47.7219 44.0184 46.5793C44.0184 45.5434 44.0184 44.473 44.0184 43.4025C44.0184 42.6263 44.0184 41.8876 44.0184 41.1489C44.0184 41.0393 44.0184 40.9643 44.0184 40.8922H44.9792V40.1535H40.1404V40.8922H40.9166V53.1898C40.9166 53.3745 40.9887 53.7063 41.1734 54.1478C41.358 54.5546 41.6552 54.999 42.0246 55.4404C42.3939 55.8848 42.9479 56.2916 43.6491 56.586C43.7587 56.6235 43.8712 56.661 43.9809 56.6956C44.0559 56.6956 44.1656 56.7331 44.2406 56.7706L44.2752 56.8081C44.4599 56.8081 44.6099 56.8456 44.7946 56.8803C44.8667 56.9178 44.9792 56.9553 45.0889 56.9553C45.1639 56.9553 45.2361 56.9178 45.3111 56.9178H45.4957C45.9372 56.8803 46.3816 56.7706 46.8259 56.5109C47.5646 56.107 48.0061 55.7376 48.2657 55.4029C48.3754 55.2183 48.4504 55.0711 48.5225 54.924C48.5976 55.4404 48.8544 55.8848 49.2612 56.2166C49.7777 56.6956 50.5164 56.8803 51.4397 56.8456C51.8841 56.8456 52.2534 56.7706 52.5477 56.6956C52.7324 56.6235 52.917 56.5484 53.1017 56.5109C52.6978 56.6235 51.9216 55.9223 51.6994 55.6251Z" fill="#232126"/>
<path d="M64.883 51.2306C64.808 50.7516 64.6608 50.3448 64.4762 49.9755C64.2915 49.6061 63.9222 49.1271 63.4057 48.5731C63.221 48.351 62.9238 48.1288 62.5199 47.8345C62.1505 47.5748 61.7062 47.3526 61.2993 47.0958C60.8579 46.8361 60.451 46.6139 60.0442 46.3946C59.6373 46.1725 59.3805 46.0253 59.1959 45.9503C58.0879 45.3588 57.3117 44.8048 56.8327 44.3258C56.3508 43.8439 56.094 43.3649 55.9815 42.886C55.9469 42.7359 55.9469 42.5166 56.019 42.2945C56.094 42.0723 56.2412 41.8501 56.4634 41.6308C56.6855 41.4086 56.9799 41.224 57.3867 41.0768C57.7907 40.9268 58.31 40.8546 58.9737 40.8546C59.5652 40.8171 60.1192 40.9268 60.5607 41.224C61.2272 41.6308 61.8187 42.1473 62.188 42.8109C62.6295 43.5496 62.7045 44.3979 62.7045 45.2116V45.3213H63.9222C64.0693 45.3213 63.9222 43.8814 63.8847 43.7343C63.6625 42.0001 62.592 40.5949 60.8579 40.1881C60.451 40.0784 59.897 40.0034 59.268 40.0034C57.8657 39.9313 56.648 40.3381 55.5775 41.1865C55.0235 41.6308 54.6542 42.1098 54.4695 42.6263C54.2849 43.1428 54.2098 43.6246 54.2098 44.1411C54.2098 44.6201 54.2474 45.0645 54.357 45.4338C54.4695 45.8406 54.5792 46.0974 54.6542 46.2821C54.8389 46.5793 55.0957 46.9111 55.3929 47.1679C55.6872 47.4651 56.019 47.7219 56.3508 47.9441C56.7577 48.2038 57.1645 48.4606 57.5339 48.6828C57.6435 48.7203 57.8657 48.8674 58.1975 49.0521C58.5293 49.2368 58.8987 49.4214 59.3055 49.6811C59.7123 49.9004 60.0817 50.1226 60.4135 50.3823C60.7828 50.6045 61.0425 50.8238 61.2272 50.9738C61.5965 51.3778 61.9283 51.8221 62.188 52.2665C62.4448 52.7455 62.5574 53.2995 62.4823 53.9285C62.4073 54.445 62.1505 54.9615 61.6687 55.5155C61.2272 56.0695 60.4885 56.3263 59.5277 56.3263C58.7515 56.2916 58.1254 56.0695 57.606 55.7001C57.0549 55.2933 56.6855 54.9615 56.4258 54.6643C56.1662 54.3699 55.9469 54.0006 55.7968 53.5216C55.6872 53.0773 55.5775 52.6358 55.54 52.2665V52.1915H54.3195L54.357 56.9553H55.4275L55.3178 56.8081C55.2803 56.7706 55.3178 56.7331 55.3178 56.661C55.3929 56.5109 55.465 56.4013 55.5775 56.3638C55.7622 56.2916 55.9469 56.2916 56.1662 56.3638L56.6855 56.586C57.0895 56.6956 57.4963 56.8456 57.9753 56.9928C58.4197 57.14 58.9737 57.215 59.5652 57.215C60.0817 57.215 60.6357 57.14 61.1897 56.9928C61.7437 56.8456 62.2977 56.6235 62.8517 56.2916C63.3682 55.9944 63.775 55.6251 64.0693 55.1836C64.3665 54.7393 64.5858 54.2949 64.7359 53.8535C64.883 53.4091 64.9552 52.9301 64.9552 52.4511C64.9927 52.0068 64.9552 51.5999 64.883 51.2306Z" fill="#232126"/>
<path d="M67.7996 53.6313C68.0592 55.0711 68.8325 56.2166 70.4224 56.6956C71.4554 57.0303 72.6009 57.0303 73.6339 56.8081C74.1157 56.6956 74.5572 56.4763 74.9265 56.1416C75.1862 55.9223 75.4805 55.6626 75.7027 55.3308C75.9595 55.0336 76.1817 54.7018 76.4039 54.2949L76.4789 54.1478H76.2942C76.2192 54.1478 76.1096 54.1103 75.9595 54.0381C75.8499 54.0006 75.7749 53.9631 75.7027 53.9285L75.6277 53.8535L75.5556 53.9631C75.1112 54.7768 74.6322 55.2933 74.1157 55.553C73.5964 55.8473 73.1174 55.9569 72.7481 55.9223C70.9014 55.7723 70.8639 54.0756 70.9014 52.6704C70.9014 52.1915 70.8639 51.7125 70.8639 51.2681C70.8639 50.3823 70.8639 49.459 70.8639 48.5731C70.8639 46.6889 70.8639 44.8048 70.8639 42.9581C70.8639 41.9251 70.8639 40.9268 70.8639 39.9313H74.5572V39.1926H70.8639V34.9078H69.6087L69.5712 34.9828C69.4991 35.4243 69.349 35.8686 69.2019 36.3476C69.0547 36.7544 68.9076 37.1613 68.6854 37.5681C68.4632 38.0096 68.2064 38.3789 67.8371 38.6761C67.6899 38.8233 67.4677 38.9329 67.2456 39.008C66.9859 39.0801 66.7666 39.1176 66.5069 39.1551C66.2126 39.1926 65.9529 39.1926 65.6586 39.1926H65.546V39.9313H67.6524C67.6524 43.994 67.7245 48.0913 67.6524 52.1539C67.6524 52.6704 67.6899 53.1523 67.7996 53.6313Z" fill="#232126"/>
<path d="M77.9176 34.576C78.3245 34.9078 78.8035 35.0549 79.3575 35.0549C79.9115 35.0549 80.3904 34.9078 80.7598 34.576C81.1291 34.2816 81.3513 33.8748 81.3513 33.4304C81.3513 32.989 81.1291 32.5821 80.7598 32.2849C80.3904 31.9531 79.9115 31.8059 79.3575 31.8059C78.8035 31.8059 78.3245 31.9531 77.9176 32.2849C77.5483 32.5821 77.3636 32.989 77.3636 33.4304C77.3636 33.8748 77.5483 34.2816 77.9176 34.576ZM80.8348 56.2166V40.5574C80.8348 40.3381 80.7598 40.116 80.6126 39.9688C80.4279 39.7841 80.1711 39.8188 79.8364 40.0409C79.2103 40.4478 78.7313 40.7796 78.3245 41.0393C77.9176 41.2961 77.5858 41.4808 77.3636 41.6308C77.0693 41.8155 76.8471 41.9626 76.7 42.0723L76.6625 42.1098V42.7013H77.4011C77.5483 42.7734 77.6233 42.8485 77.6954 42.9581C77.733 43.0706 77.733 43.1053 77.733 43.1428V56.2166H76.8471V56.9553H81.6831V56.2166H80.8348Z" fill="#232126"/>
<path d="M91.8752 44.5105C92.282 44.7326 92.9485 44.548 93.2804 44.1786C93.6122 43.8093 93.6122 43.2899 93.6122 43.2553C93.5747 43.1053 93.5747 42.9956 93.5025 42.8485C93.4275 42.5513 93.2429 42.2194 92.9832 41.8876C92.7264 41.5183 92.357 41.1865 91.9502 40.8921C91.5433 40.5949 91.0268 40.3381 90.4353 40.116C89.8092 39.9313 89.108 39.8188 88.3319 39.8188H88.1472C87.0017 39.8188 86.0033 40.0409 85.2675 40.5228C84.7482 40.8171 84.3442 41.1489 84.047 41.5183C83.7527 41.9251 83.5305 42.2569 83.3834 42.5888C83.2362 42.9956 83.1237 43.4025 83.0515 43.8439V52.6358C83.0515 52.7454 83.0515 53.0398 83.0862 53.3745C83.0862 53.7784 83.1612 54.0756 83.2708 54.2603C83.3834 54.5546 83.568 54.8489 83.7902 55.1836C84.0095 55.5155 84.3067 55.8098 84.676 56.0695C85.0829 56.3263 85.5619 56.5484 86.1534 56.7331C86.7074 56.8803 87.4085 56.9553 88.2193 56.9553H88.4415C89.033 56.9553 89.7342 56.8081 90.4353 56.5484C91.174 56.2541 91.803 55.8098 92.3195 55.1836C92.5792 54.8864 92.7639 54.5171 92.911 54.1103C93.0207 53.7063 93.1332 53.2995 93.2053 52.8926C93.2804 52.4858 93.2804 52.0068 93.2428 51.4903V51.4153H93.1678C93.0957 51.4153 92.911 51.4153 92.6513 51.4153C92.3195 51.4528 92.2099 51.4903 92.1348 51.4903L92.0598 51.5278L92.0973 51.5999C92.0973 52.0068 92.0973 52.4511 92.0252 52.8551C91.9502 53.2244 91.8405 53.5938 91.6905 54.0006C91.5433 54.3699 91.2865 54.7018 90.9172 54.999C90.5479 55.3683 90.066 55.5876 89.4774 55.6251C88.8859 55.7001 88.404 55.7001 88 55.6626C87.5182 55.6251 87.1113 55.4404 86.742 55.1836C86.3727 54.8864 86.188 54.5921 86.1534 54.2228V42.3695C86.1534 42.2569 86.188 42.1473 86.2255 42.0001C86.338 41.6654 86.5227 41.2961 86.7795 40.9643C87.0392 40.7796 87.3335 40.6324 87.6307 40.5949C87.9625 40.5574 88.1847 40.5228 88.3694 40.5228C88.554 40.5228 88.8484 40.5574 89.2552 40.6325C89.6245 40.7075 89.9564 40.8546 90.2507 41.0393C90.5104 41.224 90.695 41.4461 90.8047 41.6654C91.6184 42.9581 91.249 44.1411 91.8752 44.5105Z" fill="#232126"/>
<path d="M109.455 56.2166L104.948 28.7416C104.801 28.2973 104.1 28.3723 103.656 28.3348C102.513 28.2973 101.699 28.3348 100.554 28.4098C100.26 28.4098 100.147 28.3723 100.369 28.557C100.554 28.7416 100.666 28.9984 100.851 29.2206C101.183 29.6274 100.998 30.2565 100.886 30.7354C99.7777 35.3521 98.7822 40.1535 97.7839 44.9173C97.5992 44.9894 97.4146 45.0645 97.2299 45.1366C96.4566 45.5434 95.0889 46.0599 95.2361 47.1333C95.7901 46.5418 96.4191 46.0253 97.1578 45.6906C97.3049 45.6185 97.4896 45.5809 97.6367 45.5059C96.8981 49.0146 96.1594 52.5608 95.3486 55.9944C95.3486 55.9944 95.3111 56.107 95.3111 56.2166H94.3502V56.9553H97.5271V56.2166H96.4566L98.8198 45.2866C99.5931 45.2116 100.26 45.3213 101.036 45.5059C102.438 45.8753 103.768 46.6889 104.692 47.7969C105.096 50.567 105.65 53.8535 105.984 56.2166H104.986V56.9553H110.341V56.2166H109.455ZM99.9624 44.2508C99.5931 44.3258 99.3738 44.3633 99.0044 44.5105C99.9999 39.7841 100.961 35.5743 102.031 30.773C102.548 31.5462 102.66 32.2503 102.77 33.1736C103.324 36.9766 103.768 40.8171 104.247 44.6201C102.917 44.1036 101.405 44.0286 99.9624 44.2508Z" fill="#232126"/>
<path d="M116.654 29.0735V28.3348H111.226V29.0735H112.259V56.2166H111.301V56.9553H116.359V56.2166H115.436V29.0735H116.654Z" fill="#232126"/>
<path d="M123.633 29.0735V28.3348H118.206V29.0735H119.239V56.2166H118.281V56.9553H123.339V56.2166H122.415V29.0735H123.633Z" fill="#232126"/>
<path d="M135.082 52.0068C134.75 52.0068 134.638 52.0443 134.603 52.0443L134.528 52.0818V52.1915C134.49 52.3386 134.453 52.4858 134.418 52.6358C134.381 52.783 134.343 52.9301 134.306 53.0773C134.234 53.2619 134.196 53.4091 134.159 53.5216C133.899 54.1478 133.495 54.7018 132.866 55.1836C132.24 55.6626 131.351 55.8848 130.281 55.8473C129.764 55.7723 129.285 55.553 128.878 55.1836C128.471 54.8143 128.287 54.3324 128.287 53.7063V49.5311C128.287 49.4965 128.287 49.4965 128.287 49.4965V48.8299C128.471 48.8299 128.619 48.8299 128.766 48.8299C129.986 48.8299 131.166 48.8299 132.349 48.7578C133.31 48.7203 134.234 48.4981 134.935 47.8345C135.896 46.9486 136.043 45.5434 135.858 44.2883C135.711 42.9581 135.267 41.7029 134.121 40.8921C133.717 40.5949 133.198 40.3728 132.609 40.1535C132.018 39.9688 131.279 39.8563 130.503 39.8563H130.281C129.135 39.8563 128.14 40.0785 127.401 40.5574C126.884 40.8546 126.478 41.1865 126.183 41.5558C125.886 41.9626 125.664 42.2945 125.517 42.6263C125.37 43.0331 125.26 43.44 125.185 43.8814V52.3761C125.185 52.6358 125.185 52.8926 125.222 53.1148C125.26 53.2995 125.295 53.5216 125.332 53.7063C125.332 53.9285 125.37 54.0756 125.479 54.1853C125.592 54.4796 125.739 54.7768 125.999 55.1086C126.218 55.4029 126.553 55.7376 126.922 55.9944C127.291 56.2916 127.77 56.5109 128.324 56.6956C128.878 56.8803 129.542 56.9928 130.356 56.9928H130.54C131.573 56.9928 132.497 56.7331 133.31 56.2541C134.083 55.7723 134.713 55.1086 135.119 54.2228C135.229 53.9631 135.304 53.7438 135.342 53.4841C135.414 53.2244 135.489 53.0051 135.561 52.8205C135.561 52.5983 135.598 52.3761 135.636 52.1539L135.673 52.0443H135.561C135.489 52.0443 135.376 52.0443 135.082 52.0068ZM128.287 42.332C128.287 42.2194 128.324 42.1098 128.362 42.0001C128.434 41.5558 128.619 41.224 128.916 40.9643C129.173 40.7796 129.47 40.6325 129.802 40.5574C132.644 40.0785 133.974 43.9565 133.382 46.2446C133.235 46.8736 132.978 47.6873 132.274 47.872C131.648 48.0191 130.982 48.0566 130.356 48.0566C129.764 48.0191 129.1 48.0566 128.546 47.797C128.471 47.7219 128.362 47.6873 128.287 47.6123V42.332Z" fill="#232126"/>
<path d="M144.425 40.116V40.9643H144.535C144.757 40.9643 145.017 41.0018 145.311 41.1114C145.568 41.1865 145.718 41.4461 145.718 41.8876C145.718 41.8876 145.718 53.5591 145.718 53.5938C145.718 54.8489 144.757 56.107 143.465 56.2166C143.02 56.2916 142.616 56.2166 142.247 56.032C141.471 55.7376 141.471 54.5921 141.471 53.891V40.8546H142.616V40.116H137.039V40.8546H138.256V53.2244C138.256 53.337 138.256 53.5216 138.331 53.7784C138.369 54.0756 138.479 54.2949 138.591 54.4796C138.738 54.8864 138.995 55.2558 139.364 55.6251C139.846 56.0695 140.435 56.4013 141.026 56.6235C141.508 56.8081 142.247 56.8081 142.651 57.1024C145.828 59.5031 147.268 63.1589 146.936 67.0745C146.676 70.1763 145.274 73.9071 142.319 75.4566C138.663 77.3408 133.937 74.4611 132.46 71.0246C131.611 69.0308 131.574 66.7426 132.312 64.7113C132.939 63.0868 134.159 61.3123 135.968 60.9429C139.734 60.1668 143.17 63.4561 143.133 67.112C143.133 67.5159 145.496 67.037 145.496 66.2608C145.533 62.0509 141.693 59.3935 137.702 59.7253C132.829 60.1668 129.06 64.1573 129.43 69.1433C129.799 74.3861 134.86 77.7476 139.881 77.009C144.128 76.4175 147.415 73.4628 148.707 69.4001C149.559 66.7773 149.596 63.9726 148.782 61.4969V41.8876C148.782 41.5933 148.82 41.3336 148.93 41.1489C148.967 41.0768 149.152 40.8921 149.89 40.8921H150V40.116H144.425Z" fill="#232126"/>
<path d="M56.223 63.8787V68.0107H55.796V64.6982L54.1686 67.4797H53.9724L52.345 64.7213V68.0107H51.9179V63.8787H52.2873L54.0762 66.9373L55.8537 63.8787H56.223Z" fill="#232126"/>
<path d="M60.2987 68.0453C59.7591 68.0453 59.3407 67.8924 59.0406 67.5836C58.7405 67.2778 58.5905 66.8305 58.5905 66.2448V63.8787H59.0291V66.2217C59.0291 66.7064 59.1358 67.07 59.3522 67.3066C59.5744 67.5374 59.8889 67.6529 60.2987 67.6529C60.7142 67.6529 61.0287 67.5374 61.2451 67.3066C61.4586 67.07 61.5682 66.7064 61.5682 66.2217V63.8787H61.9953V66.2448C61.9953 66.8305 61.8452 67.2778 61.5452 67.5836C61.2451 67.8924 60.8296 68.0453 60.2987 68.0453Z" fill="#232126"/>
<path d="M65.5117 68.0453C65.2029 68.0453 64.9057 67.9962 64.623 67.8952C64.346 67.7971 64.1296 67.6644 63.9766 67.5028L64.1498 67.1681C64.294 67.3239 64.4902 67.4451 64.7384 67.5374C64.9923 67.6298 65.2491 67.6759 65.5117 67.6759C65.881 67.6759 66.158 67.6067 66.3427 67.4682C66.5273 67.3297 66.6197 67.1537 66.6197 66.9373C66.6197 66.7757 66.5677 66.6459 66.4696 66.5449C66.3686 66.4468 66.2446 66.3689 66.1003 66.314C65.9531 66.2621 65.7541 66.2044 65.5001 66.1409C65.1827 66.0659 64.9346 65.9909 64.7499 65.9216C64.5653 65.8466 64.4066 65.7341 64.2767 65.5869C64.144 65.434 64.0805 65.2291 64.0805 64.9752C64.0805 64.7674 64.1324 64.5799 64.2421 64.4097C64.3489 64.2336 64.5191 64.0951 64.7499 63.9942C64.9808 63.896 65.2635 63.8441 65.604 63.8441C65.8406 63.8441 66.0714 63.8758 66.2965 63.9364C66.5187 63.9999 66.7149 64.0865 66.8851 64.2019L66.7351 64.5481C66.5649 64.4414 66.3802 64.3606 66.1811 64.3058C65.9791 64.2452 65.7887 64.2134 65.604 64.2134C65.2404 64.2134 64.9692 64.2827 64.7846 64.4212C64.5999 64.5597 64.5076 64.7415 64.5076 64.9637C64.5076 65.1252 64.5566 65.258 64.6576 65.3561C64.7557 65.4571 64.8827 65.535 65.0385 65.5869C65.1914 65.6417 65.3963 65.6994 65.6502 65.76C65.9503 65.8379 66.1926 65.9158 66.3773 65.9909C66.5677 66.0601 66.7293 66.1726 66.8621 66.3256C66.9919 66.4727 67.0583 66.6689 67.0583 66.9142C67.0583 67.1219 67.0006 67.3153 66.8851 67.4913C66.7755 67.6615 66.6024 67.7971 66.3658 67.8952C66.1349 67.9962 65.8493 68.0453 65.5117 68.0453Z" fill="#232126"/>
<path d="M69.067 63.8787H69.5056V68.0107H69.067V63.8787Z" fill="#232126"/>
<path d="M73.7158 68.0453C73.3061 68.0453 72.9368 67.9587 72.6078 67.7798C72.276 67.5952 72.0192 67.347 71.8345 67.0296C71.6499 66.7064 71.5575 66.3458 71.5575 65.9447C71.5575 65.5465 71.6499 65.1887 71.8345 64.8713C72.0192 64.5481 72.276 64.3 72.6078 64.1211C72.9368 63.9364 73.3119 63.8441 73.7274 63.8441C74.0275 63.8441 74.3074 63.896 74.5699 63.9942C74.8296 64.0951 75.0547 64.2452 75.2393 64.4443L74.9623 64.7213C74.6392 64.3923 74.2294 64.225 73.7389 64.225C73.4071 64.225 73.107 64.3029 72.8387 64.4558C72.5674 64.603 72.3568 64.8078 72.2039 65.0675C72.0567 65.3301 71.9846 65.6215 71.9846 65.9447C71.9846 66.2679 72.0567 66.5622 72.2039 66.8219C72.3568 67.0758 72.5674 67.2806 72.8387 67.4336C73.107 67.5807 73.4071 67.6529 73.7389 67.6529C74.2294 67.6529 74.6392 67.4884 74.9623 67.1566L75.2393 67.4336C75.0547 67.6356 74.8296 67.7885 74.5699 67.8952C74.3074 67.9962 74.0217 68.0453 73.7158 68.0453Z" fill="#232126"/>
<path d="M80.9825 68.0453C80.6737 68.0453 80.3765 67.9962 80.0938 67.8952C79.8168 67.7971 79.6004 67.6644 79.4474 67.5028L79.6206 67.1681C79.7648 67.3239 79.961 67.4451 80.2092 67.5374C80.4631 67.6298 80.7199 67.6759 80.9825 67.6759C81.3518 67.6759 81.6288 67.6067 81.8135 67.4682C81.9981 67.3297 82.0905 67.1537 82.0905 66.9373C82.0905 66.7757 82.0386 66.6459 81.9404 66.5449C81.8395 66.4468 81.7154 66.3689 81.5711 66.314C81.424 66.2621 81.2249 66.2044 80.9709 66.1409C80.6535 66.0659 80.4054 65.9909 80.2207 65.9216C80.0361 65.8466 79.8774 65.7341 79.7475 65.5869C79.6148 65.434 79.5513 65.2291 79.5513 64.9752C79.5513 64.7674 79.6032 64.5799 79.7129 64.4097C79.8196 64.2336 79.9899 64.0951 80.2207 63.9942C80.4516 63.896 80.7343 63.8441 81.0748 63.8441C81.3114 63.8441 81.5423 63.8758 81.7673 63.9364C81.9895 63.9999 82.1857 64.0865 82.3559 64.2019L82.2059 64.5481C82.0357 64.4414 81.851 64.3606 81.6519 64.3058C81.4499 64.2452 81.2595 64.2134 81.0748 64.2134C80.7113 64.2134 80.44 64.2827 80.2554 64.4212C80.0707 64.5597 79.9784 64.7415 79.9784 64.9637C79.9784 65.1252 80.0274 65.258 80.1284 65.3561C80.2265 65.4571 80.3535 65.535 80.5093 65.5869C80.6622 65.6417 80.8671 65.6994 81.121 65.76C81.4211 65.8379 81.6634 65.9158 81.8481 65.9909C82.0385 66.0601 82.2001 66.1726 82.3329 66.3256C82.4627 66.4727 82.5291 66.6689 82.5291 66.9142C82.5291 67.1219 82.4714 67.3153 82.3559 67.4913C82.2463 67.6615 82.0732 67.7971 81.8366 67.8952C81.6057 67.9962 81.3201 68.0453 80.9825 68.0453Z" fill="#232126"/>
<path d="M88.0003 63.8787V68.0107H87.5733V66.1063H84.9764V68.0107H84.5378V63.8787H84.9764V65.7139H87.5733V63.8787H88.0003Z" fill="#232126"/>
<path d="M92.2179 68.0453C91.8082 68.0453 91.4359 67.9529 91.0983 67.7683C90.7665 67.5836 90.5097 67.3355 90.3251 67.0181C90.1404 66.7036 90.048 66.3458 90.048 65.9447C90.048 65.5465 90.1404 65.1887 90.3251 64.8713C90.5097 64.5481 90.7665 64.3 91.0983 64.1211C91.4359 63.9364 91.8082 63.8441 92.2179 63.8441C92.6247 63.8441 92.9941 63.9364 93.3259 64.1211C93.6548 64.3 93.9145 64.5481 94.0992 64.8713C94.2896 65.1887 94.3877 65.5465 94.3877 65.9447C94.3877 66.3458 94.2896 66.7064 94.0992 67.0296C93.9145 67.347 93.6548 67.5952 93.3259 67.7798C92.9941 67.9587 92.6247 68.0453 92.2179 68.0453ZM92.2179 67.6529C92.5468 67.6529 92.844 67.5807 93.1066 67.4336C93.3663 67.2893 93.5712 67.0844 93.7183 66.8219C93.8712 66.5622 93.9491 66.2679 93.9491 65.9447C93.9491 65.6215 93.8712 65.3301 93.7183 65.0675C93.5712 64.8078 93.3663 64.603 93.1066 64.4558C92.844 64.3029 92.5468 64.225 92.2179 64.225C91.8947 64.225 91.5975 64.3029 91.3292 64.4558C91.0579 64.603 90.8473 64.8078 90.6944 65.0675C90.5472 65.3301 90.4751 65.6215 90.4751 65.9447C90.4751 66.2679 90.5472 66.5622 90.6944 66.8219C90.8473 67.0844 91.0579 67.2893 91.3292 67.4336C91.5975 67.5807 91.8947 67.6529 92.2179 67.6529Z" fill="#232126"/>
<path d="M97.9856 63.8787C98.5079 63.8787 98.9205 64.0057 99.2206 64.2596C99.5207 64.5078 99.6707 64.8482 99.6707 65.2868C99.6707 65.7341 99.5207 66.0832 99.2206 66.3371C98.9205 66.5853 98.5079 66.7064 97.9856 66.7064H96.8661V68.0107H96.4275V63.8787H97.9856ZM97.9626 66.3256C98.3781 66.3256 98.6926 66.239 98.909 66.0601C99.1225 65.8754 99.2321 65.6186 99.2321 65.2868C99.2321 64.9579 99.1225 64.704 98.909 64.5251C98.6926 64.3404 98.3781 64.2481 97.9626 64.2481H96.8661V66.3256H97.9626Z" fill="#232126"/>
</svg>
