<svg width="150" height="77" viewBox="0 0 150 77" fill="none" xmlns="http://www.w3.org/2000/svg">
<path fill-rule="evenodd" clip-rule="evenodd" d="M138.91 22.5273C138.878 20.7845 138.829 19.0013 138.688 17.2585C138.518 15.4465 138.249 13.7239 137.727 11.9696C137.208 10.2585 136.486 8.51571 135.606 6.9749C134.795 5.56392 133.855 4.36647 132.594 3.36812C131.281 2.32071 129.752 1.55607 128.147 1.05112C126.488 0.528862 124.595 0.205695 122.832 0.153757C121.081 0.0845073 119.601 0.33554 117.959 0.901082C116.107 1.54453 114.196 2.49095 112.523 3.5095C111.022 4.43572 109.66 5.50333 108.229 6.52188C107.147 7.28652 105.956 8.0425 104.747 8.55611C103.826 8.94852 102.923 9.1505 101.922 9.09857C100.811 9.04951 99.6307 8.72635 98.5805 8.40606C97.2387 7.98191 95.9057 7.5087 94.5466 7.13648C93.0145 6.73252 91.4131 6.40935 89.8318 6.3603C88.2795 6.32856 86.6665 6.53054 85.2065 7.08454C83.7061 7.63854 82.5635 8.54457 81.6228 9.86609C80.662 11.2049 79.8598 12.9968 79.3809 14.5693C79.1818 15.2128 79.0317 15.8591 78.9307 16.5141C78.8788 16.8344 78.8499 17.1374 78.8095 17.4403C78.3883 17.4894 77.7188 17.5096 77.4678 17.5211C75.7366 17.5904 73.9851 17.6019 72.2539 17.6221C62.5848 17.7923 52.9042 17.9626 43.2554 18.1242C41.074 18.1559 38.8811 18.1963 36.7083 18.205C36.3881 18.205 36.088 18.2252 35.7879 18.205C35.7186 18.205 35.6667 18.205 35.6061 18.205C35.358 18.1761 35.1156 18.0549 34.8876 17.9539C34.2759 17.6625 33.6758 17.3595 33.0641 17.0768C32.9861 17.0479 32.914 17.0075 32.8246 16.9758C32.4754 16.8459 32.1147 16.8055 31.7339 16.7738C30.9115 16.7045 30.0517 16.6757 29.212 16.6439L28.029 16.5949C28.029 16.5632 28.0405 16.543 28.0405 16.5228V13.7845C28.6119 13.4815 29.0014 12.8871 29.0014 12.1917C29.0014 11.1847 28.1906 10.3797 27.198 10.3797C26.1968 10.3797 25.3975 11.1963 25.3975 12.1917C25.3975 12.8871 25.787 13.4815 26.3583 13.7845V16.5228C24.3559 16.4218 22.3649 16.3208 20.3711 16.2313C20.3826 16.1707 20.3913 16.1101 20.3913 16.0409V12.9275C20.9626 12.6246 21.3521 12.0302 21.3521 11.3348C21.3521 10.3278 20.5413 9.52272 19.5516 9.52272C18.5504 9.52272 17.7511 10.3393 17.7511 11.3348C17.7511 12.0302 18.1407 12.6246 18.712 12.9275V16.0409C18.712 16.0697 18.7206 16.1015 18.7206 16.1419L18.5215 16.1303L17.2087 16.0813C16.369 16.0294 15.5063 15.9803 14.6868 15.9803C14.1674 15.9803 13.6048 16.0092 13.3451 16.5343C13.2758 16.6555 13.2441 16.7738 13.2268 16.9065C13.195 17.2585 13.2066 17.6019 13.094 17.9539C12.9642 18.3463 12.6757 18.7301 12.5054 19.1427C12.2544 19.6967 12.2544 20.1901 12.4246 20.7845C12.5458 21.2375 12.7738 21.7021 12.8459 22.1753C12.9152 22.5966 12.8257 23.09 12.7651 23.5343C12.6959 23.9873 13.0161 24.4115 13.4749 24.4808C13.9251 24.5615 14.3463 24.2384 14.4358 23.7854C14.5166 23.1621 14.606 22.5475 14.5079 21.9214C14.4271 21.327 14.2049 20.874 14.0549 20.3113C13.9856 20.1093 13.977 20.0083 14.0549 19.8179C14.1876 19.5149 14.3954 19.2235 14.5252 18.9205C14.5974 18.7907 14.6579 18.6291 14.707 18.4762C14.7878 18.205 14.8368 17.9337 14.8772 17.651C14.958 17.6712 15.0475 17.6712 15.1167 17.6712C15.789 17.6914 16.4786 17.7231 17.1481 17.7519C21.153 17.9539 25.1378 18.1444 29.1399 18.3261C29.9622 18.3781 30.8221 18.4069 31.6646 18.456C31.8349 18.4762 32.1032 18.4877 32.2735 18.557C32.3254 18.5772 32.3542 18.5887 32.4033 18.6089C33.0237 18.9003 33.6152 19.2235 34.2355 19.5063C34.6366 19.6852 34.9973 19.8266 35.4272 19.8987C35.8283 19.9478 36.3477 19.9189 36.7574 19.9189C38.9417 19.8987 41.1317 19.867 43.316 19.8381C52.985 19.665 62.6627 19.4947 72.3346 19.3332C73.5754 19.313 74.8363 19.3043 76.0972 19.2639C76.8186 19.2437 77.5602 19.2322 78.2988 19.1918C79.0115 19.1427 80.0099 19.1225 80.3706 18.3781C80.4427 18.2252 80.4715 18.0838 80.4917 17.9222C80.6129 16.9065 80.7312 16.0611 81.0313 15.0627C81.4526 13.672 82.1739 12.0302 83.0338 10.8414C83.7955 9.79395 84.6669 9.11011 85.8557 8.6571C87.0994 8.18389 88.4988 8.01076 89.8318 8.0425C91.2832 8.09155 92.7548 8.38587 94.1542 8.76674C95.4959 9.13896 96.8175 9.59197 98.139 10.0075C99.3509 10.3797 100.632 10.7202 101.893 10.7808C103.154 10.8327 104.285 10.6019 105.456 10.1056C106.787 9.55158 108.059 8.73789 109.239 7.90112C110.65 6.90276 111.983 5.85535 113.443 4.94933C115.007 3.98271 116.808 3.08535 118.539 2.49095C120.002 1.98889 121.283 1.76671 122.832 1.81576C124.434 1.8677 126.168 2.17067 127.697 2.64388C129.091 3.09689 130.441 3.76054 131.601 4.6781C132.692 5.55527 133.503 6.59114 134.195 7.81167C135.015 9.2313 135.696 10.8616 136.166 12.4341C136.656 14.0759 136.928 15.686 137.058 17.3999C137.208 19.111 137.236 20.8336 137.277 22.5475C137.297 23.2631 137.297 23.9671 137.297 24.7029C137.297 25.1559 137.689 25.5282 138.14 25.5282C138.61 25.5282 138.979 25.1559 138.979 24.7029C138.93 23.9758 138.93 23.2516 138.91 22.5273Z" fill="#232126"/>
<path d="M15.1052 55.9201L10.5982 28.4451C10.451 28.0008 9.74984 28.0758 9.30549 28.0383C8.16286 28.0008 7.34917 28.0383 6.20366 28.1133C5.90934 28.1133 5.79681 28.0758 6.01899 28.2604C6.20366 28.4451 6.31619 28.7019 6.50086 28.9241C6.83268 29.3309 6.64801 29.96 6.53548 30.4389C5.42748 35.0556 4.43201 39.857 3.43365 44.6208C3.24899 44.6929 3.06432 44.7679 2.87965 44.8401C2.10636 45.2469 0.738668 45.7634 0.885825 46.8368C1.43983 46.2453 2.06885 45.7288 2.80752 45.3941C2.95467 45.3219 3.13934 45.2844 3.2865 45.2094C2.54783 48.7181 1.80916 52.2643 0.998356 55.6979C0.998356 55.6979 0.960845 55.8105 0.960845 55.9201H0V56.6588H3.17685V55.9201H2.10636L4.46952 44.9901C5.24281 44.9151 5.90934 45.0247 6.68552 45.2094C8.08784 45.5787 9.41802 46.3924 10.3414 47.5004C10.7453 50.2704 11.2993 53.5569 11.634 55.9201H10.6357V56.6588H15.991V55.9201H15.1052ZM5.61215 43.9543C5.24281 44.0293 5.02352 44.0668 4.65419 44.2139C5.64966 39.4876 6.6105 35.2778 7.68099 30.4764C8.19748 31.2497 8.31002 31.9538 8.41966 32.8771C8.97366 36.6801 9.41802 40.5206 9.897 44.3236C8.56682 43.8071 7.05486 43.7321 5.61215 43.9543Z" fill="#232126"/>
<path d="M25.7746 44.2139C26.1814 44.4361 26.848 44.2515 27.1798 43.8821C27.5116 43.5128 27.5116 42.9934 27.5116 42.9588C27.4741 42.8087 27.4741 42.6991 27.402 42.5519C27.327 42.2547 27.1423 41.9229 26.8826 41.5911C26.6258 41.2218 26.2565 40.8899 25.8496 40.5956C25.4428 40.2984 24.9263 40.0416 24.3348 39.8195C23.7086 39.6348 23.0075 39.5223 22.2313 39.5223H22.0466C20.9011 39.5223 19.9028 39.7444 19.167 40.2263C18.6476 40.5206 18.2436 40.8524 17.9464 41.2218C17.6521 41.6286 17.43 41.9604 17.2828 42.2923C17.1356 42.6991 17.0231 43.1059 16.951 43.5474V52.3393C16.951 52.4489 16.951 52.7433 16.9856 53.078C16.9856 53.4819 17.0606 53.7791 17.1703 53.9638C17.2828 54.2581 17.4675 54.5524 17.6896 54.8871C17.9089 55.2189 18.2061 55.5133 18.5755 55.7729C18.9823 56.0298 19.4613 56.2519 20.0528 56.4366C20.6068 56.5838 21.308 56.6588 22.1188 56.6588H22.3409C22.9325 56.6588 23.6336 56.5116 24.3348 56.2519C25.0734 55.9576 25.7025 55.5133 26.219 54.8871C26.4786 54.5899 26.6633 54.2206 26.8105 53.8137C26.9201 53.4098 27.0326 53.0029 27.1048 52.5961C27.1798 52.1893 27.1798 51.7103 27.1423 51.1938V51.1188H27.0673C26.9951 51.1188 26.8105 51.1188 26.5508 51.1188C26.219 51.1563 26.1093 51.1938 26.0343 51.1938L25.9593 51.2313L25.9968 51.3034C25.9968 51.7103 25.9968 52.1546 25.9246 52.5586C25.8496 52.9279 25.74 53.2973 25.5899 53.7041C25.4428 54.0734 25.186 54.4053 24.8166 54.7025C24.4473 55.0718 23.9654 55.2911 23.3768 55.3286C22.7853 55.4036 22.3034 55.4036 21.8995 55.3661C21.4176 55.3286 21.0108 55.1439 20.6414 54.8871C20.2721 54.5899 20.0874 54.2956 20.0528 53.9263V42.073C20.0528 41.9604 20.0874 41.8508 20.1249 41.7036C20.2375 41.3689 20.4221 40.9996 20.6789 40.6678C20.9386 40.4831 21.2329 40.3359 21.5301 40.2984C21.862 40.2609 22.0841 40.2263 22.2688 40.2263C22.4535 40.2263 22.7478 40.2609 23.1546 40.3359C23.524 40.411 23.8558 40.5581 24.1501 40.7428C24.4098 40.9275 24.5945 41.1496 24.7041 41.3689C25.5178 42.6616 25.1485 43.8446 25.7746 44.2139Z" fill="#232126"/>
<path d="M38.591 42.4048C38.4785 42.1076 38.2938 41.7758 38.0717 41.4439C37.887 41.1121 37.5552 40.8149 37.1858 40.5206C36.7819 40.2609 36.3 40.0041 35.746 39.857C35.192 39.6723 34.4909 39.5598 33.7147 39.5598H33.53C32.3845 39.5598 31.4265 39.8195 30.6504 40.2984C30.1339 40.5581 29.727 40.9275 29.4327 41.2968C29.1355 41.6661 28.9133 42.0355 28.7662 42.3673C28.619 42.7741 28.5094 43.1781 28.4344 43.5849V52.9654C28.4344 53.1501 28.544 53.4473 28.7287 53.8888C28.8412 54.1831 28.9884 54.5178 29.2105 54.8121C29.4327 55.1439 29.727 55.4411 30.1339 55.7354C30.5032 55.9951 30.9822 56.2519 31.5362 56.4366C32.1277 56.6213 32.7913 56.7338 33.605 56.7338H33.8272C34.9352 56.7338 35.8932 56.4741 36.6693 56.0298C37.1858 55.7354 37.5927 55.4036 37.887 55.0343C38.1467 54.665 38.3689 54.2956 38.516 53.9263C38.6632 53.5569 38.7757 53.1501 38.8478 52.7086V43.3281C38.8478 43.0309 38.7757 42.7366 38.591 42.4048ZM31.5362 42.0355C31.5362 41.9604 31.5737 41.8508 31.6112 41.7383C31.7208 41.2968 31.9055 40.965 32.1652 40.7053C32.422 40.4831 32.7192 40.3735 33.0135 40.2984C33.3453 40.2609 33.605 40.2263 33.7522 40.2263C33.9369 40.2263 34.1215 40.2609 34.3437 40.3359C34.5659 40.3735 34.8227 40.5206 35.0824 40.7428C35.3392 40.965 35.4892 41.1843 35.5613 41.4064C35.6364 41.5911 35.746 41.8133 35.7835 42.0355C35.821 42.4048 35.821 42.8088 35.821 43.1781C35.821 44.0293 35.821 44.8401 35.821 45.6913C35.821 46.7243 35.821 47.7948 35.821 48.8306C35.821 49.7886 35.821 50.7869 35.821 51.7478C35.821 52.3018 35.821 52.8558 35.7835 53.3723C35.7835 53.8513 35.8585 54.4428 35.6739 54.9218C35.5613 55.1814 35.4142 55.4036 35.192 55.5883C34.8977 55.8105 34.6005 55.9576 34.2687 55.9951C33.9744 56.0673 33.7147 56.0673 33.53 56.0673C32.497 56.0673 31.6112 55.1814 31.5362 54.1485C31.5362 53.7416 31.5362 53.3348 31.5362 52.9279C31.5362 51.4506 31.5362 50.0108 31.5362 48.5334C31.5362 47.0215 31.5362 45.4691 31.5362 43.9543C31.5362 43.3281 31.5362 42.6991 31.5362 42.0355Z" fill="#232126"/>
<path d="M51.6994 55.3286C51.2926 54.7025 51.4772 53.8138 51.4772 53.078C51.4772 52.5961 51.4772 52.1171 51.4772 51.6006C51.4772 50.3801 51.4772 49.1625 51.4772 47.9073C51.4772 45.6913 51.4772 43.4753 51.4772 41.2218C51.4772 41.2218 51.4772 40.89 51.4772 40.5956H52.3284V39.857H47.4896V40.5956H48.3379V52.9279C48.3379 53.4819 48.1532 53.9984 47.7839 54.4803C47.4145 54.9593 47.0452 55.2911 46.6413 55.5133C46.4191 55.6979 46.1219 55.8105 45.7525 55.8451C45.4207 55.8826 45.0889 55.8451 44.8292 55.6979C44.6099 55.5883 44.4252 55.4758 44.2406 55.2911C44.0905 55.1064 44.0559 54.8871 44.0184 54.665C43.9059 53.9263 44.0184 53.1126 44.0184 52.3393C44.0184 51.4506 44.0184 50.5273 44.0184 49.6414C44.0184 48.5334 44.0184 47.4254 44.0184 46.2828C44.0184 45.2469 44.0184 44.1764 44.0184 43.106C44.0184 42.3298 44.0184 41.5911 44.0184 40.8524C44.0184 40.7428 44.0184 40.6678 44.0184 40.5956H44.9792V39.857H40.1404V40.5956H40.9166V52.8933C40.9166 53.078 40.9887 53.4098 41.1734 53.8513C41.358 54.2581 41.6552 54.7025 42.0246 55.1439C42.3939 55.5883 42.9479 55.9951 43.6491 56.2895C43.7587 56.327 43.8712 56.3645 43.9809 56.3991C44.0559 56.3991 44.1656 56.4366 44.2406 56.4741L44.2752 56.5116C44.4599 56.5116 44.6099 56.5491 44.7946 56.5838C44.8667 56.6213 44.9792 56.6588 45.0889 56.6588C45.1639 56.6588 45.2361 56.6213 45.3111 56.6213H45.4957C45.9372 56.5838 46.3816 56.4741 46.8259 56.2144C47.5646 55.8105 48.0061 55.4411 48.2657 55.1064C48.3754 54.9218 48.4504 54.7746 48.5225 54.6274C48.5976 55.1439 48.8544 55.5883 49.2612 55.9201C49.7777 56.3991 50.5164 56.5838 51.4397 56.5491C51.8841 56.5491 52.2534 56.4741 52.5477 56.3991C52.7324 56.327 52.917 56.2519 53.1017 56.2144C52.6978 56.327 51.9216 55.6258 51.6994 55.3286Z" fill="#232126"/>
<path d="M64.883 50.9341C64.808 50.4551 64.6608 50.0483 64.4762 49.6789C64.2915 49.3096 63.9222 48.8306 63.4057 48.2766C63.221 48.0544 62.9238 47.8323 62.5199 47.538C62.1505 47.2783 61.7062 47.0561 61.2993 46.7993C60.8579 46.5396 60.451 46.3174 60.0442 46.0981C59.6373 45.876 59.3805 45.7288 59.1959 45.6538C58.0879 45.0623 57.3117 44.5083 56.8327 44.0293C56.3508 43.5474 56.094 43.0684 55.9815 42.5895C55.9469 42.4394 55.9469 42.2201 56.019 41.9979C56.094 41.7758 56.2412 41.5536 56.4634 41.3343C56.6855 41.1121 56.9799 40.9275 57.3867 40.7803C57.7907 40.6303 58.31 40.5581 58.9737 40.5581C59.5652 40.5206 60.1192 40.6303 60.5607 40.9275C61.2272 41.3343 61.8187 41.8508 62.188 42.5144C62.6295 43.2531 62.7045 44.1014 62.7045 44.9151V45.0248H63.9222C64.0693 45.0248 63.9222 43.5849 63.8847 43.4378C63.6625 41.7036 62.592 40.2984 60.8579 39.8916C60.451 39.7819 59.897 39.7069 59.268 39.7069C57.8657 39.6348 56.648 40.0416 55.5775 40.8899C55.0235 41.3343 54.6542 41.8133 54.4695 42.3298C54.2849 42.8463 54.2098 43.3281 54.2098 43.8446C54.2098 44.3236 54.2474 44.768 54.357 45.1373C54.4695 45.5441 54.5792 45.8009 54.6542 45.9856C54.8389 46.2828 55.0957 46.6146 55.3929 46.8714C55.6872 47.1686 56.019 47.4254 56.3508 47.6476C56.7577 47.9073 57.1645 48.1641 57.5339 48.3863C57.6435 48.4238 57.8657 48.5709 58.1975 48.7556C58.5293 48.9403 58.8987 49.1249 59.3055 49.3846C59.7123 49.6039 60.0817 49.8261 60.4135 50.0858C60.7828 50.308 61.0425 50.5273 61.2272 50.6773C61.5965 51.0813 61.9283 51.5256 62.188 51.97C62.4448 52.4489 62.5574 53.0029 62.4823 53.632C62.4073 54.1485 62.1505 54.6649 61.6687 55.2189C61.2272 55.7729 60.4885 56.0298 59.5277 56.0298C58.7515 55.9951 58.1254 55.7729 57.606 55.4036C57.0549 54.9968 56.6855 54.6649 56.4258 54.3678C56.1662 54.0734 55.9469 53.7041 55.7968 53.2251C55.6872 52.7808 55.5775 52.3393 55.54 51.97V51.8949H54.3195L54.357 56.6588H55.4275L55.3178 56.5116C55.2803 56.4741 55.3178 56.4366 55.3178 56.3645C55.3929 56.2144 55.465 56.1048 55.5775 56.0673C55.7622 55.9951 55.9469 55.9951 56.1662 56.0673L56.6855 56.2894C57.0895 56.3991 57.4963 56.5491 57.9753 56.6963C58.4197 56.8434 58.9737 56.9185 59.5652 56.9185C60.0817 56.9185 60.6357 56.8434 61.1897 56.6963C61.7437 56.5491 62.2977 56.327 62.8517 55.9951C63.3682 55.6979 63.775 55.3286 64.0693 54.8871C64.3665 54.4428 64.5858 53.9984 64.7359 53.5569C64.883 53.1126 64.9552 52.6336 64.9552 52.1546C64.9927 51.7103 64.9552 51.3034 64.883 50.9341Z" fill="#232126"/>
<path d="M67.7996 53.3348C68.0592 54.7746 68.8325 55.9201 70.4224 56.3991C71.4554 56.7338 72.6009 56.7338 73.6339 56.5116C74.1157 56.3991 74.5572 56.1798 74.9265 55.8451C75.1862 55.6258 75.4805 55.3661 75.7027 55.0343C75.9595 54.7371 76.1817 54.4053 76.4039 53.9984L76.4789 53.8513H76.2942C76.2192 53.8513 76.1096 53.8137 75.9595 53.7416C75.8499 53.7041 75.7749 53.6666 75.7027 53.632L75.6277 53.5569L75.5556 53.6666C75.1112 54.4803 74.6322 54.9968 74.1157 55.2565C73.5964 55.5508 73.1174 55.6604 72.7481 55.6258C70.9014 55.4757 70.8639 53.7791 70.9014 52.3739C70.9014 51.8949 70.8639 51.416 70.8639 50.9716C70.8639 50.0858 70.8639 49.1624 70.8639 48.2766C70.8639 46.3924 70.8639 44.5083 70.8639 42.6616C70.8639 41.6286 70.8639 40.6303 70.8639 39.6348H74.5572V38.8961H70.8639V34.6113H69.6087L69.5712 34.6863C69.4991 35.1278 69.349 35.5721 69.2019 36.0511C69.0547 36.4579 68.9076 36.8648 68.6854 37.2716C68.4632 37.7131 68.2064 38.0824 67.8371 38.3796C67.6899 38.5268 67.4677 38.6364 67.2456 38.7114C66.9859 38.7836 66.7666 38.8211 66.5069 38.8586C66.2126 38.8961 65.9529 38.8961 65.6586 38.8961H65.546V39.6348H67.6524C67.6524 43.6975 67.7245 47.7948 67.6524 51.8574C67.6524 52.3739 67.6899 52.8558 67.7996 53.3348Z" fill="#232126"/>
<path d="M77.9176 34.2794C78.3245 34.6113 78.8035 34.7584 79.3575 34.7584C79.9115 34.7584 80.3904 34.6113 80.7598 34.2794C81.1291 33.9851 81.3513 33.5783 81.3513 33.1339C81.3513 32.6925 81.1291 32.2856 80.7598 31.9884C80.3904 31.6566 79.9115 31.5094 79.3575 31.5094C78.8035 31.5094 78.3245 31.6566 77.9176 31.9884C77.5483 32.2856 77.3636 32.6925 77.3636 33.1339C77.3636 33.5783 77.5483 33.9851 77.9176 34.2794ZM80.8348 55.9201V40.2609C80.8348 40.0416 80.7598 39.8195 80.6126 39.6723C80.4279 39.4876 80.1711 39.5223 79.8364 39.7444C79.2103 40.1513 78.7313 40.4831 78.3245 40.7428C77.9176 40.9996 77.5858 41.1843 77.3636 41.3343C77.0693 41.519 76.8471 41.6661 76.7 41.7758L76.6625 41.8133V42.4048H77.4011C77.5483 42.4769 77.6233 42.552 77.6954 42.6616C77.733 42.7741 77.733 42.8088 77.733 42.8463V55.9201H76.8471V56.6588H81.6831V55.9201H80.8348Z" fill="#232126"/>
<path d="M91.8752 44.2139C92.282 44.4361 92.9485 44.2515 93.2804 43.8821C93.6122 43.5128 93.6122 42.9934 93.6122 42.9588C93.5747 42.8087 93.5747 42.6991 93.5025 42.5519C93.4275 42.2547 93.2429 41.9229 92.9832 41.5911C92.7264 41.2218 92.357 40.8899 91.9502 40.5956C91.5433 40.2984 91.0268 40.0416 90.4353 39.8195C89.8092 39.6348 89.108 39.5223 88.3319 39.5223H88.1472C87.0017 39.5223 86.0033 39.7444 85.2675 40.2263C84.7482 40.5206 84.3442 40.8524 84.047 41.2218C83.7527 41.6286 83.5305 41.9604 83.3834 42.2923C83.2362 42.6991 83.1237 43.1059 83.0515 43.5474V52.3393C83.0515 52.4489 83.0515 52.7433 83.0862 53.078C83.0862 53.4819 83.1612 53.7791 83.2708 53.9638C83.3834 54.2581 83.568 54.5524 83.7902 54.8871C84.0095 55.2189 84.3067 55.5133 84.676 55.7729C85.0829 56.0298 85.5619 56.2519 86.1534 56.4366C86.7074 56.5838 87.4085 56.6588 88.2193 56.6588H88.4415C89.033 56.6588 89.7342 56.5116 90.4353 56.2519C91.174 55.9576 91.803 55.5133 92.3195 54.8871C92.5792 54.5899 92.7639 54.2206 92.911 53.8137C93.0207 53.4098 93.1332 53.0029 93.2053 52.5961C93.2804 52.1893 93.2804 51.7103 93.2428 51.1938V51.1188H93.1678C93.0957 51.1188 92.911 51.1188 92.6513 51.1188C92.3195 51.1563 92.2099 51.1938 92.1348 51.1938L92.0598 51.2313L92.0973 51.3034C92.0973 51.7103 92.0973 52.1546 92.0252 52.5586C91.9502 52.9279 91.8405 53.2973 91.6905 53.7041C91.5433 54.0734 91.2865 54.4053 90.9172 54.7025C90.5479 55.0718 90.066 55.2911 89.4774 55.3286C88.8859 55.4036 88.404 55.4036 88 55.3661C87.5182 55.3286 87.1113 55.1439 86.742 54.8871C86.3727 54.5899 86.188 54.2956 86.1534 53.9263V42.073C86.1534 41.9604 86.188 41.8508 86.2255 41.7036C86.338 41.3689 86.5227 40.9996 86.7795 40.6678C87.0392 40.4831 87.3335 40.3359 87.6307 40.2984C87.9625 40.2609 88.1847 40.2263 88.3694 40.2263C88.554 40.2263 88.8484 40.2609 89.2552 40.3359C89.6245 40.411 89.9564 40.5581 90.2507 40.7428C90.5104 40.9275 90.695 41.1496 90.8047 41.3689C91.6184 42.6616 91.249 43.8446 91.8752 44.2139Z" fill="#232126"/>
<path d="M109.455 55.9201L104.948 28.4451C104.801 28.0008 104.1 28.0758 103.656 28.0383C102.513 28.0008 101.699 28.0383 100.554 28.1133C100.26 28.1133 100.147 28.0758 100.369 28.2604C100.554 28.4451 100.666 28.7019 100.851 28.9241C101.183 29.3309 100.998 29.96 100.886 30.4389C99.7777 35.0556 98.7822 39.857 97.7839 44.6208C97.5992 44.6929 97.4146 44.7679 97.2299 44.8401C96.4566 45.2469 95.0889 45.7634 95.2361 46.8368C95.7901 46.2453 96.4191 45.7288 97.1578 45.3941C97.3049 45.3219 97.4896 45.2844 97.6367 45.2094C96.8981 48.7181 96.1594 52.2643 95.3486 55.6979C95.3486 55.6979 95.3111 55.8105 95.3111 55.9201H94.3502V56.6588H97.5271V55.9201H96.4566L98.8198 44.9901C99.5931 44.9151 100.26 45.0247 101.036 45.2094C102.438 45.5787 103.768 46.3924 104.692 47.5004C105.096 50.2704 105.65 53.5569 105.984 55.9201H104.986V56.6588H110.341V55.9201H109.455ZM99.9624 43.9543C99.5931 44.0293 99.3738 44.0668 99.0044 44.2139C99.9999 39.4876 100.961 35.2778 102.031 30.4764C102.548 31.2497 102.66 31.9538 102.77 32.8771C103.324 36.6801 103.768 40.5206 104.247 44.3236C102.917 43.8071 101.405 43.7321 99.9624 43.9543Z" fill="#232126"/>
<path d="M116.654 28.7769V28.0383H111.226V28.7769H112.259V55.9201H111.301V56.6588H116.359V55.9201H115.436V28.7769H116.654Z" fill="#232126"/>
<path d="M123.633 28.7769V28.0383H118.206V28.7769H119.239V55.9201H118.281V56.6588H123.339V55.9201H122.415V28.7769H123.633Z" fill="#232126"/>
<path d="M135.082 51.7103C134.75 51.7103 134.638 51.7478 134.603 51.7478L134.528 51.7853V51.8949C134.49 52.0421 134.453 52.1893 134.418 52.3393C134.381 52.4865 134.343 52.6336 134.306 52.7808C134.234 52.9654 134.196 53.1126 134.159 53.2251C133.899 53.8513 133.495 54.4053 132.866 54.8871C132.24 55.3661 131.351 55.5883 130.281 55.5508C129.764 55.4758 129.285 55.2565 128.878 54.8871C128.471 54.5178 128.287 54.0359 128.287 53.4098V49.2346C128.287 49.2 128.287 49.2 128.287 49.2V48.5334C128.471 48.5334 128.619 48.5334 128.766 48.5334C129.986 48.5334 131.166 48.5334 132.349 48.4613C133.31 48.4238 134.234 48.2016 134.935 47.538C135.896 46.6521 136.043 45.2469 135.858 43.9918C135.711 42.6616 135.267 41.4064 134.121 40.5956C133.717 40.2984 133.198 40.0763 132.609 39.857C132.018 39.6723 131.279 39.5598 130.503 39.5598H130.281C129.135 39.5598 128.14 39.7819 127.401 40.2609C126.884 40.5581 126.478 40.8899 126.183 41.2593C125.886 41.6661 125.664 41.9979 125.517 42.3298C125.37 42.7366 125.26 43.1435 125.185 43.5849V52.0796C125.185 52.3393 125.185 52.5961 125.222 52.8183C125.26 53.0029 125.295 53.2251 125.332 53.4098C125.332 53.632 125.37 53.7791 125.479 53.8888C125.592 54.1831 125.739 54.4803 125.999 54.8121C126.218 55.1064 126.553 55.4411 126.922 55.6979C127.291 55.9951 127.77 56.2144 128.324 56.3991C128.878 56.5838 129.542 56.6963 130.356 56.6963H130.54C131.573 56.6963 132.497 56.4366 133.31 55.9576C134.083 55.4758 134.713 54.8121 135.119 53.9263C135.229 53.6666 135.304 53.4473 135.342 53.1876C135.414 52.9279 135.489 52.7086 135.561 52.524C135.561 52.3018 135.598 52.0796 135.636 51.8574L135.673 51.7478H135.561C135.489 51.7478 135.376 51.7478 135.082 51.7103ZM128.287 42.0355C128.287 41.9229 128.324 41.8133 128.362 41.7036C128.434 41.2593 128.619 40.9275 128.916 40.6678C129.173 40.4831 129.47 40.3359 129.802 40.2609C132.644 39.7819 133.974 43.66 133.382 45.9481C133.235 46.5771 132.978 47.3908 132.274 47.5755C131.648 47.7226 130.982 47.7601 130.356 47.7601C129.764 47.7226 129.1 47.7601 128.546 47.5005C128.471 47.4254 128.362 47.3908 128.287 47.3158V42.0355Z" fill="#232126"/>
<path d="M144.425 39.8195V40.6678H144.535C144.757 40.6678 145.017 40.7053 145.311 40.8149C145.568 40.8899 145.718 41.1496 145.718 41.5911C145.718 41.5911 145.718 53.2626 145.718 53.2973C145.718 54.5524 144.757 55.8105 143.465 55.9201C143.02 55.9951 142.616 55.9201 142.247 55.7354C141.471 55.4411 141.471 54.2956 141.471 53.5945V40.5581H142.616V39.8195H137.039V40.5581H138.256V52.9279C138.256 53.0405 138.256 53.2251 138.331 53.4819C138.369 53.7791 138.479 53.9984 138.591 54.1831C138.738 54.5899 138.995 54.9593 139.364 55.3286C139.846 55.773 140.435 56.1048 141.026 56.327C141.508 56.5116 142.247 56.5116 142.651 56.8059C145.828 59.2066 147.268 62.8624 146.936 66.778C146.676 69.8798 145.274 73.6106 142.319 75.1601C138.663 77.0443 133.937 74.1646 132.46 70.7281C131.611 68.7343 131.574 66.4461 132.312 64.4148C132.939 62.7903 134.159 61.0158 135.968 60.6464C139.734 59.8703 143.17 63.1596 143.133 66.8155C143.133 67.2194 145.496 66.7404 145.496 65.9643C145.533 61.7544 141.693 59.097 137.702 59.4288C132.829 59.8703 129.06 63.8608 129.43 68.8468C129.799 74.0896 134.86 77.4511 139.881 76.7125C144.128 76.1209 147.415 73.1663 148.707 69.1036C149.559 66.4808 149.596 63.6761 148.782 61.2004V41.5911C148.782 41.2968 148.82 41.0371 148.93 40.8524C148.967 40.7803 149.152 40.5956 149.89 40.5956H150V39.8195H144.425Z" fill="#232126"/>
</svg>
