<svg width="500" height="256" viewBox="0 0 500 256" fill="none" xmlns="http://www.w3.org/2000/svg">
<path fill-rule="evenodd" clip-rule="evenodd" d="M463.033 74.7228C462.928 68.9135 462.764 62.9695 462.293 57.1602C461.725 51.1201 460.831 45.3781 459.09 39.5303C457.359 33.8268 454.954 28.0175 452.021 22.8814C449.318 18.1782 446.182 14.1867 441.979 10.8588C437.603 7.36745 432.506 4.81866 427.158 3.1355C421.627 1.39463 415.318 0.317403 409.441 0.144279C403.603 -0.0865544 398.669 0.75022 393.196 2.63536C387.022 4.78019 380.655 7.93492 375.076 11.3301C370.075 14.4175 365.535 17.9762 360.764 21.3714C357.158 23.9202 353.185 26.4401 349.155 28.1521C346.087 29.4602 343.077 30.1334 339.739 29.9603C336.036 29.7968 332.102 28.7196 328.601 27.652C324.129 26.2381 319.686 24.6607 315.155 23.42C310.048 22.0735 304.71 20.9963 299.439 20.8328C294.265 20.727 288.888 21.4002 284.022 23.2469C279.02 25.0936 275.212 28.1136 272.076 32.5187C268.873 36.9815 266.199 42.9543 264.603 48.1962C263.939 50.341 263.439 52.4955 263.102 54.6788C262.929 55.7464 262.833 56.7563 262.698 57.7662C261.294 57.9297 259.063 57.997 258.226 58.0355C252.455 58.2663 246.617 58.3048 240.846 58.3721C208.616 58.9396 176.347 59.507 144.185 60.0456C136.913 60.1514 129.604 60.2861 122.361 60.3149C121.294 60.3149 120.293 60.3823 119.293 60.3149C119.062 60.3149 118.889 60.3149 118.687 60.3149C117.86 60.2188 117.052 59.8148 116.292 59.4782C114.253 58.5068 112.253 57.4969 110.214 56.5543C109.954 56.4581 109.713 56.3234 109.415 56.2176C108.251 55.7848 107.049 55.6502 105.78 55.5444C103.038 55.3135 100.172 55.2174 97.3734 55.1116L93.43 54.9481C93.43 54.8423 93.4685 54.7749 93.4685 54.7076V45.5801C95.3728 44.5702 96.6713 42.5888 96.6713 40.2709C96.6713 36.9142 93.9686 34.2307 90.66 34.2307C87.3225 34.2307 84.6583 36.9526 84.6583 40.2709C84.6583 42.5888 85.9567 44.5702 87.8611 45.5801V54.7076C81.1862 54.371 74.5497 54.0343 67.9036 53.7362C67.9421 53.5342 67.9709 53.3322 67.9709 53.1014V42.7235C69.8753 41.7136 71.1738 39.7323 71.1738 37.4143C71.1738 34.0576 68.4711 31.3742 65.1721 31.3742C61.8346 31.3742 59.1704 34.0961 59.1704 37.4143C59.1704 39.7323 60.4688 41.7136 62.3732 42.7235V53.1014C62.3732 53.1976 62.4021 53.3034 62.4021 53.438L61.7384 53.3996L57.3622 53.236C54.5633 53.0629 51.6875 52.8994 48.956 52.8994C47.2248 52.8994 45.3492 52.9956 44.4836 54.7461C44.2528 55.15 44.147 55.5444 44.0893 55.9868C43.9835 57.1602 44.0219 58.3048 43.6468 59.4782C43.214 60.7862 42.2522 62.0654 41.6847 63.4408C40.848 65.2875 40.848 66.9322 41.4154 68.9135C41.8194 70.4235 42.5792 71.9721 42.8197 73.5494C43.0505 74.9537 42.7523 76.5983 42.5504 78.0795C42.3195 79.5896 43.3871 81.0034 44.9164 81.2343C46.4168 81.5036 47.8211 80.4263 48.1192 78.9163C48.3885 76.8388 48.6867 74.7901 48.3597 72.703C48.0904 70.7217 47.3498 69.2117 46.8496 67.3361C46.6188 66.6629 46.59 66.3262 46.8496 65.6914C47.2921 64.6815 47.9846 63.7101 48.4174 62.7002C48.6578 62.2674 48.8598 61.7288 49.0233 61.219C49.2926 60.3149 49.4561 59.4108 49.5908 58.4683C49.8601 58.5356 50.1583 58.5356 50.3891 58.5356C52.6301 58.6029 54.9288 58.7087 57.1602 58.8049C70.5101 59.4782 83.7927 60.113 97.1329 60.7189C99.8741 60.892 102.74 60.9882 105.549 61.1517C106.116 61.219 107.011 61.2575 107.578 61.4884C107.751 61.5557 107.847 61.5942 108.011 61.6615C110.079 62.6329 112.051 63.7101 114.118 64.6527C115.455 65.249 116.658 65.7203 118.091 65.9608C119.428 66.1243 121.159 66.0281 122.525 66.0281C129.806 65.9608 137.106 65.855 144.387 65.7588C176.617 65.1817 208.876 64.6142 241.115 64.0756C245.251 64.0083 249.454 63.9794 253.657 63.8448C256.062 63.7775 258.534 63.739 260.996 63.6043C263.372 63.4408 266.7 63.3735 267.902 60.892C268.142 60.3823 268.238 59.911 268.306 59.3724C268.71 55.9868 269.104 53.1687 270.104 49.8409C271.509 45.205 273.913 39.7323 276.779 35.7696C279.318 32.2783 282.223 29.9988 286.186 28.4887C290.331 26.9114 294.996 26.3343 299.439 26.4401C304.277 26.6036 309.183 27.5846 313.847 28.8542C318.32 30.095 322.725 31.605 327.13 32.99C331.17 34.2307 335.44 35.3657 339.643 35.5676C343.846 35.7408 347.616 34.9713 351.521 33.317C355.955 31.4703 360.197 28.7581 364.131 25.9688C368.834 22.641 373.277 19.1496 378.144 16.1295C383.357 12.9075 389.359 9.91624 395.13 7.93492C400.006 6.26138 404.276 5.52078 409.441 5.68429C414.779 5.85741 420.56 6.86731 425.657 8.44468C430.303 9.95471 434.804 12.1669 438.671 15.2254C442.306 18.1493 445.009 21.6022 447.317 25.6706C450.049 30.4027 452.319 35.8369 453.887 41.0788C455.522 46.5515 456.426 51.9184 456.859 57.6315C457.359 63.335 457.455 69.077 457.589 74.7902C457.657 77.1754 457.657 79.5222 457.657 81.9749C457.657 83.4849 458.965 84.7256 460.465 84.7256C462.033 84.7256 463.264 83.4849 463.264 81.9749C463.101 79.5511 463.101 77.137 463.033 74.7228Z" fill="#653E2F"/>
<path d="M50.3506 186.032L35.3272 94.4488C34.8367 92.9676 32.4995 93.2177 31.0183 93.0926C27.2095 92.9676 24.4972 93.0926 20.6789 93.3427C19.6978 93.3427 19.3227 93.2177 20.0633 93.8332C20.6789 94.4488 21.054 95.3048 21.6695 96.0454C22.7756 97.4015 22.16 99.4983 21.7849 101.095C18.0916 116.484 14.7734 132.488 11.4455 148.368C10.83 148.608 10.2144 148.858 9.59884 149.099C7.02119 150.455 2.46223 152.176 2.95275 155.754C4.79942 153.783 6.89616 152.061 9.35838 150.945C9.84891 150.705 10.4645 150.58 10.955 150.33C8.49276 162.025 6.03053 173.846 3.32785 185.291C3.32785 185.291 3.20282 185.667 3.20282 186.032H0V188.494H10.5895V186.032H7.02119L14.8984 149.599C17.476 149.349 19.6978 149.714 22.2851 150.33C26.9595 151.561 31.3934 154.273 34.4712 157.967C35.8177 167.2 37.6644 178.155 38.7801 186.032H35.4522V188.494H53.3034V186.032H50.3506ZM18.7072 146.146C17.476 146.396 16.7451 146.521 15.514 147.012C18.8322 131.257 22.035 117.224 25.6033 101.22C27.3249 103.798 27.7001 106.144 28.0655 109.222C29.9122 121.899 31.3934 134.7 32.99 147.377C28.5561 145.655 23.5162 145.405 18.7072 146.146Z" fill="#653E2F"/>
<path d="M85.9153 147.012C87.2715 147.752 89.4932 147.137 90.5993 145.905C91.7054 144.674 91.7054 142.943 91.7054 142.828C91.5804 142.328 91.5804 141.962 91.3399 141.472C91.0899 140.481 90.4743 139.375 89.6087 138.269C88.7527 137.038 87.5215 135.932 86.1654 134.951C84.8092 133.96 83.0876 133.104 81.1159 132.363C79.0288 131.748 76.6916 131.373 74.1043 131.373H73.4888C69.6704 131.373 66.3425 132.113 63.8899 133.719C62.1587 134.7 60.8121 135.807 59.8215 137.038C58.8404 138.394 58.0999 139.5 57.6093 140.606C57.1188 141.962 56.7437 143.318 56.5033 144.79V174.096C56.5033 174.462 56.5033 175.443 56.6187 176.558C56.6187 177.905 56.8687 178.895 57.2342 179.511C57.6093 180.492 58.2249 181.473 58.9655 182.589C59.6965 183.695 60.6871 184.676 61.9182 185.542C63.2744 186.398 64.871 187.138 66.8427 187.754C68.6893 188.244 71.0265 188.494 73.7292 188.494H74.4698C76.4415 188.494 78.7787 188.004 81.1159 187.138C83.5781 186.157 85.6749 184.676 87.3965 182.589C88.2621 181.598 88.8777 180.367 89.3682 179.011C89.7337 177.664 90.1088 176.308 90.3493 174.952C90.5993 173.596 90.5993 171.999 90.4743 170.278V170.028H90.2242C89.9838 170.028 89.3682 170.028 88.5026 170.028C87.3965 170.153 87.031 170.278 86.781 170.278L86.5309 170.403L86.6559 170.643C86.6559 171.999 86.6559 173.481 86.4155 174.827C86.1654 176.058 85.7999 177.289 85.2998 178.645C84.8092 179.877 83.9532 180.983 82.7221 181.973C81.491 183.204 79.8848 183.935 77.9227 184.06C75.951 184.31 74.3448 184.31 72.9983 184.185C71.392 184.06 70.0359 183.445 68.8048 182.589C67.5737 181.598 66.9581 180.617 66.8427 179.386V139.875C66.8427 139.5 66.9581 139.134 67.0831 138.644C67.4582 137.528 68.0738 136.297 68.9298 135.191C69.7954 134.575 70.7765 134.085 71.7671 133.96C72.8732 133.835 73.6138 133.719 74.2294 133.719C74.8449 133.719 75.826 133.835 77.1821 134.085C78.4132 134.335 79.5193 134.825 80.5003 135.441C81.366 136.057 81.9815 136.797 82.347 137.528C85.0593 141.837 83.8282 145.78 85.9153 147.012Z" fill="#653E2F"/>
<path d="M128.637 140.981C128.262 139.99 127.646 138.884 126.906 137.778C126.29 136.672 125.184 135.681 123.953 134.7C122.606 133.835 121 132.979 119.153 132.488C117.307 131.873 114.969 131.498 112.382 131.498H111.767C107.948 131.498 104.755 132.363 102.168 133.96C100.446 134.825 99.0901 136.057 98.109 137.288C97.1184 138.519 96.3778 139.75 95.8872 140.856C95.3967 142.212 95.0312 143.559 94.7812 144.915V176.183C94.7812 176.799 95.1467 177.789 95.7622 179.261C96.1373 180.242 96.6278 181.358 97.3684 182.339C98.109 183.445 99.0901 184.436 100.446 185.417C101.677 186.282 103.274 187.138 105.121 187.754C107.092 188.369 109.304 188.744 112.017 188.744H112.757C116.451 188.744 119.644 187.879 122.231 186.398C123.953 185.417 125.309 184.31 126.29 183.079C127.156 181.848 127.896 180.617 128.387 179.386C128.877 178.155 129.252 176.799 129.493 175.327V144.059C129.493 143.068 129.252 142.087 128.637 140.981ZM105.121 139.75C105.121 139.5 105.246 139.134 105.371 138.759C105.736 137.288 106.352 136.182 107.217 135.316C108.073 134.575 109.064 134.21 110.045 133.96C111.151 133.835 112.017 133.719 112.507 133.719C113.123 133.719 113.738 133.835 114.479 134.085C115.22 134.21 116.076 134.7 116.941 135.441C117.797 136.182 118.297 136.913 118.538 137.653C118.788 138.269 119.153 139.009 119.278 139.75C119.403 140.981 119.403 142.328 119.403 143.559C119.403 146.396 119.403 149.099 119.403 151.936C119.403 155.379 119.403 158.948 119.403 162.401C119.403 165.594 119.403 168.922 119.403 172.124C119.403 173.971 119.403 175.818 119.278 177.539C119.278 179.136 119.528 181.108 118.913 182.704C118.538 183.57 118.047 184.31 117.307 184.926C116.326 185.667 115.335 186.157 114.229 186.282C113.248 186.523 112.382 186.523 111.767 186.523C108.323 186.523 105.371 183.57 105.121 180.127C105.121 178.77 105.121 177.414 105.121 176.058C105.121 171.134 105.121 166.334 105.121 161.41C105.121 156.37 105.121 151.195 105.121 146.146C105.121 144.059 105.121 141.962 105.121 139.75Z" fill="#653E2F"/>
<path d="M172.331 184.06C170.975 181.973 171.591 179.011 171.591 176.558C171.591 174.952 171.591 173.356 171.591 171.634C171.591 167.565 171.591 163.507 171.591 159.323C171.591 151.936 171.591 144.549 171.591 137.038C171.591 137.038 171.591 135.932 171.591 134.951H174.428V132.488H158.299V134.951H161.126V176.058C161.126 177.905 160.511 179.627 159.28 181.233C158.048 182.829 156.817 183.935 155.471 184.676C154.73 185.292 153.74 185.667 152.508 185.782C151.402 185.907 150.296 185.782 149.431 185.292C148.7 184.926 148.084 184.551 147.469 183.935C146.968 183.32 146.853 182.589 146.728 181.848C146.353 179.386 146.728 176.674 146.728 174.096C146.728 171.134 146.728 168.056 146.728 165.103C146.728 161.41 146.728 157.717 146.728 153.908C146.728 150.455 146.728 146.887 146.728 143.318C146.728 140.731 146.728 138.269 146.728 135.807C146.728 135.441 146.728 135.191 146.728 134.951H149.931V132.488H133.801V134.951H136.389V175.943C136.389 176.558 136.629 177.664 137.245 179.136C137.86 180.492 138.851 181.973 140.082 183.445C141.313 184.926 143.16 186.282 145.497 187.263C145.862 187.388 146.237 187.513 146.603 187.629C146.853 187.629 147.219 187.754 147.469 187.879L147.584 188.004C148.2 188.004 148.7 188.129 149.315 188.244C149.556 188.369 149.931 188.494 150.296 188.494C150.546 188.494 150.787 188.369 151.037 188.369H151.652C153.124 188.244 154.605 187.879 156.086 187.013C158.549 185.667 160.02 184.436 160.886 183.32C161.251 182.704 161.501 182.214 161.742 181.723C161.992 183.445 162.848 184.926 164.204 186.032C165.926 187.629 168.388 188.244 171.466 188.129C172.947 188.129 174.178 187.879 175.159 187.629C175.775 187.388 176.39 187.138 177.006 187.013C175.659 187.388 173.072 185.051 172.331 184.06Z" fill="#653E2F"/>
<path d="M216.277 169.412C216.027 167.815 215.536 166.459 214.921 165.228C214.305 163.997 213.074 162.401 211.352 160.554C210.737 159.813 209.746 159.073 208.4 158.092C207.168 157.226 205.687 156.485 204.331 155.629C202.86 154.764 201.503 154.023 200.147 153.292C198.791 152.552 197.935 152.061 197.32 151.811C193.626 149.839 191.039 147.993 189.442 146.396C187.836 144.79 186.98 143.193 186.605 141.597C186.49 141.096 186.49 140.365 186.73 139.625C186.98 138.884 187.471 138.144 188.211 137.413C188.952 136.672 189.933 136.057 191.289 135.566C192.636 135.066 194.367 134.825 196.579 134.825C198.551 134.7 200.397 135.066 201.869 136.057C204.091 137.413 206.062 139.134 207.293 141.347C208.765 143.809 209.015 146.636 209.015 149.349V149.714H213.074C213.564 149.714 213.074 144.915 212.949 144.424C212.208 138.644 208.64 133.96 202.86 132.604C201.503 132.238 199.657 131.988 197.56 131.988C192.886 131.748 188.827 133.104 185.258 135.932C183.412 137.413 182.181 139.009 181.565 140.731C180.95 142.453 180.699 144.059 180.699 145.78C180.699 147.377 180.825 148.858 181.19 150.089C181.565 151.446 181.931 152.302 182.181 152.917C182.796 153.908 183.652 155.014 184.643 155.87C185.624 156.86 186.73 157.716 187.836 158.457C189.192 159.323 190.548 160.179 191.779 160.919C192.145 161.044 192.886 161.535 193.992 162.15C195.098 162.766 196.329 163.382 197.685 164.247C199.041 164.978 200.272 165.719 201.378 166.584C202.609 167.325 203.475 168.056 204.091 168.556C205.322 169.903 206.428 171.384 207.293 172.865C208.149 174.462 208.525 176.308 208.274 178.405C208.024 180.127 207.168 181.848 205.562 183.695C204.091 185.542 201.628 186.398 198.426 186.398C195.838 186.282 193.751 185.542 192.02 184.31C190.183 182.954 188.952 181.848 188.086 180.858C187.221 179.877 186.49 178.645 185.989 177.049C185.624 175.568 185.258 174.096 185.133 172.865V172.615H181.065L181.19 188.494H184.758L184.393 188.004C184.268 187.879 184.393 187.754 184.393 187.513C184.643 187.013 184.883 186.648 185.258 186.523C185.874 186.282 186.49 186.282 187.221 186.523L188.952 187.263C190.298 187.629 191.654 188.129 193.251 188.619C194.732 189.11 196.579 189.36 198.551 189.36C200.272 189.36 202.119 189.11 203.966 188.619C205.812 188.129 207.659 187.388 209.506 186.282C211.227 185.292 212.583 184.06 213.564 182.589C214.555 181.108 215.286 179.626 215.786 178.155C216.277 176.674 216.517 175.077 216.517 173.481C216.642 171.999 216.517 170.643 216.277 169.412Z" fill="#653E2F"/>
<path d="M225.999 177.414C226.864 182.214 229.442 186.032 234.741 187.629C238.185 188.744 242.003 188.744 245.446 188.004C247.052 187.629 248.524 186.898 249.755 185.782C250.621 185.051 251.602 184.185 252.342 183.079C253.198 182.089 253.939 180.983 254.68 179.626L254.93 179.136H254.314C254.064 179.136 253.699 179.011 253.198 178.77C252.833 178.645 252.583 178.52 252.342 178.405L252.092 178.155L251.852 178.52C250.371 181.233 248.774 182.954 247.052 183.82C245.321 184.801 243.725 185.166 242.494 185.051C236.338 184.551 236.213 178.895 236.338 174.211C236.338 172.615 236.213 171.018 236.213 169.537C236.213 166.584 236.213 163.507 236.213 160.554C236.213 154.273 236.213 147.993 236.213 141.837C236.213 138.394 236.213 135.066 236.213 131.748H248.524V129.285H236.213V115.003H232.029L231.904 115.253C231.664 116.724 231.163 118.205 230.673 119.802C230.182 121.158 229.692 122.514 228.951 123.871C228.211 125.342 227.355 126.573 226.124 127.564C225.633 128.054 224.892 128.42 224.152 128.67C223.286 128.91 222.555 129.035 221.69 129.16C220.709 129.285 219.843 129.285 218.862 129.285H218.487V131.748H225.508C225.508 145.29 225.748 158.948 225.508 172.49C225.508 174.211 225.633 175.818 225.999 177.414Z" fill="#653E2F"/>
<path d="M259.725 113.897C261.082 115.003 262.678 115.493 264.525 115.493C266.372 115.493 267.968 115.003 269.199 113.897C270.43 112.916 271.171 111.559 271.171 110.078C271.171 108.607 270.43 107.25 269.199 106.26C267.968 105.154 266.372 104.663 264.525 104.663C262.678 104.663 261.082 105.154 259.725 106.26C258.494 107.25 257.879 108.607 257.879 110.078C257.879 111.559 258.494 112.916 259.725 113.897ZM269.449 186.032V133.835C269.449 133.104 269.199 132.363 268.709 131.873C268.093 131.257 267.237 131.373 266.121 132.113C264.034 133.469 262.438 134.575 261.082 135.441C259.725 136.297 258.619 136.913 257.879 137.413C256.898 138.028 256.157 138.519 255.667 138.884L255.542 139.009V140.981H258.004C258.494 141.222 258.744 141.472 258.985 141.837C259.11 142.212 259.11 142.328 259.11 142.453V186.032H256.157V188.494H272.277V186.032H269.449Z" fill="#653E2F"/>
<path d="M306.251 147.012C307.607 147.752 309.828 147.137 310.935 145.905C312.041 144.674 312.041 142.943 312.041 142.828C311.916 142.328 311.916 141.962 311.675 141.472C311.425 140.481 310.809 139.375 309.944 138.269C309.088 137.038 307.857 135.932 306.501 134.951C305.144 133.96 303.423 133.104 301.451 132.363C299.364 131.748 297.027 131.373 294.44 131.373H293.824C290.006 131.373 286.678 132.113 284.225 133.719C282.494 134.7 281.147 135.807 280.157 137.038C279.176 138.394 278.435 139.5 277.945 140.606C277.454 141.962 277.079 143.318 276.838 144.79V174.096C276.838 174.462 276.838 175.443 276.954 176.558C276.954 177.905 277.204 178.895 277.569 179.511C277.945 180.492 278.56 181.473 279.301 182.589C280.032 183.695 281.022 184.676 282.253 185.542C283.61 186.398 285.206 187.138 287.178 187.754C289.025 188.244 291.362 188.494 294.064 188.494H294.805C296.777 188.494 299.114 188.004 301.451 187.138C303.913 186.157 306.01 184.676 307.732 182.589C308.597 181.598 309.213 180.367 309.703 179.011C310.069 177.664 310.444 176.308 310.684 174.952C310.935 173.596 310.935 171.999 310.809 170.278V170.028H310.559C310.319 170.028 309.703 170.028 308.838 170.028C307.732 170.153 307.366 170.278 307.116 170.278L306.866 170.403L306.991 170.643C306.991 171.999 306.991 173.481 306.751 174.827C306.501 176.058 306.135 177.289 305.635 178.645C305.144 179.877 304.288 180.983 303.057 181.973C301.826 183.204 300.22 183.935 298.258 184.06C296.286 184.31 294.68 184.31 293.333 184.185C291.727 184.06 290.371 183.445 289.14 182.589C287.909 181.598 287.293 180.617 287.178 179.386V139.875C287.178 139.5 287.293 139.134 287.418 138.644C287.793 137.528 288.409 136.297 289.265 135.191C290.131 134.575 291.112 134.085 292.102 133.96C293.208 133.835 293.949 133.719 294.565 133.719C295.18 133.719 296.161 133.835 297.517 134.085C298.748 134.335 299.854 134.825 300.836 135.441C301.701 136.057 302.317 136.797 302.682 137.528C305.394 141.837 304.163 145.78 306.251 147.012Z" fill="#653E2F"/>
<path d="M364.851 186.032L349.828 94.4488C349.337 92.9676 347 93.2177 345.519 93.0926C341.71 92.9676 338.998 93.0926 335.18 93.3427C334.199 93.3427 333.824 93.2177 334.564 93.8332C335.18 94.4488 335.555 95.3048 336.17 96.0454C337.276 97.4015 336.661 99.4983 336.286 101.095C332.592 116.484 329.274 132.488 325.946 148.368C325.331 148.608 324.715 148.858 324.1 149.099C321.522 150.455 316.963 152.176 317.454 155.754C319.3 153.783 321.397 152.061 323.859 150.945C324.35 150.705 324.965 150.58 325.456 150.33C322.994 162.025 320.531 173.846 317.829 185.291C317.829 185.291 317.704 185.667 317.704 186.032H314.501V188.494H325.09V186.032H321.522L329.399 149.599C331.977 149.349 334.199 149.714 336.786 150.33C341.46 151.561 345.894 154.273 348.972 157.967C350.319 167.2 352.165 178.155 353.281 186.032H349.953V188.494H367.804V186.032H364.851ZM333.208 146.146C331.977 146.396 331.246 146.521 330.015 147.012C333.333 131.257 336.536 117.224 340.104 101.22C341.826 103.798 342.201 106.144 342.566 109.222C344.413 121.899 345.894 134.7 347.491 147.377C343.057 145.655 338.017 145.405 333.208 146.146Z" fill="#653E2F"/>
<path d="M388.846 95.5549V93.0927H370.754V95.5549H374.197V186.032H371.004V188.494H387.865V186.032H384.787V95.5549H388.846Z" fill="#653E2F"/>
<path d="M412.11 95.5549V93.0927H394.018V95.5549H397.462V186.032H394.268V188.494H411.129V186.032H408.051V95.5549H412.11Z" fill="#653E2F"/>
<path d="M450.273 171.999C449.167 171.999 448.792 172.124 448.676 172.124L448.426 172.249V172.615C448.301 173.105 448.176 173.596 448.061 174.096C447.936 174.587 447.811 175.077 447.686 175.568C447.445 176.183 447.32 176.674 447.195 177.049C446.329 179.136 444.983 180.983 442.886 182.589C440.799 184.185 437.837 184.926 434.268 184.801C432.547 184.551 430.95 183.82 429.594 182.589C428.238 181.358 427.622 179.752 427.622 177.664V163.747C427.622 163.632 427.622 163.632 427.622 163.632V161.41C428.238 161.41 428.728 161.41 429.219 161.41C433.287 161.41 437.221 161.41 441.165 161.169C444.367 161.044 447.445 160.304 449.782 158.092C452.985 155.139 453.476 150.455 452.86 146.271C452.37 141.837 450.888 137.653 447.07 134.951C445.724 133.96 443.992 133.219 442.03 132.488C440.058 131.873 437.596 131.498 435.009 131.498H434.268C430.45 131.498 427.132 132.238 424.67 133.835C422.948 134.825 421.592 135.932 420.611 137.163C419.62 138.519 418.879 139.625 418.389 140.731C417.898 142.087 417.533 143.443 417.283 144.915V173.23C417.283 174.096 417.283 174.952 417.408 175.693C417.533 176.308 417.648 177.049 417.773 177.664C417.773 178.405 417.898 178.896 418.264 179.261C418.639 180.242 419.13 181.233 419.995 182.339C420.726 183.32 421.842 184.436 423.073 185.292C424.304 186.282 425.901 187.013 427.747 187.629C429.594 188.244 431.806 188.619 434.518 188.619H435.134C438.577 188.619 441.655 187.754 444.367 186.157C446.945 184.551 449.042 182.339 450.398 179.386C450.763 178.52 451.013 177.789 451.138 176.924C451.379 176.058 451.629 175.327 451.869 174.712C451.869 173.971 451.994 173.23 452.12 172.49L452.245 172.124H451.869C451.629 172.124 451.254 172.124 450.273 171.999ZM427.622 139.75C427.622 139.375 427.747 139.009 427.872 138.644C428.113 137.163 428.728 136.057 429.719 135.191C430.575 134.575 431.566 134.085 432.672 133.835C442.146 132.238 446.58 145.165 444.608 152.792C444.117 154.889 443.261 157.601 440.914 158.217C438.827 158.707 436.606 158.832 434.518 158.832C432.547 158.707 430.335 158.832 428.488 157.967C428.238 157.717 427.872 157.601 427.622 157.351V139.75Z" fill="#653E2F"/>
<path d="M481.418 132.363V135.191H481.783C482.524 135.191 483.39 135.316 484.371 135.681C485.227 135.932 485.727 136.797 485.727 138.269C485.727 138.269 485.727 177.174 485.727 177.289C485.727 181.473 482.524 185.667 478.215 186.032C476.734 186.282 475.387 186.032 474.156 185.417C471.569 184.436 471.569 180.617 471.569 178.28V134.825H475.387V132.363H456.796V134.825H460.854V176.058C460.854 176.433 460.854 177.049 461.104 177.905C461.23 178.896 461.595 179.626 461.97 180.242C462.461 181.598 463.317 182.829 464.548 184.06C466.154 185.542 468.116 186.648 470.088 187.388C471.694 188.004 474.156 188.004 475.503 188.985C486.092 196.987 490.892 209.173 489.786 222.225C488.92 232.564 484.246 245.001 474.397 250.165C462.211 256.446 446.456 246.847 441.532 235.392C438.704 228.746 438.579 221.119 441.041 214.348C443.128 208.933 447.197 203.018 453.227 201.787C465.779 199.199 477.234 210.164 477.109 222.35C477.109 223.696 484.986 222.1 484.986 219.513C485.111 205.48 472.31 196.622 459.008 197.728C442.763 199.199 430.202 212.501 431.433 229.121C432.664 246.597 449.534 257.802 466.269 255.34C480.427 253.368 491.382 243.519 495.691 229.977C498.528 221.234 498.653 211.885 495.941 203.633V138.269C495.941 137.288 496.066 136.422 496.432 135.807C496.557 135.566 497.172 134.951 499.634 134.951H500V132.363H481.418Z" fill="#653E2F"/>
<path d="M187.41 211.572V225.346H185.987V214.304L180.562 223.576H179.908L174.483 214.381V225.346H173.06V211.572H174.291L180.254 221.768L186.179 211.572H187.41Z" fill="#653E2F"/>
<path d="M200.996 225.461C199.197 225.461 197.802 224.951 196.802 223.922C195.802 222.903 195.302 221.412 195.302 219.459V211.572H196.764V219.382C196.764 220.998 197.119 222.21 197.841 222.999C198.581 223.768 199.63 224.153 200.996 224.153C202.381 224.153 203.429 223.768 204.15 222.999C204.862 222.21 205.227 220.998 205.227 219.382V211.572H206.651V219.459C206.651 221.412 206.151 222.903 205.151 223.922C204.15 224.951 202.765 225.461 200.996 225.461Z" fill="#653E2F"/>
<path d="M218.372 225.461C217.343 225.461 216.352 225.297 215.41 224.961C214.487 224.634 213.765 224.191 213.255 223.653L213.833 222.537C214.313 223.056 214.967 223.46 215.795 223.768C216.641 224.076 217.497 224.23 218.372 224.23C219.603 224.23 220.527 223.999 221.142 223.537C221.758 223.076 222.066 222.489 222.066 221.768C222.066 221.229 221.892 220.796 221.565 220.46C221.229 220.133 220.815 219.873 220.334 219.69C219.844 219.517 219.18 219.325 218.334 219.113C217.276 218.863 216.449 218.613 215.833 218.382C215.218 218.132 214.689 217.757 214.256 217.266C213.813 216.757 213.602 216.074 213.602 215.227C213.602 214.535 213.775 213.91 214.14 213.342C214.496 212.756 215.064 212.294 215.833 211.957C216.603 211.63 217.545 211.457 218.68 211.457C219.469 211.457 220.238 211.563 220.988 211.765C221.729 211.976 222.383 212.265 222.95 212.65L222.45 213.804C221.883 213.448 221.267 213.179 220.604 212.996C219.93 212.794 219.296 212.688 218.68 212.688C217.468 212.688 216.564 212.919 215.948 213.381C215.333 213.842 215.025 214.448 215.025 215.189C215.025 215.728 215.189 216.17 215.525 216.497C215.852 216.834 216.276 217.093 216.795 217.266C217.305 217.449 217.988 217.642 218.834 217.843C219.834 218.103 220.642 218.363 221.258 218.613C221.892 218.844 222.431 219.219 222.874 219.729C223.306 220.219 223.528 220.873 223.528 221.691C223.528 222.383 223.335 223.028 222.95 223.614C222.585 224.182 222.008 224.634 221.219 224.961C220.45 225.297 219.498 225.461 218.372 225.461Z" fill="#653E2F"/>
<path d="M230.223 211.572H231.685V225.346H230.223V211.572Z" fill="#653E2F"/>
<path d="M245.719 225.461C244.354 225.461 243.123 225.172 242.026 224.576C240.92 223.961 240.064 223.133 239.448 222.075C238.833 220.998 238.525 219.796 238.525 218.459C238.525 217.132 238.833 215.939 239.448 214.881C240.064 213.804 240.92 212.977 242.026 212.38C243.123 211.765 244.373 211.457 245.758 211.457C246.758 211.457 247.691 211.63 248.566 211.957C249.432 212.294 250.182 212.794 250.798 213.458L249.874 214.381C248.797 213.285 247.431 212.727 245.796 212.727C244.69 212.727 243.69 212.986 242.796 213.496C241.891 213.987 241.189 214.67 240.68 215.535C240.189 216.41 239.949 217.382 239.949 218.459C239.949 219.536 240.189 220.517 240.68 221.383C241.189 222.229 241.891 222.912 242.796 223.422C243.69 223.912 244.69 224.153 245.796 224.153C247.431 224.153 248.797 223.605 249.874 222.499L250.798 223.422C250.182 224.095 249.432 224.605 248.566 224.961C247.691 225.297 246.739 225.461 245.719 225.461Z" fill="#653E2F"/>
<path d="M269.942 225.461C268.912 225.461 267.922 225.297 266.979 224.961C266.056 224.634 265.335 224.191 264.825 223.653L265.402 222.537C265.883 223.056 266.537 223.46 267.364 223.768C268.21 224.076 269.066 224.23 269.942 224.23C271.173 224.23 272.096 223.999 272.712 223.537C273.327 223.076 273.635 222.489 273.635 221.768C273.635 221.229 273.462 220.796 273.135 220.46C272.798 220.133 272.385 219.873 271.904 219.69C271.413 219.517 270.75 219.325 269.903 219.113C268.845 218.863 268.018 218.613 267.402 218.382C266.787 218.132 266.258 217.757 265.825 217.266C265.383 216.757 265.171 216.074 265.171 215.227C265.171 214.535 265.344 213.91 265.71 213.342C266.065 212.756 266.633 212.294 267.402 211.957C268.172 211.63 269.114 211.457 270.249 211.457C271.038 211.457 271.808 211.563 272.558 211.765C273.298 211.976 273.952 212.265 274.52 212.65L274.02 213.804C273.452 213.448 272.837 213.179 272.173 212.996C271.5 212.794 270.865 212.688 270.249 212.688C269.038 212.688 268.133 212.919 267.518 213.381C266.902 213.842 266.595 214.448 266.595 215.189C266.595 215.728 266.758 216.17 267.095 216.497C267.422 216.834 267.845 217.093 268.364 217.266C268.874 217.449 269.557 217.642 270.403 217.843C271.404 218.103 272.211 218.363 272.827 218.613C273.462 218.844 274 219.219 274.443 219.729C274.876 220.219 275.097 220.873 275.097 221.691C275.097 222.383 274.905 223.028 274.52 223.614C274.154 224.182 273.577 224.634 272.789 224.961C272.019 225.297 271.067 225.461 269.942 225.461Z" fill="#653E2F"/>
<path d="M293.334 211.572V225.346H291.911V218.998H283.255V225.346H281.793V211.572H283.255V217.69H291.911V211.572H293.334Z" fill="#653E2F"/>
<path d="M307.393 225.461C306.027 225.461 304.786 225.153 303.661 224.538C302.555 223.922 301.699 223.095 301.083 222.037C300.468 220.989 300.16 219.796 300.16 218.459C300.16 217.132 300.468 215.939 301.083 214.881C301.699 213.804 302.555 212.977 303.661 212.38C304.786 211.765 306.027 211.457 307.393 211.457C308.749 211.457 309.98 211.765 311.086 212.38C312.183 212.977 313.048 213.804 313.664 214.881C314.299 215.939 314.626 217.132 314.626 218.459C314.626 219.796 314.299 220.998 313.664 222.075C313.048 223.133 312.183 223.961 311.086 224.576C309.98 225.172 308.749 225.461 307.393 225.461ZM307.393 224.153C308.489 224.153 309.48 223.912 310.355 223.422C311.221 222.941 311.904 222.258 312.394 221.383C312.904 220.517 313.164 219.536 313.164 218.459C313.164 217.382 312.904 216.41 312.394 215.535C311.904 214.67 311.221 213.987 310.355 213.496C309.48 212.986 308.489 212.727 307.393 212.727C306.316 212.727 305.325 212.986 304.431 213.496C303.526 213.987 302.824 214.67 302.315 215.535C301.824 216.41 301.584 217.382 301.584 218.459C301.584 219.536 301.824 220.517 302.315 221.383C302.824 222.258 303.526 222.941 304.431 223.422C305.325 223.912 306.316 224.153 307.393 224.153Z" fill="#653E2F"/>
<path d="M326.619 211.572C328.36 211.572 329.735 211.996 330.735 212.842C331.736 213.669 332.236 214.804 332.236 216.266C332.236 217.757 331.736 218.921 330.735 219.767C329.735 220.594 328.36 220.998 326.619 220.998H322.887V225.346H321.425V211.572H326.619ZM326.542 219.729C327.927 219.729 328.975 219.44 329.697 218.844C330.408 218.228 330.774 217.372 330.774 216.266C330.774 215.17 330.408 214.323 329.697 213.727C328.975 213.111 327.927 212.804 326.542 212.804H322.887V219.729H326.542Z" fill="#653E2F"/>
</svg>
