<svg width="25" height="25" viewBox="0 0 25 25" fill="none" xmlns="http://www.w3.org/2000/svg">
<path d="M12.5 17.7084C12.2341 17.707 11.9718 17.6465 11.7321 17.5312C11.4925 17.4159 11.2816 17.2487 11.1146 17.0417L6.72916 11.7292C6.47291 11.4094 6.31165 11.024 6.26376 10.617C6.21588 10.21 6.2833 9.79769 6.45833 9.42712C6.60029 9.10507 6.83195 8.83068 7.12564 8.63673C7.41933 8.44278 7.76265 8.33747 8.11458 8.33337H16.8854C17.2373 8.33747 17.5807 8.44278 17.8744 8.63673C18.168 8.83068 18.3997 9.10507 18.5417 9.42712C18.7167 9.79769 18.7841 10.21 18.7362 10.617C18.6883 11.024 18.5271 11.4094 18.2708 11.7292L13.8854 17.0417C13.7184 17.2487 13.5075 17.4159 13.2678 17.5312C13.0282 17.6465 12.7659 17.707 12.5 17.7084Z" fill="#F8F8F8"/>
</svg>
