<svg width="50" height="50" viewBox="0 0 50 50" fill="none" xmlns="http://www.w3.org/2000/svg">
<path opacity="0.2" fill-rule="evenodd" clip-rule="evenodd" d="M25.9616 50C39.2385 50 50 39.2385 50 25.9616C50 12.6846 39.2385 1.9231 25.9616 1.9231C12.6846 1.9231 1.9231 12.6846 1.9231 25.9616C1.9231 39.2385 12.6846 50 25.9616 50ZM25.9616 46.1539C37.1135 46.1539 46.1539 37.1135 46.1539 25.9616C46.1539 14.8096 37.1135 5.76925 25.9616 5.76925C14.8096 5.76925 5.76925 14.8096 5.76925 25.9616C5.76925 37.1135 14.8096 46.1539 25.9616 46.1539Z" fill="#F8F8F8"/>
<path opacity="0.2" fill-rule="evenodd" clip-rule="evenodd" d="M15.8057 11.0577H13.8461C13.4636 11.0577 13.0967 10.9058 12.8263 10.6353C12.5558 10.3648 12.4038 9.99793 12.4038 9.6154C12.4038 9.23288 12.5558 8.86602 12.8263 8.59554C13.0967 8.32505 13.4636 8.1731 13.8461 8.1731H16.9288C17.2497 8.17313 17.5615 8.28019 17.8147 8.47734C18.0679 8.67448 18.2482 8.95045 18.3269 9.26156L21.2153 20.6789C21.788 20.3595 22.4328 20.192 23.0884 20.1923H38.4519C39.0338 20.1937 39.6079 20.3262 40.1315 20.5802C40.655 20.8341 41.1146 21.2029 41.4759 21.659C41.8372 22.1152 42.091 22.6469 42.2184 23.2147C42.3457 23.7825 42.3434 24.3717 42.2115 24.9385L40.7057 31.5943C40.5145 32.4502 40.0377 33.2157 39.3538 33.7647C38.6698 34.3138 37.8194 34.6138 36.9423 34.6154H24.5961C23.7195 34.6138 22.8696 34.314 22.186 33.7653C21.5024 33.2166 21.0258 32.4516 20.8346 31.5962L19.3288 24.9385C19.3082 24.8462 19.2909 24.7532 19.2769 24.6596C19.236 24.5733 19.2038 24.4831 19.1807 24.3904L15.8057 11.0577ZM23.5577 41.3462C24.4502 41.3462 25.3062 40.9916 25.9373 40.3605C26.5685 39.7293 26.923 38.8733 26.923 37.9808C26.923 37.0882 26.5685 36.2322 25.9373 35.6011C25.3062 34.97 24.4502 34.6154 23.5577 34.6154C22.6651 34.6154 21.8091 34.97 21.178 35.6011C20.5468 36.2322 20.1923 37.0882 20.1923 37.9808C20.1923 38.8733 20.5468 39.7293 21.178 40.3605C21.8091 40.9916 22.6651 41.3462 23.5577 41.3462ZM37.0192 41.3462C37.9117 41.3462 38.7677 40.9916 39.3989 40.3605C40.03 39.7293 40.3846 38.8733 40.3846 37.9808C40.3846 37.0882 40.03 36.2322 39.3989 35.6011C38.7677 34.97 37.9117 34.6154 37.0192 34.6154C36.1266 34.6154 35.2706 34.97 34.6395 35.6011C34.0084 36.2322 33.6538 37.0882 33.6538 37.9808C33.6538 38.8733 34.0084 39.7293 34.6395 40.3605C35.2706 40.9916 36.1266 41.3462 37.0192 41.3462Z" fill="#F8F8F8"/>
<path d="M12.9077 10.5769H10.5769C10.3219 10.5769 10.0773 10.4756 9.89698 10.2953C9.71666 10.115 9.61536 9.87042 9.61536 9.61541C9.61536 9.36039 9.71666 9.11582 9.89698 8.9355C10.0773 8.75517 10.3219 8.65387 10.5769 8.65387H13.6596C13.8741 8.65393 14.0824 8.7257 14.2514 8.85776C14.4204 8.98983 14.5404 9.17461 14.5923 9.38272L18.2404 23.9981C18.2955 24.2431 18.2526 24.5 18.1208 24.7138C17.989 24.9276 17.7787 25.0813 17.535 25.1421C17.2913 25.2029 17.0335 25.166 16.8167 25.0391C16.6 24.9123 16.4414 24.7057 16.375 24.4635L12.9077 10.5769Z" fill="#F8F8F8"/>
<path fill-rule="evenodd" clip-rule="evenodd" d="M35.5673 20.1923H20.2019C19.9135 20.1923 19.625 20.225 19.3423 20.2885C18.3424 20.5228 17.4761 21.1436 16.9326 22.0149C16.3892 22.8863 16.2129 23.9375 16.4423 24.9385L17.9481 31.5942C18.139 32.4504 18.6157 33.216 19.2997 33.7652C19.9838 34.3143 20.8344 34.6141 21.7115 34.6154H34.0635C34.9395 34.6127 35.7887 34.3124 36.4718 33.7639C37.1548 33.2153 37.6313 32.451 37.8231 31.5962L39.3289 24.9385C39.4607 24.3717 39.4631 23.7825 39.3357 23.2147C39.2084 22.6469 38.9546 22.1152 38.5933 21.659C38.2319 21.2029 37.7724 20.8341 37.2488 20.5802C36.7252 20.3262 36.1492 20.1937 35.5673 20.1923ZM19.775 22.1635C19.9157 22.1313 20.0595 22.1152 20.2039 22.1154H35.5673C35.8605 22.117 36.1495 22.1848 36.4129 22.3137C36.6762 22.4425 36.9071 22.6292 37.0882 22.8597C37.2694 23.0902 37.3962 23.3587 37.4592 23.645C37.5221 23.9314 37.5197 24.2282 37.4519 24.5135L35.9442 31.1712C35.8492 31.6009 35.6108 31.9855 35.2684 32.2619C34.9259 32.5383 34.4997 32.6901 34.0596 32.6923H21.7115C20.8115 32.6923 20.0289 32.0616 19.8269 31.1712L18.3212 24.5135C18.2045 24.0089 18.292 23.4787 18.5647 23.0385C18.8375 22.5982 19.2732 22.2837 19.7769 22.1635H19.775Z" fill="#F8F8F8"/>
<path d="M38.4616 37.9808C38.4616 38.4227 38.3745 38.8604 38.2054 39.2687C38.0363 39.677 37.7884 40.048 37.4759 40.3605C37.1634 40.673 36.7924 40.9209 36.3841 41.09C35.9758 41.2591 35.5382 41.3462 35.0962 41.3462C34.6543 41.3462 34.2166 41.2591 33.8083 41.09C33.4 40.9209 33.029 40.673 32.7165 40.3605C32.404 40.048 32.1561 39.677 31.987 39.2687C31.8179 38.8604 31.7308 38.4227 31.7308 37.9808C31.7308 37.0882 32.0854 36.2322 32.7165 35.6011C33.3477 34.97 34.2037 34.6154 35.0962 34.6154C35.9888 34.6154 36.8448 34.97 37.4759 35.6011C38.107 36.2322 38.4616 37.0882 38.4616 37.9808ZM25.0001 37.9808C25.0001 38.8734 24.6455 39.7294 24.0144 40.3605C23.3832 40.9916 22.5272 41.3462 21.6347 41.3462C20.7421 41.3462 19.8861 40.9916 19.255 40.3605C18.6239 39.7294 18.2693 38.8734 18.2693 37.9808C18.2693 37.0882 18.6239 36.2322 19.255 35.6011C19.8861 34.97 20.7421 34.6154 21.6347 34.6154C22.5272 34.6154 23.3832 34.97 24.0144 35.6011C24.6455 36.2322 25.0001 37.0882 25.0001 37.9808Z" fill="#F8F8F8"/>
<path fill-rule="evenodd" clip-rule="evenodd" d="M25 47.1154C37.2135 47.1154 47.1154 37.2135 47.1154 25C47.1154 12.7865 37.2135 2.88462 25 2.88462C12.7865 2.88462 2.88462 12.7865 2.88462 25C2.88462 37.2135 12.7865 47.1154 25 47.1154ZM25 49.0385C38.2769 49.0385 49.0385 38.2769 49.0385 25C49.0385 11.7231 38.2769 0.961548 25 0.961548C11.7231 0.961548 0.961548 11.7231 0.961548 25C0.961548 38.2769 11.7231 49.0385 25 49.0385Z" fill="#F8F8F8"/>
</svg>
