<svg width="25" height="25" viewBox="0 0 25 25" fill="none" xmlns="http://www.w3.org/2000/svg">
<path opacity="0.2" fill-rule="evenodd" clip-rule="evenodd" d="M12.9808 25C19.6192 25 25 19.6192 25 12.9808C25 6.34232 19.6192 0.961548 12.9808 0.961548C6.34232 0.961548 0.961548 6.34232 0.961548 12.9808C0.961548 19.6192 6.34232 25 12.9808 25ZM12.9808 23.0769C18.5567 23.0769 23.0769 18.5567 23.0769 12.9808C23.0769 7.40482 18.5567 2.88462 12.9808 2.88462C7.40482 2.88462 2.88462 7.40482 2.88462 12.9808C2.88462 18.5567 7.40482 23.0769 12.9808 23.0769Z" fill="#F8F8F8"/>
<path opacity="0.2" fill-rule="evenodd" clip-rule="evenodd" d="M7.90287 5.52886H6.92306C6.7318 5.52886 6.54837 5.45288 6.41313 5.31763C6.27788 5.18239 6.2019 4.99896 6.2019 4.8077C6.2019 4.61644 6.27788 4.43301 6.41313 4.29777C6.54837 4.16253 6.7318 4.08655 6.92306 4.08655H8.4644C8.62486 4.08656 8.78073 4.1401 8.90735 4.23867C9.03396 4.33724 9.12408 4.47522 9.16344 4.63078L10.6077 10.3394C10.894 10.1798 11.2164 10.096 11.5442 10.0962H19.2259C19.5169 10.0968 19.8039 10.1631 20.0657 10.2901C20.3275 10.4171 20.5573 10.6014 20.738 10.8295C20.9186 11.0576 21.0455 11.3235 21.1092 11.6074C21.1729 11.8913 21.1717 12.1859 21.1058 12.4692L20.3529 15.7971C20.2573 16.2251 20.0189 16.6078 19.6769 16.8824C19.3349 17.1569 18.9097 17.3069 18.4711 17.3077H12.2981C11.8598 17.3069 11.4348 17.157 11.093 16.8827C10.7512 16.6083 10.5129 16.2258 10.4173 15.7981L9.6644 12.4692C9.65409 12.4231 9.64543 12.3766 9.63844 12.3298C9.61802 12.2866 9.60192 12.2415 9.59037 12.1952L7.90287 5.52886ZM11.7788 20.6731C12.2251 20.6731 12.6531 20.4958 12.9687 20.1802C13.2842 19.8647 13.4615 19.4367 13.4615 18.9904C13.4615 18.5441 13.2842 18.1161 12.9687 17.8006C12.6531 17.485 12.2251 17.3077 11.7788 17.3077C11.3325 17.3077 10.9046 17.485 10.589 17.8006C10.2734 18.1161 10.0961 18.5441 10.0961 18.9904C10.0961 19.4367 10.2734 19.8647 10.589 20.1802C10.9046 20.4958 11.3325 20.6731 11.7788 20.6731ZM18.5096 20.6731C18.9559 20.6731 19.3839 20.4958 19.6994 20.1802C20.015 19.8647 20.1923 19.4367 20.1923 18.9904C20.1923 18.5441 20.015 18.1161 19.6994 17.8006C19.3839 17.485 18.9559 17.3077 18.5096 17.3077C18.0633 17.3077 17.6353 17.485 17.3198 17.8006C17.0042 18.1161 16.8269 18.5441 16.8269 18.9904C16.8269 19.4367 17.0042 19.8647 17.3198 20.1802C17.6353 20.4958 18.0633 20.6731 18.5096 20.6731Z" fill="#F8F8F8"/>
<path d="M6.45383 5.28844H5.28845C5.16094 5.28844 5.03865 5.23779 4.94849 5.14763C4.85833 5.05747 4.80768 4.93518 4.80768 4.80767C4.80768 4.68017 4.85833 4.55788 4.94849 4.46772C5.03865 4.37756 5.16094 4.3269 5.28845 4.3269H6.82979C6.93704 4.32693 7.04119 4.36282 7.12569 4.42885C7.21019 4.49488 7.27019 4.58727 7.29614 4.69133L9.12018 11.999C9.14775 12.1215 9.12629 12.25 9.06038 12.3569C8.99448 12.4638 8.88936 12.5406 8.76751 12.571C8.64567 12.6014 8.51677 12.583 8.40837 12.5195C8.29998 12.4561 8.2207 12.3528 8.18749 12.2317L6.45383 5.28844Z" fill="#F8F8F8"/>
<path fill-rule="evenodd" clip-rule="evenodd" d="M17.7837 10.0961H10.101C9.95674 10.0961 9.8125 10.1125 9.67116 10.1442C9.17122 10.2614 8.73803 10.5717 8.4663 11.0074C8.19458 11.4431 8.10644 11.9687 8.22116 12.4692L8.97404 15.7971C9.06949 16.2252 9.30784 16.608 9.64986 16.8825C9.99188 17.1571 10.4172 17.307 10.8558 17.3077H17.0317C17.4698 17.3063 17.8943 17.1562 18.2359 16.8819C18.5774 16.6076 18.8157 16.2255 18.9115 15.7981L19.6644 12.4692C19.7304 12.1858 19.7315 11.8912 19.6679 11.6073C19.6042 11.3234 19.4773 11.0575 19.2966 10.8295C19.116 10.6014 18.8862 10.417 18.6244 10.2901C18.3626 10.1631 18.0746 10.0968 17.7837 10.0961ZM9.8875 11.0817C9.95784 11.0656 10.0298 11.0575 10.1019 11.0577H17.7837C17.9302 11.0585 18.0748 11.0924 18.2064 11.1568C18.3381 11.2212 18.4535 11.3146 18.5441 11.4298C18.6347 11.5451 18.6981 11.6793 18.7296 11.8225C18.7611 11.9656 18.7598 12.1141 18.726 12.2567L17.9721 15.5856C17.9246 15.8004 17.8054 15.9927 17.6342 16.1309C17.463 16.2691 17.2499 16.345 17.0298 16.3461H10.8558C10.4058 16.3461 10.0144 16.0307 9.91347 15.5856L9.16058 12.2567C9.10223 12.0044 9.14601 11.7393 9.28237 11.5192C9.41873 11.2991 9.6366 11.1418 9.88847 11.0817H9.8875Z" fill="#F8F8F8"/>
<path d="M19.2308 18.9904C19.2308 19.2113 19.1873 19.4302 19.1027 19.6343C19.0181 19.8385 18.8942 20.024 18.7379 20.1802C18.5817 20.3365 18.3962 20.4604 18.192 20.545C17.9879 20.6295 17.7691 20.6731 17.5481 20.6731C17.3271 20.6731 17.1083 20.6295 16.9042 20.545C16.7 20.4604 16.5145 20.3365 16.3583 20.1802C16.202 20.024 16.0781 19.8385 15.9935 19.6343C15.9089 19.4302 15.8654 19.2113 15.8654 18.9904C15.8654 18.5441 16.0427 18.1161 16.3583 17.8005C16.6738 17.485 17.1018 17.3077 17.5481 17.3077C17.9944 17.3077 18.4224 17.485 18.7379 17.8005C19.0535 18.1161 19.2308 18.5441 19.2308 18.9904ZM12.5 18.9904C12.5 19.4366 12.3227 19.8646 12.0072 20.1802C11.6916 20.4958 11.2636 20.6731 10.8173 20.6731C10.3711 20.6731 9.94306 20.4958 9.62749 20.1802C9.31193 19.8646 9.13464 19.4366 9.13464 18.9904C9.13464 18.5441 9.31193 18.1161 9.62749 17.8005C9.94306 17.485 10.3711 17.3077 10.8173 17.3077C11.2636 17.3077 11.6916 17.485 12.0072 17.8005C12.3227 18.1161 12.5 18.5441 12.5 18.9904Z" fill="#F8F8F8"/>
<path fill-rule="evenodd" clip-rule="evenodd" d="M12.5 23.5577C18.6067 23.5577 23.5577 18.6067 23.5577 12.5C23.5577 6.39327 18.6067 1.44231 12.5 1.44231C6.39327 1.44231 1.44231 6.39327 1.44231 12.5C1.44231 18.6067 6.39327 23.5577 12.5 23.5577ZM12.5 24.5192C19.1385 24.5192 24.5192 19.1385 24.5192 12.5C24.5192 5.86154 19.1385 0.480774 12.5 0.480774C5.86154 0.480774 0.480774 5.86154 0.480774 12.5C0.480774 19.1385 5.86154 24.5192 12.5 24.5192Z" fill="#F8F8F8"/>
</svg>
