<svg width="25" height="25" viewBox="0 0 25 25" fill="none" xmlns="http://www.w3.org/2000/svg">
<path fill-rule="evenodd" clip-rule="evenodd" d="M20.3073 3.26355C20.538 3.1246 20.8135 3.0804 21.0761 3.14022C21.3387 3.20004 21.5679 3.35922 21.7156 3.58438L22.7469 5.1573C22.8816 5.36287 22.9393 5.60946 22.9097 5.85346C22.8802 6.09746 22.7653 6.32315 22.5854 6.49063L22.5823 6.4948L22.5677 6.50834L22.5083 6.56355L22.274 6.7875C20.9771 8.04542 19.7195 9.34326 18.5031 10.6792C16.2146 13.1958 13.4969 16.4896 11.6677 19.6854C11.1573 20.5771 9.91043 20.7688 9.17084 19.999L2.41564 12.9802C2.31883 12.8796 2.24324 12.7605 2.19336 12.6301C2.14348 12.4997 2.12033 12.3606 2.12529 12.221C2.13025 12.0815 2.16321 11.9444 2.22221 11.8178C2.28121 11.6913 2.36506 11.5779 2.46876 11.4844L4.51043 9.64271C4.68985 9.48095 4.91991 9.38658 5.16124 9.37575C5.40257 9.36492 5.64016 9.4383 5.83334 9.58334L9.28022 12.1677C14.6636 6.85834 17.7177 4.82084 20.3073 3.26355ZM20.5261 5.57188C18.1406 7.06355 15.1636 9.22709 10.1115 14.2781C9.93419 14.4554 9.69891 14.5628 9.44882 14.5806C9.19873 14.5984 8.95061 14.5254 8.75001 14.375L5.26876 11.7646L4.66355 12.3104L10.2021 18.0667C12.125 14.8688 14.7719 11.6854 16.9625 9.27709C18.1161 8.00985 19.3058 6.776 20.5302 5.57709L20.5261 5.57188Z" fill="#5A9E61"/>
</svg>
