<svg width="25" height="25" viewBox="0 0 25 25" fill="none" xmlns="http://www.w3.org/2000/svg">
<path opacity="0.2" d="M12.5 5.46875C4.6875 5.46875 1.5625 12.5 1.5625 12.5C1.5625 12.5 4.6875 19.5312 12.5 19.5312C20.3125 19.5312 23.4375 12.5 23.4375 12.5C23.4375 12.5 20.3125 5.46875 12.5 5.46875ZM12.5 16.4062C11.7274 16.4062 10.9722 16.1772 10.3298 15.7479C9.68742 15.3187 9.18675 14.7086 8.8911 13.9949C8.59544 13.2811 8.51808 12.4957 8.66881 11.7379C8.81953 10.9802 9.19157 10.2842 9.73786 9.73786C10.2842 9.19157 10.9802 8.81953 11.7379 8.66881C12.4957 8.51808 13.2811 8.59544 13.9949 8.8911C14.7086 9.18675 15.3187 9.68742 15.7479 10.3298C16.1772 10.9722 16.4062 11.7274 16.4062 12.5C16.4062 13.536 15.9947 14.5296 15.2621 15.2621C14.5296 15.9947 13.536 16.4062 12.5 16.4062Z" fill="#F8F8F8"/>
<path d="M24.1514 12.1836C24.1172 12.1064 23.29 10.2715 21.4512 8.43262C19.001 5.98242 15.9062 4.6875 12.5 4.6875C9.09374 4.6875 5.99901 5.98242 3.54882 8.43262C1.70995 10.2715 0.878897 12.1094 0.848623 12.1836C0.804203 12.2835 0.78125 12.3916 0.78125 12.501C0.78125 12.6103 0.804203 12.7184 0.848623 12.8184C0.882803 12.8955 1.70995 14.7295 3.54882 16.5684C5.99901 19.0176 9.09374 20.3125 12.5 20.3125C15.9062 20.3125 19.001 19.0176 21.4512 16.5684C23.29 14.7295 24.1172 12.8955 24.1514 12.8184C24.1958 12.7184 24.2187 12.6103 24.2187 12.501C24.2187 12.3916 24.1958 12.2835 24.1514 12.1836ZM12.5 18.75C9.49413 18.75 6.86815 17.6572 4.69433 15.5029C3.80238 14.6159 3.04353 13.6044 2.4414 12.5C3.04337 11.3954 3.80223 10.384 4.69433 9.49707C6.86815 7.34277 9.49413 6.25 12.5 6.25C15.5059 6.25 18.1318 7.34277 20.3057 9.49707C21.1993 10.3837 21.9598 11.3952 22.5635 12.5C21.8594 13.8145 18.792 18.75 12.5 18.75ZM12.5 7.8125C11.5729 7.8125 10.6666 8.08742 9.89576 8.60249C9.1249 9.11756 8.52409 9.84964 8.16931 10.7062C7.81452 11.5627 7.72169 12.5052 7.90256 13.4145C8.08343 14.3238 8.52987 15.159 9.18543 15.8146C9.84099 16.4701 10.6762 16.9166 11.5855 17.0974C12.4948 17.2783 13.4373 17.1855 14.2938 16.8307C15.1503 16.4759 15.8824 15.8751 16.3975 15.1042C16.9126 14.3334 17.1875 13.4271 17.1875 12.5C17.1862 11.2572 16.6919 10.0657 15.8131 9.18686C14.9343 8.30807 13.7428 7.81379 12.5 7.8125ZM12.5 15.625C11.8819 15.625 11.2777 15.4417 10.7638 15.0983C10.2499 14.755 9.84939 14.2669 9.61287 13.6959C9.37634 13.1249 9.31446 12.4965 9.43504 11.8903C9.55562 11.2842 9.85324 10.7273 10.2903 10.2903C10.7273 9.85325 11.2841 9.55562 11.8903 9.43505C12.4965 9.31447 13.1249 9.37635 13.6959 9.61288C14.2669 9.8494 14.755 10.2499 15.0983 10.7638C15.4417 11.2777 15.625 11.8819 15.625 12.5C15.625 13.3288 15.2958 14.1237 14.7097 14.7097C14.1236 15.2958 13.3288 15.625 12.5 15.625Z" fill="#F8F8F8"/>
</svg>
