<svg width="25" height="25" viewBox="0 0 25 25" fill="none" xmlns="http://www.w3.org/2000/svg">
<path d="M12.5 3.125H8.33333C5.45685 3.125 3.125 5.45685 3.125 8.33333V16.6667C3.125 19.5431 5.45685 21.875 8.33333 21.875H16.6667C19.5431 21.875 21.875 19.5431 21.875 16.6667V8.33333C21.875 5.45685 19.5431 3.125 16.6667 3.125H12.5Z" stroke="#F8F8F8" stroke-width="2.08333" stroke-linecap="round" stroke-linejoin="round"/>
<path d="M12.5 8.33331C14.8012 8.33331 16.6666 10.1988 16.6666 12.5C16.6666 14.8012 14.8012 16.6666 12.5 16.6666C10.1988 16.6666 8.33331 14.8011 8.33331 12.5C8.33331 10.1988 10.1988 8.33331 12.5 8.33331Z" stroke="#F8F8F8" stroke-width="2.08333" stroke-linecap="round" stroke-linejoin="round"/>
<path d="M17.7083 8.85419C18.5713 8.85419 19.2708 8.15463 19.2708 7.29169C19.2708 6.42874 18.5713 5.72919 17.7083 5.72919C16.8454 5.72919 16.1458 6.42874 16.1458 7.29169C16.1458 8.15463 16.8454 8.85419 17.7083 8.85419Z" fill="#F8F8F8"/>
</svg>
