<svg width="50" height="50" viewBox="0 0 50 50" fill="none" xmlns="http://www.w3.org/2000/svg">
<path opacity="0.5" d="M25 25C28.4518 25 31.25 22.2018 31.25 18.75C31.25 15.2982 28.4518 12.5 25 12.5C21.5482 12.5 18.75 15.2982 18.75 18.75C18.75 22.2018 21.5482 25 25 25Z" stroke="#F8F8F8" stroke-width="1.5625"/>
<path d="M25 45.8334C36.5059 45.8334 45.8333 36.506 45.8333 25C45.8333 13.4941 36.5059 4.16669 25 4.16669C13.494 4.16669 4.16663 13.4941 4.16663 25C4.16663 36.506 13.494 45.8334 25 45.8334Z" stroke="#F8F8F8" stroke-width="1.5625"/>
<path opacity="0.5" d="M37.4375 41.6667C37.1042 35.6417 35.2604 31.25 25 31.25C14.7396 31.25 12.8958 35.6417 12.5625 41.6667" stroke="#F8F8F8" stroke-width="1.5625" stroke-linecap="round"/>
</svg>
