<svg width="25" height="25" viewBox="0 0 25 25" fill="none" xmlns="http://www.w3.org/2000/svg">
<path opacity="0.5" d="M12.5 12.5C14.2259 12.5 15.625 11.1009 15.625 9.375C15.625 7.64911 14.2259 6.25 12.5 6.25C10.7741 6.25 9.375 7.64911 9.375 9.375C9.375 11.1009 10.7741 12.5 12.5 12.5Z" stroke="#F8F8F8" stroke-width="1.5625"/>
<path d="M12.5 22.9166C18.2529 22.9166 22.9166 18.2529 22.9166 12.5C22.9166 6.74701 18.2529 2.08331 12.5 2.08331C6.74701 2.08331 2.08331 6.74701 2.08331 12.5C2.08331 18.2529 6.74701 22.9166 12.5 22.9166Z" stroke="#F8F8F8" stroke-width="1.5625"/>
<path opacity="0.5" d="M18.7187 20.8333C18.5521 17.8208 17.6302 15.625 12.5 15.625C7.36979 15.625 6.44792 17.8208 6.28125 20.8333" stroke="#F8F8F8" stroke-width="1.5625" stroke-linecap="round"/>
</svg>
